G04 #@! TF.FileFunction,Copper,L1,Top,Signal*
%FSLAX46Y46*%
G04 Gerber Fmt 4.6, Leading zero omitted, Abs format (unit mm)*
G04 Created by KiCad (PCBNEW 0.201604172031+6696~44~ubuntu14.04.1-product) date Thu 21 Apr 2016 04:41:40 PM EEST*
%MOMM*%
%LPD*%
G01*
G04 APERTURE LIST*
%ADD10C,0.100000*%
%ADD11C,1.500000*%
%ADD12C,2.600000*%
%ADD13C,2.200000*%
%ADD14O,1.600000X2.540000*%
%ADD15R,1.574800X2.286000*%
%ADD16O,1.574800X2.286000*%
%ADD17R,1.000000X2.000000*%
%ADD18O,1.000000X2.000000*%
%ADD19R,1.300000X1.300000*%
%ADD20C,1.300000*%
%ADD21R,2.032000X1.727200*%
%ADD22O,2.032000X1.727200*%
%ADD23R,2.900000X2.900000*%
%ADD24C,2.900000*%
%ADD25C,3.000000*%
%ADD26R,2.000000X2.000000*%
%ADD27C,2.000000*%
%ADD28R,1.727200X2.032000*%
%ADD29O,1.727200X2.032000*%
%ADD30C,1.200000*%
%ADD31C,0.600000*%
%ADD32C,1.000000*%
%ADD33C,0.500000*%
%ADD34C,0.254000*%
G04 APERTURE END LIST*
D10*
D11*
X118100000Y-75800000D03*
X127500000Y-77200000D03*
D12*
X103810000Y-126190000D03*
X96190000Y-121110000D03*
X96190000Y-112220000D03*
X103810000Y-112220000D03*
D13*
X100000000Y-117300000D03*
X100000000Y-112220000D03*
D12*
X148810000Y-126090000D03*
X141190000Y-121110000D03*
X148810000Y-117300000D03*
X141190000Y-116670000D03*
D13*
X145000000Y-112850000D03*
X153250000Y-123020000D03*
D14*
X177920000Y-120000000D03*
X177920000Y-127620000D03*
X180460000Y-120000000D03*
X180460000Y-127620000D03*
X183000000Y-120000000D03*
X183000000Y-127620000D03*
X185540000Y-120000000D03*
X185540000Y-127620000D03*
X188080000Y-120000000D03*
X188080000Y-127620000D03*
X190620000Y-120000000D03*
X190620000Y-127620000D03*
X193160000Y-120000000D03*
X193160000Y-127620000D03*
X195700000Y-120000000D03*
X195700000Y-127620000D03*
X198240000Y-120000000D03*
X198240000Y-127620000D03*
X200780000Y-120000000D03*
X200780000Y-127620000D03*
D15*
X128950000Y-97620000D03*
D16*
X131490000Y-97620000D03*
X134030000Y-97620000D03*
X136570000Y-97620000D03*
X139110000Y-97620000D03*
X141650000Y-97620000D03*
X144190000Y-97620000D03*
X146730000Y-97620000D03*
X149270000Y-97620000D03*
X151810000Y-97620000D03*
X154350000Y-97620000D03*
X156890000Y-97620000D03*
X159430000Y-97620000D03*
X161970000Y-97620000D03*
X164510000Y-97620000D03*
X164510000Y-82380000D03*
X161970000Y-82380000D03*
X159430000Y-82380000D03*
X156890000Y-82380000D03*
X154350000Y-82380000D03*
X151810000Y-82380000D03*
X149270000Y-82380000D03*
X146730000Y-82380000D03*
X144190000Y-82380000D03*
X141650000Y-82380000D03*
X139110000Y-82380000D03*
X136570000Y-82380000D03*
X134030000Y-82380000D03*
X131490000Y-82380000D03*
X128950000Y-82380000D03*
D17*
X200000000Y-113000000D03*
D18*
X197000000Y-113000000D03*
X195000000Y-113000000D03*
X192000000Y-113000000D03*
X190000000Y-113000000D03*
X188000000Y-113000000D03*
X186000000Y-113000000D03*
X183000000Y-113000000D03*
X181000000Y-113000000D03*
X178000000Y-113000000D03*
D19*
X193000000Y-82000000D03*
D20*
X193000000Y-87000000D03*
D19*
X178000000Y-82000000D03*
D20*
X178000000Y-87000000D03*
D19*
X105000000Y-83000000D03*
D20*
X105000000Y-78000000D03*
D21*
X97000000Y-91300000D03*
D22*
X97000000Y-93840000D03*
X97000000Y-96380000D03*
X97000000Y-98920000D03*
X97000000Y-101460000D03*
X97000000Y-104000000D03*
X97000000Y-106540000D03*
D23*
X205000000Y-86000000D03*
D24*
X205000000Y-82040000D03*
D18*
X120400000Y-97400000D03*
X118400000Y-97400000D03*
X116400000Y-97400000D03*
D25*
X122400000Y-104400000D03*
X114400000Y-104400000D03*
D26*
X162460000Y-127000000D03*
D27*
X165000000Y-127000000D03*
D26*
X171540000Y-127000000D03*
D27*
X169000000Y-127000000D03*
D28*
X139200000Y-100800000D03*
D29*
X141740000Y-100800000D03*
X144280000Y-100800000D03*
X146820000Y-100800000D03*
X149360000Y-100800000D03*
X151900000Y-100800000D03*
X154440000Y-100800000D03*
X156980000Y-100800000D03*
X159520000Y-100800000D03*
X162060000Y-100800000D03*
X164600000Y-100800000D03*
D28*
X139080000Y-77300000D03*
D29*
X141620000Y-77300000D03*
X144160000Y-77300000D03*
X146700000Y-77300000D03*
X149240000Y-77300000D03*
X151780000Y-77300000D03*
X154320000Y-77300000D03*
X156860000Y-77300000D03*
D30*
X188500000Y-80500000D03*
X187000000Y-80500000D03*
X185500000Y-80500000D03*
X184000000Y-80500000D03*
X104000000Y-80000000D03*
X107000000Y-77000000D03*
X105000000Y-76000000D03*
X103000000Y-78000000D03*
X101200000Y-101600000D03*
X101200000Y-100300000D03*
X96900000Y-108600000D03*
X94900000Y-106700000D03*
X99000000Y-107000004D03*
X180800000Y-99300000D03*
X136993254Y-86493254D03*
X181000000Y-85700000D03*
X137100000Y-99500000D03*
X135600000Y-99400000D03*
X200700000Y-105500000D03*
X190100000Y-106800000D03*
X192400000Y-84000000D03*
X191000000Y-85600000D03*
X140900000Y-86600000D03*
X133000000Y-84700000D03*
X130000000Y-84600000D03*
X131500000Y-84600000D03*
X181500000Y-93700000D03*
X200300000Y-110700000D03*
X191300000Y-100400000D03*
X200600000Y-100400000D03*
X197500000Y-79300000D03*
X202100000Y-89200000D03*
X204500000Y-89200000D03*
X206900000Y-89000000D03*
X195200000Y-90100000D03*
X193000000Y-90600000D03*
X190300000Y-90000000D03*
X180300000Y-90200000D03*
X175400000Y-90000000D03*
X178000000Y-90700000D03*
X183500000Y-87200000D03*
X185939514Y-88779648D03*
X178200000Y-83500000D03*
X136400000Y-101200000D03*
X103700000Y-102400000D03*
X136500000Y-103500000D03*
X111600000Y-102600000D03*
X181000000Y-96200002D03*
X200400000Y-96400000D03*
X190300000Y-96400000D03*
X178800000Y-93700000D03*
X200300000Y-97800000D03*
X190300000Y-97800000D03*
X181700000Y-104100000D03*
X191700000Y-105600000D03*
X188600000Y-87500000D03*
X174900000Y-80300000D03*
D31*
X187000000Y-80500000D02*
X188500000Y-80500000D01*
X184000000Y-80500000D02*
X185500000Y-80500000D01*
X105000000Y-78000000D02*
X105000000Y-79000000D01*
X105000000Y-79000000D02*
X104000000Y-80000000D01*
X105000000Y-78000000D02*
X105000000Y-76000000D01*
X105000000Y-78000000D02*
X103000000Y-78000000D01*
X101200000Y-100300000D02*
X101200000Y-101600000D01*
X137100000Y-86600000D02*
X136993254Y-86493254D01*
X140900000Y-86600000D02*
X137100000Y-86600000D01*
X136570000Y-97620000D02*
X136570000Y-98430000D01*
X136570000Y-98430000D02*
X135600000Y-99400000D01*
X131500000Y-84600000D02*
X132900000Y-84600000D01*
X132900000Y-84600000D02*
X133000000Y-84700000D01*
X131490000Y-82380000D02*
X131490000Y-84590000D01*
X131490000Y-84590000D02*
X131500000Y-84600000D01*
X202100000Y-89200000D02*
X202100000Y-83900000D01*
X202100000Y-83900000D02*
X197500000Y-79300000D01*
D32*
X185939514Y-88779648D02*
X185879648Y-88779648D01*
X185879648Y-88779648D02*
X184200000Y-87100000D01*
X184200000Y-87100000D02*
X183600000Y-87100000D01*
X183600000Y-87100000D02*
X183500000Y-87200000D01*
X180724002Y-83500000D02*
X183500000Y-86275998D01*
X178200000Y-83500000D02*
X180724002Y-83500000D01*
X183500000Y-86275998D02*
X183500000Y-86351472D01*
X183500000Y-86351472D02*
X183500000Y-87200000D01*
D31*
X104900000Y-101200000D02*
X135551472Y-101200000D01*
X103700000Y-102400000D02*
X104900000Y-101200000D01*
X135551472Y-101200000D02*
X136400000Y-101200000D01*
X135900001Y-102900001D02*
X136500000Y-103500000D01*
X135100000Y-102100000D02*
X135900001Y-102900001D01*
X112948528Y-102100000D02*
X135100000Y-102100000D01*
X111600000Y-102600000D02*
X112448528Y-102600000D01*
X112448528Y-102600000D02*
X112948528Y-102100000D01*
X181199998Y-96400000D02*
X181000000Y-96200002D01*
X190300000Y-96400000D02*
X181199998Y-96400000D01*
X190300000Y-96400000D02*
X200400000Y-96400000D01*
X190300000Y-97800000D02*
X180700000Y-97800000D01*
X178800000Y-93700000D02*
X179399999Y-94299999D01*
X179399999Y-94299999D02*
X179399999Y-96499999D01*
X179399999Y-96499999D02*
X180700000Y-97800000D01*
X190300000Y-97800000D02*
X200300000Y-97800000D01*
X191700000Y-105600000D02*
X190200000Y-104100000D01*
X190200000Y-104100000D02*
X181700000Y-104100000D01*
D33*
X186000000Y-113000000D02*
X186000000Y-112500000D01*
D31*
X174900000Y-80300000D02*
X179000000Y-80300000D01*
X179000000Y-80300000D02*
X186200000Y-87500000D01*
X186200000Y-87500000D02*
X188600000Y-87500000D01*
D34*
G36*
X209290000Y-129290000D02*
X201573229Y-129290000D01*
X201794698Y-129142019D01*
X202105767Y-128676472D01*
X202215000Y-128127321D01*
X202215000Y-127112679D01*
X202105767Y-126563528D01*
X202024979Y-126442619D01*
X203764613Y-126442619D01*
X204104155Y-127264372D01*
X204732321Y-127893636D01*
X205553481Y-128234611D01*
X206442619Y-128235387D01*
X207264372Y-127895845D01*
X207893636Y-127267679D01*
X208234611Y-126446519D01*
X208235387Y-125557381D01*
X207895845Y-124735628D01*
X207267679Y-124106364D01*
X206446519Y-123765389D01*
X205557381Y-123764613D01*
X204735628Y-124104155D01*
X204106364Y-124732321D01*
X203765389Y-125553481D01*
X203764613Y-126442619D01*
X202024979Y-126442619D01*
X201794698Y-126097981D01*
X201329151Y-125786912D01*
X200780000Y-125677679D01*
X200230849Y-125786912D01*
X199765302Y-126097981D01*
X199510000Y-126480067D01*
X199254698Y-126097981D01*
X198789151Y-125786912D01*
X198240000Y-125677679D01*
X197690849Y-125786912D01*
X197225302Y-126097981D01*
X196970000Y-126480067D01*
X196714698Y-126097981D01*
X196249151Y-125786912D01*
X195700000Y-125677679D01*
X195150849Y-125786912D01*
X194685302Y-126097981D01*
X194430000Y-126480067D01*
X194174698Y-126097981D01*
X193709151Y-125786912D01*
X193160000Y-125677679D01*
X192610849Y-125786912D01*
X192145302Y-126097981D01*
X191890000Y-126480067D01*
X191634698Y-126097981D01*
X191169151Y-125786912D01*
X190620000Y-125677679D01*
X190070849Y-125786912D01*
X189605302Y-126097981D01*
X189350000Y-126480067D01*
X189094698Y-126097981D01*
X188629151Y-125786912D01*
X188080000Y-125677679D01*
X187530849Y-125786912D01*
X187065302Y-126097981D01*
X186810000Y-126480067D01*
X186554698Y-126097981D01*
X186089151Y-125786912D01*
X185540000Y-125677679D01*
X184990849Y-125786912D01*
X184525302Y-126097981D01*
X184270000Y-126480067D01*
X184014698Y-126097981D01*
X183549151Y-125786912D01*
X183000000Y-125677679D01*
X182450849Y-125786912D01*
X181985302Y-126097981D01*
X181730000Y-126480067D01*
X181474698Y-126097981D01*
X181009151Y-125786912D01*
X180460000Y-125677679D01*
X179910849Y-125786912D01*
X179445302Y-126097981D01*
X179190000Y-126480067D01*
X178934698Y-126097981D01*
X178469151Y-125786912D01*
X177920000Y-125677679D01*
X177370849Y-125786912D01*
X176905302Y-126097981D01*
X176594233Y-126563528D01*
X176485000Y-127112679D01*
X176485000Y-128127321D01*
X176594233Y-128676472D01*
X176905302Y-129142019D01*
X177126771Y-129290000D01*
X80710000Y-129290000D01*
X80710000Y-126442619D01*
X81764613Y-126442619D01*
X82104155Y-127264372D01*
X82732321Y-127893636D01*
X83553481Y-128234611D01*
X84442619Y-128235387D01*
X85264372Y-127895845D01*
X85893636Y-127267679D01*
X86182005Y-126573207D01*
X101874665Y-126573207D01*
X102168630Y-127284658D01*
X102712479Y-127829457D01*
X103423416Y-128124663D01*
X104193207Y-128125335D01*
X104904658Y-127831370D01*
X105449457Y-127287521D01*
X105744663Y-126576584D01*
X105744753Y-126473207D01*
X146874665Y-126473207D01*
X147168630Y-127184658D01*
X147712479Y-127729457D01*
X148423416Y-128024663D01*
X149193207Y-128025335D01*
X149904658Y-127731370D01*
X150449457Y-127187521D01*
X150744663Y-126476584D01*
X150745079Y-126000000D01*
X160812560Y-126000000D01*
X160812560Y-128000000D01*
X160861843Y-128247765D01*
X161002191Y-128457809D01*
X161212235Y-128598157D01*
X161460000Y-128647440D01*
X163460000Y-128647440D01*
X163707765Y-128598157D01*
X163917809Y-128457809D01*
X164058157Y-128247765D01*
X164059600Y-128240509D01*
X164125736Y-128419387D01*
X164735461Y-128645908D01*
X165385460Y-128621856D01*
X165874264Y-128419387D01*
X165972927Y-128152532D01*
X165000000Y-127179605D01*
X164985858Y-127193748D01*
X164806253Y-127014143D01*
X164820395Y-127000000D01*
X165179605Y-127000000D01*
X166152532Y-127972927D01*
X166419387Y-127874264D01*
X166645908Y-127264539D01*
X166626331Y-126735461D01*
X167354092Y-126735461D01*
X167378144Y-127385460D01*
X167580613Y-127874264D01*
X167847468Y-127972927D01*
X168820395Y-127000000D01*
X167847468Y-126027073D01*
X167580613Y-126125736D01*
X167354092Y-126735461D01*
X166626331Y-126735461D01*
X166621856Y-126614540D01*
X166419387Y-126125736D01*
X166152532Y-126027073D01*
X165179605Y-127000000D01*
X164820395Y-127000000D01*
X164806253Y-126985858D01*
X164985858Y-126806253D01*
X165000000Y-126820395D01*
X165972927Y-125847468D01*
X168027073Y-125847468D01*
X169000000Y-126820395D01*
X169014143Y-126806253D01*
X169193748Y-126985858D01*
X169179605Y-127000000D01*
X169193748Y-127014143D01*
X169014143Y-127193748D01*
X169000000Y-127179605D01*
X168027073Y-128152532D01*
X168125736Y-128419387D01*
X168735461Y-128645908D01*
X169385460Y-128621856D01*
X169874264Y-128419387D01*
X169940400Y-128240509D01*
X169941843Y-128247765D01*
X170082191Y-128457809D01*
X170292235Y-128598157D01*
X170540000Y-128647440D01*
X172540000Y-128647440D01*
X172787765Y-128598157D01*
X172997809Y-128457809D01*
X173138157Y-128247765D01*
X173187440Y-128000000D01*
X173187440Y-126000000D01*
X173138157Y-125752235D01*
X172997809Y-125542191D01*
X172787765Y-125401843D01*
X172540000Y-125352560D01*
X170540000Y-125352560D01*
X170292235Y-125401843D01*
X170082191Y-125542191D01*
X169941843Y-125752235D01*
X169940400Y-125759491D01*
X169874264Y-125580613D01*
X169264539Y-125354092D01*
X168614540Y-125378144D01*
X168125736Y-125580613D01*
X168027073Y-125847468D01*
X165972927Y-125847468D01*
X165874264Y-125580613D01*
X165264539Y-125354092D01*
X164614540Y-125378144D01*
X164125736Y-125580613D01*
X164059600Y-125759491D01*
X164058157Y-125752235D01*
X163917809Y-125542191D01*
X163707765Y-125401843D01*
X163460000Y-125352560D01*
X161460000Y-125352560D01*
X161212235Y-125401843D01*
X161002191Y-125542191D01*
X160861843Y-125752235D01*
X160812560Y-126000000D01*
X150745079Y-126000000D01*
X150745335Y-125706793D01*
X150451370Y-124995342D01*
X149907521Y-124450543D01*
X149196584Y-124155337D01*
X148426793Y-124154665D01*
X147715342Y-124448630D01*
X147170543Y-124992479D01*
X146875337Y-125703416D01*
X146874665Y-126473207D01*
X105744753Y-126473207D01*
X105745335Y-125806793D01*
X105451370Y-125095342D01*
X104907521Y-124550543D01*
X104196584Y-124255337D01*
X103426793Y-124254665D01*
X102715342Y-124548630D01*
X102170543Y-125092479D01*
X101875337Y-125803416D01*
X101874665Y-126573207D01*
X86182005Y-126573207D01*
X86234611Y-126446519D01*
X86235387Y-125557381D01*
X85895845Y-124735628D01*
X85267679Y-124106364D01*
X84446519Y-123765389D01*
X83557381Y-123764613D01*
X82735628Y-124104155D01*
X82106364Y-124732321D01*
X81765389Y-125553481D01*
X81764613Y-126442619D01*
X80710000Y-126442619D01*
X80710000Y-123363599D01*
X151514699Y-123363599D01*
X151778281Y-124001515D01*
X152265918Y-124490004D01*
X152903373Y-124754699D01*
X153593599Y-124755301D01*
X154231515Y-124491719D01*
X154720004Y-124004082D01*
X154984699Y-123366627D01*
X154985301Y-122676401D01*
X154721719Y-122038485D01*
X154234082Y-121549996D01*
X153596627Y-121285301D01*
X152906401Y-121284699D01*
X152268485Y-121548281D01*
X151779996Y-122035918D01*
X151515301Y-122673373D01*
X151514699Y-123363599D01*
X80710000Y-123363599D01*
X80710000Y-121493207D01*
X94254665Y-121493207D01*
X94548630Y-122204658D01*
X95092479Y-122749457D01*
X95803416Y-123044663D01*
X96573207Y-123045335D01*
X97284658Y-122751370D01*
X97829457Y-122207521D01*
X98124663Y-121496584D01*
X98124665Y-121493207D01*
X139254665Y-121493207D01*
X139548630Y-122204658D01*
X140092479Y-122749457D01*
X140803416Y-123044663D01*
X141573207Y-123045335D01*
X142284658Y-122751370D01*
X142829457Y-122207521D01*
X143124663Y-121496584D01*
X143125335Y-120726793D01*
X142831370Y-120015342D01*
X142309619Y-119492679D01*
X176485000Y-119492679D01*
X176485000Y-120507321D01*
X176594233Y-121056472D01*
X176905302Y-121522019D01*
X177370849Y-121833088D01*
X177920000Y-121942321D01*
X178469151Y-121833088D01*
X178934698Y-121522019D01*
X179190000Y-121139933D01*
X179445302Y-121522019D01*
X179910849Y-121833088D01*
X180460000Y-121942321D01*
X181009151Y-121833088D01*
X181474698Y-121522019D01*
X181730000Y-121139933D01*
X181985302Y-121522019D01*
X182450849Y-121833088D01*
X183000000Y-121942321D01*
X183549151Y-121833088D01*
X184014698Y-121522019D01*
X184270000Y-121139933D01*
X184525302Y-121522019D01*
X184990849Y-121833088D01*
X185540000Y-121942321D01*
X186089151Y-121833088D01*
X186554698Y-121522019D01*
X186810000Y-121139933D01*
X187065302Y-121522019D01*
X187530849Y-121833088D01*
X188080000Y-121942321D01*
X188629151Y-121833088D01*
X189094698Y-121522019D01*
X189350000Y-121139933D01*
X189605302Y-121522019D01*
X190070849Y-121833088D01*
X190620000Y-121942321D01*
X191169151Y-121833088D01*
X191634698Y-121522019D01*
X191890000Y-121139933D01*
X192145302Y-121522019D01*
X192610849Y-121833088D01*
X193160000Y-121942321D01*
X193709151Y-121833088D01*
X194174698Y-121522019D01*
X194430000Y-121139933D01*
X194685302Y-121522019D01*
X195150849Y-121833088D01*
X195700000Y-121942321D01*
X196249151Y-121833088D01*
X196714698Y-121522019D01*
X196970000Y-121139933D01*
X197225302Y-121522019D01*
X197690849Y-121833088D01*
X198240000Y-121942321D01*
X198789151Y-121833088D01*
X199254698Y-121522019D01*
X199510000Y-121139933D01*
X199765302Y-121522019D01*
X200230849Y-121833088D01*
X200780000Y-121942321D01*
X201329151Y-121833088D01*
X201794698Y-121522019D01*
X202105767Y-121056472D01*
X202215000Y-120507321D01*
X202215000Y-119492679D01*
X202105767Y-118943528D01*
X201794698Y-118477981D01*
X201329151Y-118166912D01*
X200780000Y-118057679D01*
X200230849Y-118166912D01*
X199765302Y-118477981D01*
X199510000Y-118860067D01*
X199254698Y-118477981D01*
X198789151Y-118166912D01*
X198240000Y-118057679D01*
X197690849Y-118166912D01*
X197225302Y-118477981D01*
X196970000Y-118860067D01*
X196714698Y-118477981D01*
X196249151Y-118166912D01*
X195700000Y-118057679D01*
X195150849Y-118166912D01*
X194685302Y-118477981D01*
X194430000Y-118860067D01*
X194174698Y-118477981D01*
X193709151Y-118166912D01*
X193160000Y-118057679D01*
X192610849Y-118166912D01*
X192145302Y-118477981D01*
X191890000Y-118860067D01*
X191634698Y-118477981D01*
X191169151Y-118166912D01*
X190620000Y-118057679D01*
X190070849Y-118166912D01*
X189605302Y-118477981D01*
X189350000Y-118860067D01*
X189094698Y-118477981D01*
X188629151Y-118166912D01*
X188080000Y-118057679D01*
X187530849Y-118166912D01*
X187065302Y-118477981D01*
X186810000Y-118860067D01*
X186554698Y-118477981D01*
X186089151Y-118166912D01*
X185540000Y-118057679D01*
X184990849Y-118166912D01*
X184525302Y-118477981D01*
X184270000Y-118860067D01*
X184014698Y-118477981D01*
X183549151Y-118166912D01*
X183000000Y-118057679D01*
X182450849Y-118166912D01*
X181985302Y-118477981D01*
X181730000Y-118860067D01*
X181474698Y-118477981D01*
X181009151Y-118166912D01*
X180460000Y-118057679D01*
X179910849Y-118166912D01*
X179445302Y-118477981D01*
X179190000Y-118860067D01*
X178934698Y-118477981D01*
X178469151Y-118166912D01*
X177920000Y-118057679D01*
X177370849Y-118166912D01*
X176905302Y-118477981D01*
X176594233Y-118943528D01*
X176485000Y-119492679D01*
X142309619Y-119492679D01*
X142287521Y-119470543D01*
X141576584Y-119175337D01*
X140806793Y-119174665D01*
X140095342Y-119468630D01*
X139550543Y-120012479D01*
X139255337Y-120723416D01*
X139254665Y-121493207D01*
X98124665Y-121493207D01*
X98125335Y-120726793D01*
X97831370Y-120015342D01*
X97287521Y-119470543D01*
X96576584Y-119175337D01*
X95806793Y-119174665D01*
X95095342Y-119468630D01*
X94550543Y-120012479D01*
X94255337Y-120723416D01*
X94254665Y-121493207D01*
X80710000Y-121493207D01*
X80710000Y-117643599D01*
X98264699Y-117643599D01*
X98528281Y-118281515D01*
X99015918Y-118770004D01*
X99653373Y-119034699D01*
X100343599Y-119035301D01*
X100981515Y-118771719D01*
X101470004Y-118284082D01*
X101734699Y-117646627D01*
X101735216Y-117053207D01*
X139254665Y-117053207D01*
X139548630Y-117764658D01*
X140092479Y-118309457D01*
X140803416Y-118604663D01*
X141573207Y-118605335D01*
X142284658Y-118311370D01*
X142829457Y-117767521D01*
X142864467Y-117683207D01*
X146874665Y-117683207D01*
X147168630Y-118394658D01*
X147712479Y-118939457D01*
X148423416Y-119234663D01*
X149193207Y-119235335D01*
X149904658Y-118941370D01*
X150449457Y-118397521D01*
X150744663Y-117686584D01*
X150745335Y-116916793D01*
X150451370Y-116205342D01*
X149907521Y-115660543D01*
X149196584Y-115365337D01*
X148426793Y-115364665D01*
X147715342Y-115658630D01*
X147170543Y-116202479D01*
X146875337Y-116913416D01*
X146874665Y-117683207D01*
X142864467Y-117683207D01*
X143124663Y-117056584D01*
X143125335Y-116286793D01*
X142831370Y-115575342D01*
X142287521Y-115030543D01*
X141576584Y-114735337D01*
X140806793Y-114734665D01*
X140095342Y-115028630D01*
X139550543Y-115572479D01*
X139255337Y-116283416D01*
X139254665Y-117053207D01*
X101735216Y-117053207D01*
X101735301Y-116956401D01*
X101471719Y-116318485D01*
X100984082Y-115829996D01*
X100346627Y-115565301D01*
X99656401Y-115564699D01*
X99018485Y-115828281D01*
X98529996Y-116315918D01*
X98265301Y-116953373D01*
X98264699Y-117643599D01*
X80710000Y-117643599D01*
X80710000Y-112603207D01*
X94254665Y-112603207D01*
X94548630Y-113314658D01*
X95092479Y-113859457D01*
X95803416Y-114154663D01*
X96573207Y-114155335D01*
X97284658Y-113861370D01*
X97829457Y-113317521D01*
X98124663Y-112606584D01*
X98124700Y-112563599D01*
X98264699Y-112563599D01*
X98528281Y-113201515D01*
X99015918Y-113690004D01*
X99653373Y-113954699D01*
X100343599Y-113955301D01*
X100981515Y-113691719D01*
X101470004Y-113204082D01*
X101719509Y-112603207D01*
X101874665Y-112603207D01*
X102168630Y-113314658D01*
X102712479Y-113859457D01*
X103423416Y-114154663D01*
X104193207Y-114155335D01*
X104904658Y-113861370D01*
X105449457Y-113317521D01*
X105500913Y-113193599D01*
X143264699Y-113193599D01*
X143528281Y-113831515D01*
X144015918Y-114320004D01*
X144653373Y-114584699D01*
X145343599Y-114585301D01*
X145981515Y-114321719D01*
X146470004Y-113834082D01*
X146734699Y-113196627D01*
X146735301Y-112506401D01*
X146719421Y-112467968D01*
X176865000Y-112467968D01*
X176865000Y-113532032D01*
X176951397Y-113966378D01*
X177197434Y-114334598D01*
X177565654Y-114580635D01*
X178000000Y-114667032D01*
X178434346Y-114580635D01*
X178802566Y-114334598D01*
X179048603Y-113966378D01*
X179135000Y-113532032D01*
X179135000Y-112467968D01*
X179865000Y-112467968D01*
X179865000Y-113532032D01*
X179951397Y-113966378D01*
X180197434Y-114334598D01*
X180565654Y-114580635D01*
X181000000Y-114667032D01*
X181434346Y-114580635D01*
X181802566Y-114334598D01*
X182000000Y-114039117D01*
X182197434Y-114334598D01*
X182565654Y-114580635D01*
X183000000Y-114667032D01*
X183434346Y-114580635D01*
X183802566Y-114334598D01*
X184048603Y-113966378D01*
X184135000Y-113532032D01*
X184135000Y-112467968D01*
X184865000Y-112467968D01*
X184865000Y-113532032D01*
X184951397Y-113966378D01*
X185197434Y-114334598D01*
X185565654Y-114580635D01*
X186000000Y-114667032D01*
X186434346Y-114580635D01*
X186802566Y-114334598D01*
X187000000Y-114039117D01*
X187197434Y-114334598D01*
X187565654Y-114580635D01*
X188000000Y-114667032D01*
X188434346Y-114580635D01*
X188802566Y-114334598D01*
X189000000Y-114039117D01*
X189197434Y-114334598D01*
X189565654Y-114580635D01*
X190000000Y-114667032D01*
X190434346Y-114580635D01*
X190802566Y-114334598D01*
X191000000Y-114039117D01*
X191197434Y-114334598D01*
X191565654Y-114580635D01*
X192000000Y-114667032D01*
X192434346Y-114580635D01*
X192802566Y-114334598D01*
X193048603Y-113966378D01*
X193135000Y-113532032D01*
X193135000Y-112467968D01*
X193865000Y-112467968D01*
X193865000Y-113532032D01*
X193951397Y-113966378D01*
X194197434Y-114334598D01*
X194565654Y-114580635D01*
X195000000Y-114667032D01*
X195434346Y-114580635D01*
X195802566Y-114334598D01*
X196000000Y-114039117D01*
X196197434Y-114334598D01*
X196565654Y-114580635D01*
X197000000Y-114667032D01*
X197434346Y-114580635D01*
X197802566Y-114334598D01*
X198048603Y-113966378D01*
X198135000Y-113532032D01*
X198135000Y-113285750D01*
X198865000Y-113285750D01*
X198865000Y-114126310D01*
X198961673Y-114359699D01*
X199140302Y-114538327D01*
X199373691Y-114635000D01*
X199714250Y-114635000D01*
X199873000Y-114476250D01*
X199873000Y-113127000D01*
X200127000Y-113127000D01*
X200127000Y-114476250D01*
X200285750Y-114635000D01*
X200626309Y-114635000D01*
X200859698Y-114538327D01*
X201038327Y-114359699D01*
X201135000Y-114126310D01*
X201135000Y-113285750D01*
X200976250Y-113127000D01*
X200127000Y-113127000D01*
X199873000Y-113127000D01*
X199023750Y-113127000D01*
X198865000Y-113285750D01*
X198135000Y-113285750D01*
X198135000Y-112467968D01*
X198048603Y-112033622D01*
X197941740Y-111873690D01*
X198865000Y-111873690D01*
X198865000Y-112714250D01*
X199023750Y-112873000D01*
X199873000Y-112873000D01*
X199873000Y-111523750D01*
X200127000Y-111523750D01*
X200127000Y-112873000D01*
X200976250Y-112873000D01*
X201135000Y-112714250D01*
X201135000Y-111873690D01*
X201038327Y-111640301D01*
X200859698Y-111461673D01*
X200626309Y-111365000D01*
X200285750Y-111365000D01*
X200127000Y-111523750D01*
X199873000Y-111523750D01*
X199714250Y-111365000D01*
X199373691Y-111365000D01*
X199140302Y-111461673D01*
X198961673Y-111640301D01*
X198865000Y-111873690D01*
X197941740Y-111873690D01*
X197802566Y-111665402D01*
X197434346Y-111419365D01*
X197000000Y-111332968D01*
X196565654Y-111419365D01*
X196197434Y-111665402D01*
X196000000Y-111960883D01*
X195802566Y-111665402D01*
X195434346Y-111419365D01*
X195000000Y-111332968D01*
X194565654Y-111419365D01*
X194197434Y-111665402D01*
X193951397Y-112033622D01*
X193865000Y-112467968D01*
X193135000Y-112467968D01*
X193048603Y-112033622D01*
X192802566Y-111665402D01*
X192434346Y-111419365D01*
X192000000Y-111332968D01*
X191565654Y-111419365D01*
X191197434Y-111665402D01*
X191000000Y-111960883D01*
X190802566Y-111665402D01*
X190434346Y-111419365D01*
X190000000Y-111332968D01*
X189565654Y-111419365D01*
X189197434Y-111665402D01*
X189000000Y-111960883D01*
X188802566Y-111665402D01*
X188434346Y-111419365D01*
X188000000Y-111332968D01*
X187565654Y-111419365D01*
X187197434Y-111665402D01*
X187000000Y-111960883D01*
X186802566Y-111665402D01*
X186434346Y-111419365D01*
X186000000Y-111332968D01*
X185565654Y-111419365D01*
X185197434Y-111665402D01*
X184951397Y-112033622D01*
X184865000Y-112467968D01*
X184135000Y-112467968D01*
X184048603Y-112033622D01*
X183802566Y-111665402D01*
X183434346Y-111419365D01*
X183000000Y-111332968D01*
X182565654Y-111419365D01*
X182197434Y-111665402D01*
X182000000Y-111960883D01*
X181802566Y-111665402D01*
X181434346Y-111419365D01*
X181000000Y-111332968D01*
X180565654Y-111419365D01*
X180197434Y-111665402D01*
X179951397Y-112033622D01*
X179865000Y-112467968D01*
X179135000Y-112467968D01*
X179048603Y-112033622D01*
X178802566Y-111665402D01*
X178434346Y-111419365D01*
X178000000Y-111332968D01*
X177565654Y-111419365D01*
X177197434Y-111665402D01*
X176951397Y-112033622D01*
X176865000Y-112467968D01*
X146719421Y-112467968D01*
X146471719Y-111868485D01*
X145984082Y-111379996D01*
X145346627Y-111115301D01*
X144656401Y-111114699D01*
X144018485Y-111378281D01*
X143529996Y-111865918D01*
X143265301Y-112503373D01*
X143264699Y-113193599D01*
X105500913Y-113193599D01*
X105744663Y-112606584D01*
X105745335Y-111836793D01*
X105451370Y-111125342D01*
X104907521Y-110580543D01*
X104196584Y-110285337D01*
X103426793Y-110284665D01*
X102715342Y-110578630D01*
X102170543Y-111122479D01*
X101875337Y-111833416D01*
X101874665Y-112603207D01*
X101719509Y-112603207D01*
X101734699Y-112566627D01*
X101735301Y-111876401D01*
X101471719Y-111238485D01*
X100984082Y-110749996D01*
X100346627Y-110485301D01*
X99656401Y-110484699D01*
X99018485Y-110748281D01*
X98529996Y-111235918D01*
X98265301Y-111873373D01*
X98264699Y-112563599D01*
X98124700Y-112563599D01*
X98125335Y-111836793D01*
X97831370Y-111125342D01*
X97287521Y-110580543D01*
X96576584Y-110285337D01*
X95806793Y-110284665D01*
X95095342Y-110578630D01*
X94550543Y-111122479D01*
X94255337Y-111833416D01*
X94254665Y-112603207D01*
X80710000Y-112603207D01*
X80710000Y-109442619D01*
X87764613Y-109442619D01*
X88104155Y-110264372D01*
X88732321Y-110893636D01*
X89553481Y-111234611D01*
X90442619Y-111235387D01*
X91264372Y-110895845D01*
X91893636Y-110267679D01*
X92234611Y-109446519D01*
X92235387Y-108557381D01*
X91895845Y-107735628D01*
X91267679Y-107106364D01*
X90768354Y-106899026D01*
X95392642Y-106899026D01*
X95395291Y-106914791D01*
X95649268Y-107442036D01*
X96085680Y-107831954D01*
X96638087Y-108025184D01*
X96873000Y-107880924D01*
X96873000Y-106667000D01*
X97127000Y-106667000D01*
X97127000Y-107880924D01*
X97361913Y-108025184D01*
X97914320Y-107831954D01*
X98350732Y-107442036D01*
X98604709Y-106914791D01*
X98607358Y-106899026D01*
X98486217Y-106667000D01*
X97127000Y-106667000D01*
X96873000Y-106667000D01*
X95513783Y-106667000D01*
X95392642Y-106899026D01*
X90768354Y-106899026D01*
X90446519Y-106765389D01*
X89557381Y-106764613D01*
X88735628Y-107104155D01*
X88106364Y-107732321D01*
X87765389Y-108553481D01*
X87764613Y-109442619D01*
X80710000Y-109442619D01*
X80710000Y-104359026D01*
X95392642Y-104359026D01*
X95395291Y-104374791D01*
X95649268Y-104902036D01*
X96061108Y-105270000D01*
X95649268Y-105637964D01*
X95395291Y-106165209D01*
X95392642Y-106180974D01*
X95513783Y-106413000D01*
X96873000Y-106413000D01*
X96873000Y-104127000D01*
X97127000Y-104127000D01*
X97127000Y-106413000D01*
X98486217Y-106413000D01*
X98607358Y-106180974D01*
X98604709Y-106165209D01*
X98350732Y-105637964D01*
X97938892Y-105270000D01*
X98350732Y-104902036D01*
X98604709Y-104374791D01*
X98607358Y-104359026D01*
X98486217Y-104127000D01*
X97127000Y-104127000D01*
X96873000Y-104127000D01*
X95513783Y-104127000D01*
X95392642Y-104359026D01*
X80710000Y-104359026D01*
X80710000Y-93840000D01*
X95316655Y-93840000D01*
X95430729Y-94413489D01*
X95755585Y-94899670D01*
X96070366Y-95110000D01*
X95755585Y-95320330D01*
X95430729Y-95806511D01*
X95316655Y-96380000D01*
X95430729Y-96953489D01*
X95755585Y-97439670D01*
X96070366Y-97650000D01*
X95755585Y-97860330D01*
X95430729Y-98346511D01*
X95316655Y-98920000D01*
X95430729Y-99493489D01*
X95755585Y-99979670D01*
X96070366Y-100190000D01*
X95755585Y-100400330D01*
X95430729Y-100886511D01*
X95316655Y-101460000D01*
X95430729Y-102033489D01*
X95755585Y-102519670D01*
X96065069Y-102726461D01*
X95649268Y-103097964D01*
X95395291Y-103625209D01*
X95392642Y-103640974D01*
X95513783Y-103873000D01*
X96873000Y-103873000D01*
X96873000Y-103853000D01*
X97127000Y-103853000D01*
X97127000Y-103873000D01*
X98486217Y-103873000D01*
X98607358Y-103640974D01*
X98604709Y-103625209D01*
X98350732Y-103097964D01*
X97934931Y-102726461D01*
X98057475Y-102644579D01*
X102464786Y-102644579D01*
X102652408Y-103098657D01*
X102999515Y-103446371D01*
X103453266Y-103634785D01*
X103944579Y-103635214D01*
X104398657Y-103447592D01*
X104746371Y-103100485D01*
X104934785Y-102646734D01*
X104934924Y-102487366D01*
X105287290Y-102135000D01*
X110455847Y-102135000D01*
X110365215Y-102353266D01*
X110364786Y-102844579D01*
X110552408Y-103298657D01*
X110899515Y-103646371D01*
X111353266Y-103834785D01*
X111844579Y-103835214D01*
X112298657Y-103647592D01*
X112411446Y-103535000D01*
X112447436Y-103535000D01*
X112265372Y-103973459D01*
X112264630Y-104822815D01*
X112588980Y-105607800D01*
X113189041Y-106208909D01*
X113973459Y-106534628D01*
X114822815Y-106535370D01*
X115607800Y-106211020D01*
X116208909Y-105610959D01*
X116534628Y-104826541D01*
X116535370Y-103977185D01*
X116211020Y-103192200D01*
X116054094Y-103035000D01*
X120745401Y-103035000D01*
X120591091Y-103189041D01*
X120265372Y-103973459D01*
X120264630Y-104822815D01*
X120588980Y-105607800D01*
X121189041Y-106208909D01*
X121973459Y-106534628D01*
X122822815Y-106535370D01*
X123607800Y-106211020D01*
X124208909Y-105610959D01*
X124534628Y-104826541D01*
X124535370Y-103977185D01*
X124211020Y-103192200D01*
X124054094Y-103035000D01*
X134712710Y-103035000D01*
X135264923Y-103587213D01*
X135264786Y-103744579D01*
X135452408Y-104198657D01*
X135799515Y-104546371D01*
X136253266Y-104734785D01*
X136744579Y-104735214D01*
X137198657Y-104547592D01*
X137402025Y-104344579D01*
X180464786Y-104344579D01*
X180652408Y-104798657D01*
X180999515Y-105146371D01*
X181453266Y-105334785D01*
X181944579Y-105335214D01*
X182398657Y-105147592D01*
X182511446Y-105035000D01*
X189812710Y-105035000D01*
X190464923Y-105687213D01*
X190464786Y-105844579D01*
X190652408Y-106298657D01*
X190999515Y-106646371D01*
X191453266Y-106834785D01*
X191944579Y-106835214D01*
X192398657Y-106647592D01*
X192746371Y-106300485D01*
X192934785Y-105846734D01*
X192935214Y-105355421D01*
X192747592Y-104901343D01*
X192400485Y-104553629D01*
X191946734Y-104365215D01*
X191787366Y-104365076D01*
X190861145Y-103438855D01*
X190557809Y-103236173D01*
X190200000Y-103165000D01*
X182511662Y-103165000D01*
X182400485Y-103053629D01*
X181946734Y-102865215D01*
X181455421Y-102864786D01*
X181001343Y-103052408D01*
X180653629Y-103399515D01*
X180465215Y-103853266D01*
X180464786Y-104344579D01*
X137402025Y-104344579D01*
X137546371Y-104200485D01*
X137734785Y-103746734D01*
X137735214Y-103255421D01*
X137547592Y-102801343D01*
X137200485Y-102453629D01*
X136900989Y-102329267D01*
X137098657Y-102247592D01*
X137446371Y-101900485D01*
X137634785Y-101446734D01*
X137635214Y-100955421D01*
X137447592Y-100501343D01*
X137100485Y-100153629D01*
X136646734Y-99965215D01*
X136155421Y-99964786D01*
X135701343Y-100152408D01*
X135588554Y-100265000D01*
X104900000Y-100265000D01*
X104542191Y-100336173D01*
X104238855Y-100538855D01*
X103612787Y-101164923D01*
X103455421Y-101164786D01*
X103001343Y-101352408D01*
X102653629Y-101699515D01*
X102465215Y-102153266D01*
X102464786Y-102644579D01*
X98057475Y-102644579D01*
X98244415Y-102519670D01*
X98569271Y-102033489D01*
X98683345Y-101460000D01*
X98569271Y-100886511D01*
X98244415Y-100400330D01*
X97929634Y-100190000D01*
X98244415Y-99979670D01*
X98569271Y-99493489D01*
X98683345Y-98920000D01*
X98569271Y-98346511D01*
X98244415Y-97860330D01*
X97929634Y-97650000D01*
X98244415Y-97439670D01*
X98569271Y-96953489D01*
X98586282Y-96867968D01*
X115265000Y-96867968D01*
X115265000Y-97932032D01*
X115351397Y-98366378D01*
X115597434Y-98734598D01*
X115965654Y-98980635D01*
X116400000Y-99067032D01*
X116834346Y-98980635D01*
X117202566Y-98734598D01*
X117400000Y-98439117D01*
X117597434Y-98734598D01*
X117965654Y-98980635D01*
X118400000Y-99067032D01*
X118834346Y-98980635D01*
X119202566Y-98734598D01*
X119397293Y-98443169D01*
X119399998Y-98451678D01*
X119687237Y-98792368D01*
X120098126Y-98994119D01*
X120273000Y-98867954D01*
X120273000Y-97527000D01*
X120527000Y-97527000D01*
X120527000Y-98867954D01*
X120701874Y-98994119D01*
X121112763Y-98792368D01*
X121400002Y-98451678D01*
X121535000Y-98027000D01*
X121535000Y-97527000D01*
X120527000Y-97527000D01*
X120273000Y-97527000D01*
X120253000Y-97527000D01*
X120253000Y-97273000D01*
X120273000Y-97273000D01*
X120273000Y-95932046D01*
X120527000Y-95932046D01*
X120527000Y-97273000D01*
X121535000Y-97273000D01*
X121535000Y-96773000D01*
X121440907Y-96477000D01*
X127515160Y-96477000D01*
X127515160Y-98763000D01*
X127564443Y-99010765D01*
X127704791Y-99220809D01*
X127914835Y-99361157D01*
X128162600Y-99410440D01*
X129737400Y-99410440D01*
X129985165Y-99361157D01*
X130195209Y-99220809D01*
X130335557Y-99010765D01*
X130368822Y-98843530D01*
X130484211Y-99016222D01*
X130945671Y-99324559D01*
X131490000Y-99432833D01*
X132034329Y-99324559D01*
X132495789Y-99016222D01*
X132760000Y-98620801D01*
X133024211Y-99016222D01*
X133485671Y-99324559D01*
X134030000Y-99432833D01*
X134574329Y-99324559D01*
X135035789Y-99016222D01*
X135299754Y-98621170D01*
X135304475Y-98637262D01*
X135654014Y-99071191D01*
X136143004Y-99338327D01*
X136222940Y-99355010D01*
X136443000Y-99232852D01*
X136443000Y-97747000D01*
X136423000Y-97747000D01*
X136423000Y-97493000D01*
X136443000Y-97493000D01*
X136443000Y-96007148D01*
X136697000Y-96007148D01*
X136697000Y-97493000D01*
X136717000Y-97493000D01*
X136717000Y-97747000D01*
X136697000Y-97747000D01*
X136697000Y-99232852D01*
X136917060Y-99355010D01*
X136996996Y-99338327D01*
X137485986Y-99071191D01*
X137835525Y-98637262D01*
X137840246Y-98621170D01*
X138104211Y-99016222D01*
X138296259Y-99144544D01*
X138088635Y-99185843D01*
X137878591Y-99326191D01*
X137738243Y-99536235D01*
X137688960Y-99784000D01*
X137688960Y-101816000D01*
X137738243Y-102063765D01*
X137878591Y-102273809D01*
X138088635Y-102414157D01*
X138336400Y-102463440D01*
X140063600Y-102463440D01*
X140311365Y-102414157D01*
X140521409Y-102273809D01*
X140661757Y-102063765D01*
X140668984Y-102027434D01*
X140680330Y-102044415D01*
X141166511Y-102369271D01*
X141740000Y-102483345D01*
X142313489Y-102369271D01*
X142799670Y-102044415D01*
X143010000Y-101729634D01*
X143220330Y-102044415D01*
X143706511Y-102369271D01*
X144280000Y-102483345D01*
X144853489Y-102369271D01*
X145339670Y-102044415D01*
X145550000Y-101729634D01*
X145760330Y-102044415D01*
X146246511Y-102369271D01*
X146820000Y-102483345D01*
X147393489Y-102369271D01*
X147879670Y-102044415D01*
X148090000Y-101729634D01*
X148300330Y-102044415D01*
X148786511Y-102369271D01*
X149360000Y-102483345D01*
X149933489Y-102369271D01*
X150419670Y-102044415D01*
X150630000Y-101729634D01*
X150840330Y-102044415D01*
X151326511Y-102369271D01*
X151900000Y-102483345D01*
X152473489Y-102369271D01*
X152959670Y-102044415D01*
X153170000Y-101729634D01*
X153380330Y-102044415D01*
X153866511Y-102369271D01*
X154440000Y-102483345D01*
X155013489Y-102369271D01*
X155499670Y-102044415D01*
X155710000Y-101729634D01*
X155920330Y-102044415D01*
X156406511Y-102369271D01*
X156980000Y-102483345D01*
X157553489Y-102369271D01*
X158039670Y-102044415D01*
X158250000Y-101729634D01*
X158460330Y-102044415D01*
X158946511Y-102369271D01*
X159520000Y-102483345D01*
X160093489Y-102369271D01*
X160579670Y-102044415D01*
X160790000Y-101729634D01*
X161000330Y-102044415D01*
X161486511Y-102369271D01*
X162060000Y-102483345D01*
X162633489Y-102369271D01*
X163119670Y-102044415D01*
X163330000Y-101729634D01*
X163540330Y-102044415D01*
X164026511Y-102369271D01*
X164600000Y-102483345D01*
X165173489Y-102369271D01*
X165659670Y-102044415D01*
X165984526Y-101558234D01*
X166098600Y-100984745D01*
X166098600Y-100615255D01*
X165984526Y-100041766D01*
X165659670Y-99555585D01*
X165184122Y-99237834D01*
X165515789Y-99016222D01*
X165824126Y-98554762D01*
X165932400Y-98010433D01*
X165932400Y-97229567D01*
X165824126Y-96685238D01*
X165515789Y-96223778D01*
X165054329Y-95915441D01*
X164510000Y-95807167D01*
X163965671Y-95915441D01*
X163504211Y-96223778D01*
X163240000Y-96619199D01*
X162975789Y-96223778D01*
X162514329Y-95915441D01*
X161970000Y-95807167D01*
X161425671Y-95915441D01*
X160964211Y-96223778D01*
X160700000Y-96619199D01*
X160435789Y-96223778D01*
X159974329Y-95915441D01*
X159430000Y-95807167D01*
X158885671Y-95915441D01*
X158424211Y-96223778D01*
X158160000Y-96619199D01*
X157895789Y-96223778D01*
X157434329Y-95915441D01*
X156890000Y-95807167D01*
X156345671Y-95915441D01*
X155884211Y-96223778D01*
X155620000Y-96619199D01*
X155355789Y-96223778D01*
X154894329Y-95915441D01*
X154350000Y-95807167D01*
X153805671Y-95915441D01*
X153344211Y-96223778D01*
X153080000Y-96619199D01*
X152815789Y-96223778D01*
X152354329Y-95915441D01*
X151810000Y-95807167D01*
X151265671Y-95915441D01*
X150804211Y-96223778D01*
X150540000Y-96619199D01*
X150275789Y-96223778D01*
X149814329Y-95915441D01*
X149270000Y-95807167D01*
X148725671Y-95915441D01*
X148264211Y-96223778D01*
X148000000Y-96619199D01*
X147735789Y-96223778D01*
X147274329Y-95915441D01*
X146730000Y-95807167D01*
X146185671Y-95915441D01*
X145724211Y-96223778D01*
X145460000Y-96619199D01*
X145195789Y-96223778D01*
X144734329Y-95915441D01*
X144190000Y-95807167D01*
X143645671Y-95915441D01*
X143184211Y-96223778D01*
X142920000Y-96619199D01*
X142655789Y-96223778D01*
X142194329Y-95915441D01*
X141650000Y-95807167D01*
X141105671Y-95915441D01*
X140644211Y-96223778D01*
X140380000Y-96619199D01*
X140115789Y-96223778D01*
X139654329Y-95915441D01*
X139110000Y-95807167D01*
X138565671Y-95915441D01*
X138104211Y-96223778D01*
X137840246Y-96618830D01*
X137835525Y-96602738D01*
X137485986Y-96168809D01*
X136996996Y-95901673D01*
X136917060Y-95884990D01*
X136697000Y-96007148D01*
X136443000Y-96007148D01*
X136222940Y-95884990D01*
X136143004Y-95901673D01*
X135654014Y-96168809D01*
X135304475Y-96602738D01*
X135299754Y-96618830D01*
X135035789Y-96223778D01*
X134574329Y-95915441D01*
X134030000Y-95807167D01*
X133485671Y-95915441D01*
X133024211Y-96223778D01*
X132760000Y-96619199D01*
X132495789Y-96223778D01*
X132034329Y-95915441D01*
X131490000Y-95807167D01*
X130945671Y-95915441D01*
X130484211Y-96223778D01*
X130368822Y-96396470D01*
X130335557Y-96229235D01*
X130195209Y-96019191D01*
X129985165Y-95878843D01*
X129737400Y-95829560D01*
X128162600Y-95829560D01*
X127914835Y-95878843D01*
X127704791Y-96019191D01*
X127564443Y-96229235D01*
X127515160Y-96477000D01*
X121440907Y-96477000D01*
X121400002Y-96348322D01*
X121112763Y-96007632D01*
X120701874Y-95805881D01*
X120527000Y-95932046D01*
X120273000Y-95932046D01*
X120098126Y-95805881D01*
X119687237Y-96007632D01*
X119399998Y-96348322D01*
X119397293Y-96356831D01*
X119202566Y-96065402D01*
X118834346Y-95819365D01*
X118400000Y-95732968D01*
X117965654Y-95819365D01*
X117597434Y-96065402D01*
X117400000Y-96360883D01*
X117202566Y-96065402D01*
X116834346Y-95819365D01*
X116400000Y-95732968D01*
X115965654Y-95819365D01*
X115597434Y-96065402D01*
X115351397Y-96433622D01*
X115265000Y-96867968D01*
X98586282Y-96867968D01*
X98683345Y-96380000D01*
X98569271Y-95806511D01*
X98244415Y-95320330D01*
X97929634Y-95110000D01*
X98244415Y-94899670D01*
X98569271Y-94413489D01*
X98662542Y-93944579D01*
X177564786Y-93944579D01*
X177752408Y-94398657D01*
X178099515Y-94746371D01*
X178464999Y-94898133D01*
X178464999Y-96499999D01*
X178536172Y-96857808D01*
X178738854Y-97161144D01*
X180038855Y-98461145D01*
X180342191Y-98663827D01*
X180700000Y-98735000D01*
X189488338Y-98735000D01*
X189599515Y-98846371D01*
X190053266Y-99034785D01*
X190544579Y-99035214D01*
X190998657Y-98847592D01*
X191111446Y-98735000D01*
X199488338Y-98735000D01*
X199599515Y-98846371D01*
X200053266Y-99034785D01*
X200544579Y-99035214D01*
X200998657Y-98847592D01*
X201346371Y-98500485D01*
X201534785Y-98046734D01*
X201535214Y-97555421D01*
X201376187Y-97170547D01*
X201446371Y-97100485D01*
X201634785Y-96646734D01*
X201635214Y-96155421D01*
X201447592Y-95701343D01*
X201100485Y-95353629D01*
X200646734Y-95165215D01*
X200155421Y-95164786D01*
X199701343Y-95352408D01*
X199588554Y-95465000D01*
X191111662Y-95465000D01*
X191000485Y-95353629D01*
X190546734Y-95165215D01*
X190055421Y-95164786D01*
X189601343Y-95352408D01*
X189488554Y-95465000D01*
X182011310Y-95465000D01*
X181700485Y-95153631D01*
X181246734Y-94965217D01*
X180755421Y-94964788D01*
X180334999Y-95138504D01*
X180334999Y-94299999D01*
X180263826Y-93942190D01*
X180061144Y-93638854D01*
X180035077Y-93612787D01*
X180035214Y-93455421D01*
X179847592Y-93001343D01*
X179500485Y-92653629D01*
X179046734Y-92465215D01*
X178555421Y-92464786D01*
X178101343Y-92652408D01*
X177753629Y-92999515D01*
X177565215Y-93453266D01*
X177564786Y-93944579D01*
X98662542Y-93944579D01*
X98683345Y-93840000D01*
X98569271Y-93266511D01*
X98244415Y-92780330D01*
X98227434Y-92768984D01*
X98263765Y-92761757D01*
X98473809Y-92621409D01*
X98614157Y-92411365D01*
X98663440Y-92163600D01*
X98663440Y-90436400D01*
X98614157Y-90188635D01*
X98473809Y-89978591D01*
X98263765Y-89838243D01*
X98016000Y-89788960D01*
X95984000Y-89788960D01*
X95736235Y-89838243D01*
X95526191Y-89978591D01*
X95385843Y-90188635D01*
X95336560Y-90436400D01*
X95336560Y-92163600D01*
X95385843Y-92411365D01*
X95526191Y-92621409D01*
X95736235Y-92761757D01*
X95772566Y-92768984D01*
X95755585Y-92780330D01*
X95430729Y-93266511D01*
X95316655Y-93840000D01*
X80710000Y-93840000D01*
X80710000Y-88442619D01*
X87764613Y-88442619D01*
X88104155Y-89264372D01*
X88732321Y-89893636D01*
X89553481Y-90234611D01*
X90442619Y-90235387D01*
X91264372Y-89895845D01*
X91893636Y-89267679D01*
X92234611Y-88446519D01*
X92235088Y-87899016D01*
X177280590Y-87899016D01*
X177336271Y-88129611D01*
X177819078Y-88297622D01*
X178329428Y-88268083D01*
X178663729Y-88129611D01*
X178719410Y-87899016D01*
X178000000Y-87179605D01*
X177280590Y-87899016D01*
X92235088Y-87899016D01*
X92235387Y-87557381D01*
X91930326Y-86819078D01*
X176702378Y-86819078D01*
X176731917Y-87329428D01*
X176870389Y-87663729D01*
X177100984Y-87719410D01*
X177820395Y-87000000D01*
X178179605Y-87000000D01*
X178899016Y-87719410D01*
X179129611Y-87663729D01*
X179297622Y-87180922D01*
X179268083Y-86670572D01*
X179129611Y-86336271D01*
X178899016Y-86280590D01*
X178179605Y-87000000D01*
X177820395Y-87000000D01*
X177100984Y-86280590D01*
X176870389Y-86336271D01*
X176702378Y-86819078D01*
X91930326Y-86819078D01*
X91895845Y-86735628D01*
X91267679Y-86106364D01*
X91254723Y-86100984D01*
X177280590Y-86100984D01*
X178000000Y-86820395D01*
X178719410Y-86100984D01*
X178663729Y-85870389D01*
X178180922Y-85702378D01*
X177670572Y-85731917D01*
X177336271Y-85870389D01*
X177280590Y-86100984D01*
X91254723Y-86100984D01*
X90446519Y-85765389D01*
X89557381Y-85764613D01*
X88735628Y-86104155D01*
X88106364Y-86732321D01*
X87765389Y-87553481D01*
X87764613Y-88442619D01*
X80710000Y-88442619D01*
X80710000Y-82350000D01*
X103702560Y-82350000D01*
X103702560Y-83650000D01*
X103751843Y-83897765D01*
X103892191Y-84107809D01*
X104102235Y-84248157D01*
X104350000Y-84297440D01*
X105650000Y-84297440D01*
X105897765Y-84248157D01*
X106107809Y-84107809D01*
X106248157Y-83897765D01*
X106297440Y-83650000D01*
X106297440Y-82350000D01*
X106248157Y-82102235D01*
X106172875Y-81989567D01*
X127527600Y-81989567D01*
X127527600Y-82770433D01*
X127635874Y-83314762D01*
X127944211Y-83776222D01*
X128405671Y-84084559D01*
X128950000Y-84192833D01*
X129494329Y-84084559D01*
X129955789Y-83776222D01*
X130219754Y-83381170D01*
X130224475Y-83397262D01*
X130574014Y-83831191D01*
X131063004Y-84098327D01*
X131142940Y-84115010D01*
X131363000Y-83992852D01*
X131363000Y-82507000D01*
X131343000Y-82507000D01*
X131343000Y-82253000D01*
X131363000Y-82253000D01*
X131363000Y-80767148D01*
X131617000Y-80767148D01*
X131617000Y-82253000D01*
X131637000Y-82253000D01*
X131637000Y-82507000D01*
X131617000Y-82507000D01*
X131617000Y-83992852D01*
X131837060Y-84115010D01*
X131916996Y-84098327D01*
X132405986Y-83831191D01*
X132755525Y-83397262D01*
X132760246Y-83381170D01*
X133024211Y-83776222D01*
X133485671Y-84084559D01*
X134030000Y-84192833D01*
X134574329Y-84084559D01*
X135035789Y-83776222D01*
X135300000Y-83380801D01*
X135564211Y-83776222D01*
X136025671Y-84084559D01*
X136570000Y-84192833D01*
X137114329Y-84084559D01*
X137575789Y-83776222D01*
X137840000Y-83380801D01*
X138104211Y-83776222D01*
X138565671Y-84084559D01*
X139110000Y-84192833D01*
X139654329Y-84084559D01*
X140115789Y-83776222D01*
X140380000Y-83380801D01*
X140644211Y-83776222D01*
X141105671Y-84084559D01*
X141650000Y-84192833D01*
X142194329Y-84084559D01*
X142655789Y-83776222D01*
X142920000Y-83380801D01*
X143184211Y-83776222D01*
X143645671Y-84084559D01*
X144190000Y-84192833D01*
X144734329Y-84084559D01*
X145195789Y-83776222D01*
X145460000Y-83380801D01*
X145724211Y-83776222D01*
X146185671Y-84084559D01*
X146730000Y-84192833D01*
X147274329Y-84084559D01*
X147735789Y-83776222D01*
X148000000Y-83380801D01*
X148264211Y-83776222D01*
X148725671Y-84084559D01*
X149270000Y-84192833D01*
X149814329Y-84084559D01*
X150275789Y-83776222D01*
X150540000Y-83380801D01*
X150804211Y-83776222D01*
X151265671Y-84084559D01*
X151810000Y-84192833D01*
X152354329Y-84084559D01*
X152815789Y-83776222D01*
X153080000Y-83380801D01*
X153344211Y-83776222D01*
X153805671Y-84084559D01*
X154350000Y-84192833D01*
X154894329Y-84084559D01*
X155355789Y-83776222D01*
X155620000Y-83380801D01*
X155884211Y-83776222D01*
X156345671Y-84084559D01*
X156890000Y-84192833D01*
X157434329Y-84084559D01*
X157895789Y-83776222D01*
X158160000Y-83380801D01*
X158424211Y-83776222D01*
X158885671Y-84084559D01*
X159430000Y-84192833D01*
X159974329Y-84084559D01*
X160435789Y-83776222D01*
X160700000Y-83380801D01*
X160964211Y-83776222D01*
X161425671Y-84084559D01*
X161970000Y-84192833D01*
X162514329Y-84084559D01*
X162975789Y-83776222D01*
X163240000Y-83380801D01*
X163504211Y-83776222D01*
X163965671Y-84084559D01*
X164510000Y-84192833D01*
X165054329Y-84084559D01*
X165515789Y-83776222D01*
X165824126Y-83314762D01*
X165932400Y-82770433D01*
X165932400Y-81989567D01*
X165824126Y-81445238D01*
X165515789Y-80983778D01*
X165054329Y-80675441D01*
X164510000Y-80567167D01*
X163965671Y-80675441D01*
X163504211Y-80983778D01*
X163240000Y-81379199D01*
X162975789Y-80983778D01*
X162514329Y-80675441D01*
X161970000Y-80567167D01*
X161425671Y-80675441D01*
X160964211Y-80983778D01*
X160700000Y-81379199D01*
X160435789Y-80983778D01*
X159974329Y-80675441D01*
X159430000Y-80567167D01*
X158885671Y-80675441D01*
X158424211Y-80983778D01*
X158160000Y-81379199D01*
X157895789Y-80983778D01*
X157434329Y-80675441D01*
X156890000Y-80567167D01*
X156345671Y-80675441D01*
X155884211Y-80983778D01*
X155620000Y-81379199D01*
X155355789Y-80983778D01*
X154894329Y-80675441D01*
X154350000Y-80567167D01*
X153805671Y-80675441D01*
X153344211Y-80983778D01*
X153080000Y-81379199D01*
X152815789Y-80983778D01*
X152354329Y-80675441D01*
X151810000Y-80567167D01*
X151265671Y-80675441D01*
X150804211Y-80983778D01*
X150540000Y-81379199D01*
X150275789Y-80983778D01*
X149814329Y-80675441D01*
X149270000Y-80567167D01*
X148725671Y-80675441D01*
X148264211Y-80983778D01*
X148000000Y-81379199D01*
X147735789Y-80983778D01*
X147274329Y-80675441D01*
X146730000Y-80567167D01*
X146185671Y-80675441D01*
X145724211Y-80983778D01*
X145460000Y-81379199D01*
X145195789Y-80983778D01*
X144734329Y-80675441D01*
X144190000Y-80567167D01*
X143645671Y-80675441D01*
X143184211Y-80983778D01*
X142920000Y-81379199D01*
X142655789Y-80983778D01*
X142194329Y-80675441D01*
X141650000Y-80567167D01*
X141105671Y-80675441D01*
X140644211Y-80983778D01*
X140380000Y-81379199D01*
X140115789Y-80983778D01*
X139654329Y-80675441D01*
X139110000Y-80567167D01*
X138565671Y-80675441D01*
X138104211Y-80983778D01*
X137840000Y-81379199D01*
X137575789Y-80983778D01*
X137114329Y-80675441D01*
X136570000Y-80567167D01*
X136025671Y-80675441D01*
X135564211Y-80983778D01*
X135300000Y-81379199D01*
X135035789Y-80983778D01*
X134574329Y-80675441D01*
X134030000Y-80567167D01*
X133485671Y-80675441D01*
X133024211Y-80983778D01*
X132760246Y-81378830D01*
X132755525Y-81362738D01*
X132405986Y-80928809D01*
X131916996Y-80661673D01*
X131837060Y-80644990D01*
X131617000Y-80767148D01*
X131363000Y-80767148D01*
X131142940Y-80644990D01*
X131063004Y-80661673D01*
X130574014Y-80928809D01*
X130224475Y-81362738D01*
X130219754Y-81378830D01*
X129955789Y-80983778D01*
X129494329Y-80675441D01*
X128950000Y-80567167D01*
X128405671Y-80675441D01*
X127944211Y-80983778D01*
X127635874Y-81445238D01*
X127527600Y-81989567D01*
X106172875Y-81989567D01*
X106107809Y-81892191D01*
X105897765Y-81751843D01*
X105650000Y-81702560D01*
X104350000Y-81702560D01*
X104102235Y-81751843D01*
X103892191Y-81892191D01*
X103751843Y-82102235D01*
X103702560Y-82350000D01*
X80710000Y-82350000D01*
X80710000Y-80544579D01*
X173664786Y-80544579D01*
X173852408Y-80998657D01*
X174199515Y-81346371D01*
X174653266Y-81534785D01*
X175144579Y-81535214D01*
X175598657Y-81347592D01*
X175711446Y-81235000D01*
X176725435Y-81235000D01*
X176702560Y-81350000D01*
X176702560Y-82650000D01*
X176751843Y-82897765D01*
X176892191Y-83107809D01*
X176996635Y-83177597D01*
X176965215Y-83253266D01*
X176964786Y-83744579D01*
X177152408Y-84198657D01*
X177499515Y-84546371D01*
X177953266Y-84734785D01*
X178444579Y-84735214D01*
X178687114Y-84635000D01*
X180253870Y-84635000D01*
X182355267Y-86736397D01*
X182265215Y-86953266D01*
X182264786Y-87444579D01*
X182452408Y-87898657D01*
X182799515Y-88246371D01*
X183253266Y-88434785D01*
X183744579Y-88435214D01*
X183875844Y-88380976D01*
X184834710Y-89339842D01*
X184891922Y-89478305D01*
X185239029Y-89826019D01*
X185692780Y-90014433D01*
X186184093Y-90014862D01*
X186638171Y-89827240D01*
X186985885Y-89480133D01*
X187174299Y-89026382D01*
X187174728Y-88535069D01*
X187133380Y-88435000D01*
X187788338Y-88435000D01*
X187899515Y-88546371D01*
X188353266Y-88734785D01*
X188844579Y-88735214D01*
X189298657Y-88547592D01*
X189646371Y-88200485D01*
X189771551Y-87899016D01*
X192280590Y-87899016D01*
X192336271Y-88129611D01*
X192819078Y-88297622D01*
X193329428Y-88268083D01*
X193663729Y-88129611D01*
X193719410Y-87899016D01*
X193000000Y-87179605D01*
X192280590Y-87899016D01*
X189771551Y-87899016D01*
X189834785Y-87746734D01*
X189835214Y-87255421D01*
X189654920Y-86819078D01*
X191702378Y-86819078D01*
X191731917Y-87329428D01*
X191870389Y-87663729D01*
X192100984Y-87719410D01*
X192820395Y-87000000D01*
X193179605Y-87000000D01*
X193899016Y-87719410D01*
X194129611Y-87663729D01*
X194297622Y-87180922D01*
X194268083Y-86670572D01*
X194129611Y-86336271D01*
X193920386Y-86285750D01*
X202915000Y-86285750D01*
X202915000Y-87576309D01*
X203011673Y-87809698D01*
X203190301Y-87988327D01*
X203423690Y-88085000D01*
X204714250Y-88085000D01*
X204873000Y-87926250D01*
X204873000Y-86127000D01*
X205127000Y-86127000D01*
X205127000Y-87926250D01*
X205285750Y-88085000D01*
X206576310Y-88085000D01*
X206809699Y-87988327D01*
X206988327Y-87809698D01*
X207085000Y-87576309D01*
X207085000Y-86285750D01*
X206926250Y-86127000D01*
X205127000Y-86127000D01*
X204873000Y-86127000D01*
X203073750Y-86127000D01*
X202915000Y-86285750D01*
X193920386Y-86285750D01*
X193899016Y-86280590D01*
X193179605Y-87000000D01*
X192820395Y-87000000D01*
X192100984Y-86280590D01*
X191870389Y-86336271D01*
X191702378Y-86819078D01*
X189654920Y-86819078D01*
X189647592Y-86801343D01*
X189300485Y-86453629D01*
X188846734Y-86265215D01*
X188355421Y-86264786D01*
X187901343Y-86452408D01*
X187788554Y-86565000D01*
X186587290Y-86565000D01*
X186123274Y-86100984D01*
X192280590Y-86100984D01*
X193000000Y-86820395D01*
X193719410Y-86100984D01*
X193663729Y-85870389D01*
X193180922Y-85702378D01*
X192670572Y-85731917D01*
X192336271Y-85870389D01*
X192280590Y-86100984D01*
X186123274Y-86100984D01*
X181372290Y-81350000D01*
X191702560Y-81350000D01*
X191702560Y-82650000D01*
X191751843Y-82897765D01*
X191892191Y-83107809D01*
X192102235Y-83248157D01*
X192350000Y-83297440D01*
X193650000Y-83297440D01*
X193897765Y-83248157D01*
X194107809Y-83107809D01*
X194248157Y-82897765D01*
X194297440Y-82650000D01*
X194297440Y-82452913D01*
X202914638Y-82452913D01*
X203231392Y-83219515D01*
X203817400Y-83806547D01*
X204078584Y-83915000D01*
X203423690Y-83915000D01*
X203190301Y-84011673D01*
X203011673Y-84190302D01*
X202915000Y-84423691D01*
X202915000Y-85714250D01*
X203073750Y-85873000D01*
X204873000Y-85873000D01*
X204873000Y-85853000D01*
X205127000Y-85853000D01*
X205127000Y-85873000D01*
X206926250Y-85873000D01*
X207085000Y-85714250D01*
X207085000Y-84423691D01*
X206988327Y-84190302D01*
X206809699Y-84011673D01*
X206576310Y-83915000D01*
X205922027Y-83915000D01*
X206179515Y-83808608D01*
X206766547Y-83222600D01*
X207084638Y-82456552D01*
X207085362Y-81627087D01*
X206768608Y-80860485D01*
X206182600Y-80273453D01*
X205416552Y-79955362D01*
X204587087Y-79954638D01*
X203820485Y-80271392D01*
X203233453Y-80857400D01*
X202915362Y-81623448D01*
X202914638Y-82452913D01*
X194297440Y-82452913D01*
X194297440Y-81350000D01*
X194248157Y-81102235D01*
X194107809Y-80892191D01*
X193897765Y-80751843D01*
X193650000Y-80702560D01*
X192350000Y-80702560D01*
X192102235Y-80751843D01*
X191892191Y-80892191D01*
X191751843Y-81102235D01*
X191702560Y-81350000D01*
X181372290Y-81350000D01*
X179661145Y-79638855D01*
X179357809Y-79436173D01*
X179000000Y-79365000D01*
X175711662Y-79365000D01*
X175600485Y-79253629D01*
X175146734Y-79065215D01*
X174655421Y-79064786D01*
X174201343Y-79252408D01*
X173853629Y-79599515D01*
X173665215Y-80053266D01*
X173664786Y-80544579D01*
X80710000Y-80544579D01*
X80710000Y-78899016D01*
X104280590Y-78899016D01*
X104336271Y-79129611D01*
X104819078Y-79297622D01*
X105329428Y-79268083D01*
X105663729Y-79129611D01*
X105719410Y-78899016D01*
X105000000Y-78179605D01*
X104280590Y-78899016D01*
X80710000Y-78899016D01*
X80710000Y-77819078D01*
X103702378Y-77819078D01*
X103731917Y-78329428D01*
X103870389Y-78663729D01*
X104100984Y-78719410D01*
X104820395Y-78000000D01*
X105179605Y-78000000D01*
X105899016Y-78719410D01*
X106129611Y-78663729D01*
X106297622Y-78180922D01*
X106268083Y-77670572D01*
X106186779Y-77474285D01*
X126114760Y-77474285D01*
X126325169Y-77983515D01*
X126714436Y-78373461D01*
X127223298Y-78584759D01*
X127774285Y-78585240D01*
X128283515Y-78374831D01*
X128673461Y-77985564D01*
X128884759Y-77476702D01*
X128885240Y-76925715D01*
X128674831Y-76416485D01*
X128542577Y-76284000D01*
X137568960Y-76284000D01*
X137568960Y-78316000D01*
X137618243Y-78563765D01*
X137758591Y-78773809D01*
X137968635Y-78914157D01*
X138216400Y-78963440D01*
X139943600Y-78963440D01*
X140191365Y-78914157D01*
X140401409Y-78773809D01*
X140541757Y-78563765D01*
X140548984Y-78527434D01*
X140560330Y-78544415D01*
X141046511Y-78869271D01*
X141620000Y-78983345D01*
X142193489Y-78869271D01*
X142679670Y-78544415D01*
X142890000Y-78229634D01*
X143100330Y-78544415D01*
X143586511Y-78869271D01*
X144160000Y-78983345D01*
X144733489Y-78869271D01*
X145219670Y-78544415D01*
X145430000Y-78229634D01*
X145640330Y-78544415D01*
X146126511Y-78869271D01*
X146700000Y-78983345D01*
X147273489Y-78869271D01*
X147759670Y-78544415D01*
X147970000Y-78229634D01*
X148180330Y-78544415D01*
X148666511Y-78869271D01*
X149240000Y-78983345D01*
X149813489Y-78869271D01*
X150299670Y-78544415D01*
X150510000Y-78229634D01*
X150720330Y-78544415D01*
X151206511Y-78869271D01*
X151780000Y-78983345D01*
X152353489Y-78869271D01*
X152839670Y-78544415D01*
X153050000Y-78229634D01*
X153260330Y-78544415D01*
X153746511Y-78869271D01*
X154320000Y-78983345D01*
X154893489Y-78869271D01*
X155379670Y-78544415D01*
X155590000Y-78229634D01*
X155800330Y-78544415D01*
X156286511Y-78869271D01*
X156860000Y-78983345D01*
X157433489Y-78869271D01*
X157919670Y-78544415D01*
X158244526Y-78058234D01*
X158358600Y-77484745D01*
X158358600Y-77115255D01*
X158244526Y-76541766D01*
X157919670Y-76055585D01*
X157433489Y-75730729D01*
X156860000Y-75616655D01*
X156286511Y-75730729D01*
X155800330Y-76055585D01*
X155590000Y-76370366D01*
X155379670Y-76055585D01*
X154893489Y-75730729D01*
X154320000Y-75616655D01*
X153746511Y-75730729D01*
X153260330Y-76055585D01*
X153050000Y-76370366D01*
X152839670Y-76055585D01*
X152353489Y-75730729D01*
X151780000Y-75616655D01*
X151206511Y-75730729D01*
X150720330Y-76055585D01*
X150510000Y-76370366D01*
X150299670Y-76055585D01*
X149813489Y-75730729D01*
X149240000Y-75616655D01*
X148666511Y-75730729D01*
X148180330Y-76055585D01*
X147970000Y-76370366D01*
X147759670Y-76055585D01*
X147273489Y-75730729D01*
X146700000Y-75616655D01*
X146126511Y-75730729D01*
X145640330Y-76055585D01*
X145430000Y-76370366D01*
X145219670Y-76055585D01*
X144733489Y-75730729D01*
X144160000Y-75616655D01*
X143586511Y-75730729D01*
X143100330Y-76055585D01*
X142890000Y-76370366D01*
X142679670Y-76055585D01*
X142193489Y-75730729D01*
X141620000Y-75616655D01*
X141046511Y-75730729D01*
X140560330Y-76055585D01*
X140548984Y-76072566D01*
X140541757Y-76036235D01*
X140401409Y-75826191D01*
X140191365Y-75685843D01*
X139943600Y-75636560D01*
X138216400Y-75636560D01*
X137968635Y-75685843D01*
X137758591Y-75826191D01*
X137618243Y-76036235D01*
X137568960Y-76284000D01*
X128542577Y-76284000D01*
X128285564Y-76026539D01*
X127776702Y-75815241D01*
X127225715Y-75814760D01*
X126716485Y-76025169D01*
X126326539Y-76414436D01*
X126115241Y-76923298D01*
X126114760Y-77474285D01*
X106186779Y-77474285D01*
X106129611Y-77336271D01*
X105899016Y-77280590D01*
X105179605Y-78000000D01*
X104820395Y-78000000D01*
X104100984Y-77280590D01*
X103870389Y-77336271D01*
X103702378Y-77819078D01*
X80710000Y-77819078D01*
X80710000Y-77100984D01*
X104280590Y-77100984D01*
X105000000Y-77820395D01*
X105719410Y-77100984D01*
X105663729Y-76870389D01*
X105180922Y-76702378D01*
X104670572Y-76731917D01*
X104336271Y-76870389D01*
X104280590Y-77100984D01*
X80710000Y-77100984D01*
X80710000Y-74442619D01*
X81764613Y-74442619D01*
X82104155Y-75264372D01*
X82732321Y-75893636D01*
X83553481Y-76234611D01*
X84442619Y-76235387D01*
X84832514Y-76074285D01*
X116714760Y-76074285D01*
X116925169Y-76583515D01*
X117314436Y-76973461D01*
X117823298Y-77184759D01*
X118374285Y-77185240D01*
X118883515Y-76974831D01*
X119273461Y-76585564D01*
X119484759Y-76076702D01*
X119485240Y-75525715D01*
X119274831Y-75016485D01*
X118885564Y-74626539D01*
X118442636Y-74442619D01*
X203764613Y-74442619D01*
X204104155Y-75264372D01*
X204732321Y-75893636D01*
X205553481Y-76234611D01*
X206442619Y-76235387D01*
X207264372Y-75895845D01*
X207893636Y-75267679D01*
X208234611Y-74446519D01*
X208235387Y-73557381D01*
X207895845Y-72735628D01*
X207267679Y-72106364D01*
X206446519Y-71765389D01*
X205557381Y-71764613D01*
X204735628Y-72104155D01*
X204106364Y-72732321D01*
X203765389Y-73553481D01*
X203764613Y-74442619D01*
X118442636Y-74442619D01*
X118376702Y-74415241D01*
X117825715Y-74414760D01*
X117316485Y-74625169D01*
X116926539Y-75014436D01*
X116715241Y-75523298D01*
X116714760Y-76074285D01*
X84832514Y-76074285D01*
X85264372Y-75895845D01*
X85893636Y-75267679D01*
X86234611Y-74446519D01*
X86235387Y-73557381D01*
X85895845Y-72735628D01*
X85267679Y-72106364D01*
X84446519Y-71765389D01*
X83557381Y-71764613D01*
X82735628Y-72104155D01*
X82106364Y-72732321D01*
X81765389Y-73553481D01*
X81764613Y-74442619D01*
X80710000Y-74442619D01*
X80710000Y-70710000D01*
X209290000Y-70710000D01*
X209290000Y-129290000D01*
X209290000Y-129290000D01*
G37*
X209290000Y-129290000D02*
X201573229Y-129290000D01*
X201794698Y-129142019D01*
X202105767Y-128676472D01*
X202215000Y-128127321D01*
X202215000Y-127112679D01*
X202105767Y-126563528D01*
X202024979Y-126442619D01*
X203764613Y-126442619D01*
X204104155Y-127264372D01*
X204732321Y-127893636D01*
X205553481Y-128234611D01*
X206442619Y-128235387D01*
X207264372Y-127895845D01*
X207893636Y-127267679D01*
X208234611Y-126446519D01*
X208235387Y-125557381D01*
X207895845Y-124735628D01*
X207267679Y-124106364D01*
X206446519Y-123765389D01*
X205557381Y-123764613D01*
X204735628Y-124104155D01*
X204106364Y-124732321D01*
X203765389Y-125553481D01*
X203764613Y-126442619D01*
X202024979Y-126442619D01*
X201794698Y-126097981D01*
X201329151Y-125786912D01*
X200780000Y-125677679D01*
X200230849Y-125786912D01*
X199765302Y-126097981D01*
X199510000Y-126480067D01*
X199254698Y-126097981D01*
X198789151Y-125786912D01*
X198240000Y-125677679D01*
X197690849Y-125786912D01*
X197225302Y-126097981D01*
X196970000Y-126480067D01*
X196714698Y-126097981D01*
X196249151Y-125786912D01*
X195700000Y-125677679D01*
X195150849Y-125786912D01*
X194685302Y-126097981D01*
X194430000Y-126480067D01*
X194174698Y-126097981D01*
X193709151Y-125786912D01*
X193160000Y-125677679D01*
X192610849Y-125786912D01*
X192145302Y-126097981D01*
X191890000Y-126480067D01*
X191634698Y-126097981D01*
X191169151Y-125786912D01*
X190620000Y-125677679D01*
X190070849Y-125786912D01*
X189605302Y-126097981D01*
X189350000Y-126480067D01*
X189094698Y-126097981D01*
X188629151Y-125786912D01*
X188080000Y-125677679D01*
X187530849Y-125786912D01*
X187065302Y-126097981D01*
X186810000Y-126480067D01*
X186554698Y-126097981D01*
X186089151Y-125786912D01*
X185540000Y-125677679D01*
X184990849Y-125786912D01*
X184525302Y-126097981D01*
X184270000Y-126480067D01*
X184014698Y-126097981D01*
X183549151Y-125786912D01*
X183000000Y-125677679D01*
X182450849Y-125786912D01*
X181985302Y-126097981D01*
X181730000Y-126480067D01*
X181474698Y-126097981D01*
X181009151Y-125786912D01*
X180460000Y-125677679D01*
X179910849Y-125786912D01*
X179445302Y-126097981D01*
X179190000Y-126480067D01*
X178934698Y-126097981D01*
X178469151Y-125786912D01*
X177920000Y-125677679D01*
X177370849Y-125786912D01*
X176905302Y-126097981D01*
X176594233Y-126563528D01*
X176485000Y-127112679D01*
X176485000Y-128127321D01*
X176594233Y-128676472D01*
X176905302Y-129142019D01*
X177126771Y-129290000D01*
X80710000Y-129290000D01*
X80710000Y-126442619D01*
X81764613Y-126442619D01*
X82104155Y-127264372D01*
X82732321Y-127893636D01*
X83553481Y-128234611D01*
X84442619Y-128235387D01*
X85264372Y-127895845D01*
X85893636Y-127267679D01*
X86182005Y-126573207D01*
X101874665Y-126573207D01*
X102168630Y-127284658D01*
X102712479Y-127829457D01*
X103423416Y-128124663D01*
X104193207Y-128125335D01*
X104904658Y-127831370D01*
X105449457Y-127287521D01*
X105744663Y-126576584D01*
X105744753Y-126473207D01*
X146874665Y-126473207D01*
X147168630Y-127184658D01*
X147712479Y-127729457D01*
X148423416Y-128024663D01*
X149193207Y-128025335D01*
X149904658Y-127731370D01*
X150449457Y-127187521D01*
X150744663Y-126476584D01*
X150745079Y-126000000D01*
X160812560Y-126000000D01*
X160812560Y-128000000D01*
X160861843Y-128247765D01*
X161002191Y-128457809D01*
X161212235Y-128598157D01*
X161460000Y-128647440D01*
X163460000Y-128647440D01*
X163707765Y-128598157D01*
X163917809Y-128457809D01*
X164058157Y-128247765D01*
X164059600Y-128240509D01*
X164125736Y-128419387D01*
X164735461Y-128645908D01*
X165385460Y-128621856D01*
X165874264Y-128419387D01*
X165972927Y-128152532D01*
X165000000Y-127179605D01*
X164985858Y-127193748D01*
X164806253Y-127014143D01*
X164820395Y-127000000D01*
X165179605Y-127000000D01*
X166152532Y-127972927D01*
X166419387Y-127874264D01*
X166645908Y-127264539D01*
X166626331Y-126735461D01*
X167354092Y-126735461D01*
X167378144Y-127385460D01*
X167580613Y-127874264D01*
X167847468Y-127972927D01*
X168820395Y-127000000D01*
X167847468Y-126027073D01*
X167580613Y-126125736D01*
X167354092Y-126735461D01*
X166626331Y-126735461D01*
X166621856Y-126614540D01*
X166419387Y-126125736D01*
X166152532Y-126027073D01*
X165179605Y-127000000D01*
X164820395Y-127000000D01*
X164806253Y-126985858D01*
X164985858Y-126806253D01*
X165000000Y-126820395D01*
X165972927Y-125847468D01*
X168027073Y-125847468D01*
X169000000Y-126820395D01*
X169014143Y-126806253D01*
X169193748Y-126985858D01*
X169179605Y-127000000D01*
X169193748Y-127014143D01*
X169014143Y-127193748D01*
X169000000Y-127179605D01*
X168027073Y-128152532D01*
X168125736Y-128419387D01*
X168735461Y-128645908D01*
X169385460Y-128621856D01*
X169874264Y-128419387D01*
X169940400Y-128240509D01*
X169941843Y-128247765D01*
X170082191Y-128457809D01*
X170292235Y-128598157D01*
X170540000Y-128647440D01*
X172540000Y-128647440D01*
X172787765Y-128598157D01*
X172997809Y-128457809D01*
X173138157Y-128247765D01*
X173187440Y-128000000D01*
X173187440Y-126000000D01*
X173138157Y-125752235D01*
X172997809Y-125542191D01*
X172787765Y-125401843D01*
X172540000Y-125352560D01*
X170540000Y-125352560D01*
X170292235Y-125401843D01*
X170082191Y-125542191D01*
X169941843Y-125752235D01*
X169940400Y-125759491D01*
X169874264Y-125580613D01*
X169264539Y-125354092D01*
X168614540Y-125378144D01*
X168125736Y-125580613D01*
X168027073Y-125847468D01*
X165972927Y-125847468D01*
X165874264Y-125580613D01*
X165264539Y-125354092D01*
X164614540Y-125378144D01*
X164125736Y-125580613D01*
X164059600Y-125759491D01*
X164058157Y-125752235D01*
X163917809Y-125542191D01*
X163707765Y-125401843D01*
X163460000Y-125352560D01*
X161460000Y-125352560D01*
X161212235Y-125401843D01*
X161002191Y-125542191D01*
X160861843Y-125752235D01*
X160812560Y-126000000D01*
X150745079Y-126000000D01*
X150745335Y-125706793D01*
X150451370Y-124995342D01*
X149907521Y-124450543D01*
X149196584Y-124155337D01*
X148426793Y-124154665D01*
X147715342Y-124448630D01*
X147170543Y-124992479D01*
X146875337Y-125703416D01*
X146874665Y-126473207D01*
X105744753Y-126473207D01*
X105745335Y-125806793D01*
X105451370Y-125095342D01*
X104907521Y-124550543D01*
X104196584Y-124255337D01*
X103426793Y-124254665D01*
X102715342Y-124548630D01*
X102170543Y-125092479D01*
X101875337Y-125803416D01*
X101874665Y-126573207D01*
X86182005Y-126573207D01*
X86234611Y-126446519D01*
X86235387Y-125557381D01*
X85895845Y-124735628D01*
X85267679Y-124106364D01*
X84446519Y-123765389D01*
X83557381Y-123764613D01*
X82735628Y-124104155D01*
X82106364Y-124732321D01*
X81765389Y-125553481D01*
X81764613Y-126442619D01*
X80710000Y-126442619D01*
X80710000Y-123363599D01*
X151514699Y-123363599D01*
X151778281Y-124001515D01*
X152265918Y-124490004D01*
X152903373Y-124754699D01*
X153593599Y-124755301D01*
X154231515Y-124491719D01*
X154720004Y-124004082D01*
X154984699Y-123366627D01*
X154985301Y-122676401D01*
X154721719Y-122038485D01*
X154234082Y-121549996D01*
X153596627Y-121285301D01*
X152906401Y-121284699D01*
X152268485Y-121548281D01*
X151779996Y-122035918D01*
X151515301Y-122673373D01*
X151514699Y-123363599D01*
X80710000Y-123363599D01*
X80710000Y-121493207D01*
X94254665Y-121493207D01*
X94548630Y-122204658D01*
X95092479Y-122749457D01*
X95803416Y-123044663D01*
X96573207Y-123045335D01*
X97284658Y-122751370D01*
X97829457Y-122207521D01*
X98124663Y-121496584D01*
X98124665Y-121493207D01*
X139254665Y-121493207D01*
X139548630Y-122204658D01*
X140092479Y-122749457D01*
X140803416Y-123044663D01*
X141573207Y-123045335D01*
X142284658Y-122751370D01*
X142829457Y-122207521D01*
X143124663Y-121496584D01*
X143125335Y-120726793D01*
X142831370Y-120015342D01*
X142309619Y-119492679D01*
X176485000Y-119492679D01*
X176485000Y-120507321D01*
X176594233Y-121056472D01*
X176905302Y-121522019D01*
X177370849Y-121833088D01*
X177920000Y-121942321D01*
X178469151Y-121833088D01*
X178934698Y-121522019D01*
X179190000Y-121139933D01*
X179445302Y-121522019D01*
X179910849Y-121833088D01*
X180460000Y-121942321D01*
X181009151Y-121833088D01*
X181474698Y-121522019D01*
X181730000Y-121139933D01*
X181985302Y-121522019D01*
X182450849Y-121833088D01*
X183000000Y-121942321D01*
X183549151Y-121833088D01*
X184014698Y-121522019D01*
X184270000Y-121139933D01*
X184525302Y-121522019D01*
X184990849Y-121833088D01*
X185540000Y-121942321D01*
X186089151Y-121833088D01*
X186554698Y-121522019D01*
X186810000Y-121139933D01*
X187065302Y-121522019D01*
X187530849Y-121833088D01*
X188080000Y-121942321D01*
X188629151Y-121833088D01*
X189094698Y-121522019D01*
X189350000Y-121139933D01*
X189605302Y-121522019D01*
X190070849Y-121833088D01*
X190620000Y-121942321D01*
X191169151Y-121833088D01*
X191634698Y-121522019D01*
X191890000Y-121139933D01*
X192145302Y-121522019D01*
X192610849Y-121833088D01*
X193160000Y-121942321D01*
X193709151Y-121833088D01*
X194174698Y-121522019D01*
X194430000Y-121139933D01*
X194685302Y-121522019D01*
X195150849Y-121833088D01*
X195700000Y-121942321D01*
X196249151Y-121833088D01*
X196714698Y-121522019D01*
X196970000Y-121139933D01*
X197225302Y-121522019D01*
X197690849Y-121833088D01*
X198240000Y-121942321D01*
X198789151Y-121833088D01*
X199254698Y-121522019D01*
X199510000Y-121139933D01*
X199765302Y-121522019D01*
X200230849Y-121833088D01*
X200780000Y-121942321D01*
X201329151Y-121833088D01*
X201794698Y-121522019D01*
X202105767Y-121056472D01*
X202215000Y-120507321D01*
X202215000Y-119492679D01*
X202105767Y-118943528D01*
X201794698Y-118477981D01*
X201329151Y-118166912D01*
X200780000Y-118057679D01*
X200230849Y-118166912D01*
X199765302Y-118477981D01*
X199510000Y-118860067D01*
X199254698Y-118477981D01*
X198789151Y-118166912D01*
X198240000Y-118057679D01*
X197690849Y-118166912D01*
X197225302Y-118477981D01*
X196970000Y-118860067D01*
X196714698Y-118477981D01*
X196249151Y-118166912D01*
X195700000Y-118057679D01*
X195150849Y-118166912D01*
X194685302Y-118477981D01*
X194430000Y-118860067D01*
X194174698Y-118477981D01*
X193709151Y-118166912D01*
X193160000Y-118057679D01*
X192610849Y-118166912D01*
X192145302Y-118477981D01*
X191890000Y-118860067D01*
X191634698Y-118477981D01*
X191169151Y-118166912D01*
X190620000Y-118057679D01*
X190070849Y-118166912D01*
X189605302Y-118477981D01*
X189350000Y-118860067D01*
X189094698Y-118477981D01*
X188629151Y-118166912D01*
X188080000Y-118057679D01*
X187530849Y-118166912D01*
X187065302Y-118477981D01*
X186810000Y-118860067D01*
X186554698Y-118477981D01*
X186089151Y-118166912D01*
X185540000Y-118057679D01*
X184990849Y-118166912D01*
X184525302Y-118477981D01*
X184270000Y-118860067D01*
X184014698Y-118477981D01*
X183549151Y-118166912D01*
X183000000Y-118057679D01*
X182450849Y-118166912D01*
X181985302Y-118477981D01*
X181730000Y-118860067D01*
X181474698Y-118477981D01*
X181009151Y-118166912D01*
X180460000Y-118057679D01*
X179910849Y-118166912D01*
X179445302Y-118477981D01*
X179190000Y-118860067D01*
X178934698Y-118477981D01*
X178469151Y-118166912D01*
X177920000Y-118057679D01*
X177370849Y-118166912D01*
X176905302Y-118477981D01*
X176594233Y-118943528D01*
X176485000Y-119492679D01*
X142309619Y-119492679D01*
X142287521Y-119470543D01*
X141576584Y-119175337D01*
X140806793Y-119174665D01*
X140095342Y-119468630D01*
X139550543Y-120012479D01*
X139255337Y-120723416D01*
X139254665Y-121493207D01*
X98124665Y-121493207D01*
X98125335Y-120726793D01*
X97831370Y-120015342D01*
X97287521Y-119470543D01*
X96576584Y-119175337D01*
X95806793Y-119174665D01*
X95095342Y-119468630D01*
X94550543Y-120012479D01*
X94255337Y-120723416D01*
X94254665Y-121493207D01*
X80710000Y-121493207D01*
X80710000Y-117643599D01*
X98264699Y-117643599D01*
X98528281Y-118281515D01*
X99015918Y-118770004D01*
X99653373Y-119034699D01*
X100343599Y-119035301D01*
X100981515Y-118771719D01*
X101470004Y-118284082D01*
X101734699Y-117646627D01*
X101735216Y-117053207D01*
X139254665Y-117053207D01*
X139548630Y-117764658D01*
X140092479Y-118309457D01*
X140803416Y-118604663D01*
X141573207Y-118605335D01*
X142284658Y-118311370D01*
X142829457Y-117767521D01*
X142864467Y-117683207D01*
X146874665Y-117683207D01*
X147168630Y-118394658D01*
X147712479Y-118939457D01*
X148423416Y-119234663D01*
X149193207Y-119235335D01*
X149904658Y-118941370D01*
X150449457Y-118397521D01*
X150744663Y-117686584D01*
X150745335Y-116916793D01*
X150451370Y-116205342D01*
X149907521Y-115660543D01*
X149196584Y-115365337D01*
X148426793Y-115364665D01*
X147715342Y-115658630D01*
X147170543Y-116202479D01*
X146875337Y-116913416D01*
X146874665Y-117683207D01*
X142864467Y-117683207D01*
X143124663Y-117056584D01*
X143125335Y-116286793D01*
X142831370Y-115575342D01*
X142287521Y-115030543D01*
X141576584Y-114735337D01*
X140806793Y-114734665D01*
X140095342Y-115028630D01*
X139550543Y-115572479D01*
X139255337Y-116283416D01*
X139254665Y-117053207D01*
X101735216Y-117053207D01*
X101735301Y-116956401D01*
X101471719Y-116318485D01*
X100984082Y-115829996D01*
X100346627Y-115565301D01*
X99656401Y-115564699D01*
X99018485Y-115828281D01*
X98529996Y-116315918D01*
X98265301Y-116953373D01*
X98264699Y-117643599D01*
X80710000Y-117643599D01*
X80710000Y-112603207D01*
X94254665Y-112603207D01*
X94548630Y-113314658D01*
X95092479Y-113859457D01*
X95803416Y-114154663D01*
X96573207Y-114155335D01*
X97284658Y-113861370D01*
X97829457Y-113317521D01*
X98124663Y-112606584D01*
X98124700Y-112563599D01*
X98264699Y-112563599D01*
X98528281Y-113201515D01*
X99015918Y-113690004D01*
X99653373Y-113954699D01*
X100343599Y-113955301D01*
X100981515Y-113691719D01*
X101470004Y-113204082D01*
X101719509Y-112603207D01*
X101874665Y-112603207D01*
X102168630Y-113314658D01*
X102712479Y-113859457D01*
X103423416Y-114154663D01*
X104193207Y-114155335D01*
X104904658Y-113861370D01*
X105449457Y-113317521D01*
X105500913Y-113193599D01*
X143264699Y-113193599D01*
X143528281Y-113831515D01*
X144015918Y-114320004D01*
X144653373Y-114584699D01*
X145343599Y-114585301D01*
X145981515Y-114321719D01*
X146470004Y-113834082D01*
X146734699Y-113196627D01*
X146735301Y-112506401D01*
X146719421Y-112467968D01*
X176865000Y-112467968D01*
X176865000Y-113532032D01*
X176951397Y-113966378D01*
X177197434Y-114334598D01*
X177565654Y-114580635D01*
X178000000Y-114667032D01*
X178434346Y-114580635D01*
X178802566Y-114334598D01*
X179048603Y-113966378D01*
X179135000Y-113532032D01*
X179135000Y-112467968D01*
X179865000Y-112467968D01*
X179865000Y-113532032D01*
X179951397Y-113966378D01*
X180197434Y-114334598D01*
X180565654Y-114580635D01*
X181000000Y-114667032D01*
X181434346Y-114580635D01*
X181802566Y-114334598D01*
X182000000Y-114039117D01*
X182197434Y-114334598D01*
X182565654Y-114580635D01*
X183000000Y-114667032D01*
X183434346Y-114580635D01*
X183802566Y-114334598D01*
X184048603Y-113966378D01*
X184135000Y-113532032D01*
X184135000Y-112467968D01*
X184865000Y-112467968D01*
X184865000Y-113532032D01*
X184951397Y-113966378D01*
X185197434Y-114334598D01*
X185565654Y-114580635D01*
X186000000Y-114667032D01*
X186434346Y-114580635D01*
X186802566Y-114334598D01*
X187000000Y-114039117D01*
X187197434Y-114334598D01*
X187565654Y-114580635D01*
X188000000Y-114667032D01*
X188434346Y-114580635D01*
X188802566Y-114334598D01*
X189000000Y-114039117D01*
X189197434Y-114334598D01*
X189565654Y-114580635D01*
X190000000Y-114667032D01*
X190434346Y-114580635D01*
X190802566Y-114334598D01*
X191000000Y-114039117D01*
X191197434Y-114334598D01*
X191565654Y-114580635D01*
X192000000Y-114667032D01*
X192434346Y-114580635D01*
X192802566Y-114334598D01*
X193048603Y-113966378D01*
X193135000Y-113532032D01*
X193135000Y-112467968D01*
X193865000Y-112467968D01*
X193865000Y-113532032D01*
X193951397Y-113966378D01*
X194197434Y-114334598D01*
X194565654Y-114580635D01*
X195000000Y-114667032D01*
X195434346Y-114580635D01*
X195802566Y-114334598D01*
X196000000Y-114039117D01*
X196197434Y-114334598D01*
X196565654Y-114580635D01*
X197000000Y-114667032D01*
X197434346Y-114580635D01*
X197802566Y-114334598D01*
X198048603Y-113966378D01*
X198135000Y-113532032D01*
X198135000Y-113285750D01*
X198865000Y-113285750D01*
X198865000Y-114126310D01*
X198961673Y-114359699D01*
X199140302Y-114538327D01*
X199373691Y-114635000D01*
X199714250Y-114635000D01*
X199873000Y-114476250D01*
X199873000Y-113127000D01*
X200127000Y-113127000D01*
X200127000Y-114476250D01*
X200285750Y-114635000D01*
X200626309Y-114635000D01*
X200859698Y-114538327D01*
X201038327Y-114359699D01*
X201135000Y-114126310D01*
X201135000Y-113285750D01*
X200976250Y-113127000D01*
X200127000Y-113127000D01*
X199873000Y-113127000D01*
X199023750Y-113127000D01*
X198865000Y-113285750D01*
X198135000Y-113285750D01*
X198135000Y-112467968D01*
X198048603Y-112033622D01*
X197941740Y-111873690D01*
X198865000Y-111873690D01*
X198865000Y-112714250D01*
X199023750Y-112873000D01*
X199873000Y-112873000D01*
X199873000Y-111523750D01*
X200127000Y-111523750D01*
X200127000Y-112873000D01*
X200976250Y-112873000D01*
X201135000Y-112714250D01*
X201135000Y-111873690D01*
X201038327Y-111640301D01*
X200859698Y-111461673D01*
X200626309Y-111365000D01*
X200285750Y-111365000D01*
X200127000Y-111523750D01*
X199873000Y-111523750D01*
X199714250Y-111365000D01*
X199373691Y-111365000D01*
X199140302Y-111461673D01*
X198961673Y-111640301D01*
X198865000Y-111873690D01*
X197941740Y-111873690D01*
X197802566Y-111665402D01*
X197434346Y-111419365D01*
X197000000Y-111332968D01*
X196565654Y-111419365D01*
X196197434Y-111665402D01*
X196000000Y-111960883D01*
X195802566Y-111665402D01*
X195434346Y-111419365D01*
X195000000Y-111332968D01*
X194565654Y-111419365D01*
X194197434Y-111665402D01*
X193951397Y-112033622D01*
X193865000Y-112467968D01*
X193135000Y-112467968D01*
X193048603Y-112033622D01*
X192802566Y-111665402D01*
X192434346Y-111419365D01*
X192000000Y-111332968D01*
X191565654Y-111419365D01*
X191197434Y-111665402D01*
X191000000Y-111960883D01*
X190802566Y-111665402D01*
X190434346Y-111419365D01*
X190000000Y-111332968D01*
X189565654Y-111419365D01*
X189197434Y-111665402D01*
X189000000Y-111960883D01*
X188802566Y-111665402D01*
X188434346Y-111419365D01*
X188000000Y-111332968D01*
X187565654Y-111419365D01*
X187197434Y-111665402D01*
X187000000Y-111960883D01*
X186802566Y-111665402D01*
X186434346Y-111419365D01*
X186000000Y-111332968D01*
X185565654Y-111419365D01*
X185197434Y-111665402D01*
X184951397Y-112033622D01*
X184865000Y-112467968D01*
X184135000Y-112467968D01*
X184048603Y-112033622D01*
X183802566Y-111665402D01*
X183434346Y-111419365D01*
X183000000Y-111332968D01*
X182565654Y-111419365D01*
X182197434Y-111665402D01*
X182000000Y-111960883D01*
X181802566Y-111665402D01*
X181434346Y-111419365D01*
X181000000Y-111332968D01*
X180565654Y-111419365D01*
X180197434Y-111665402D01*
X179951397Y-112033622D01*
X179865000Y-112467968D01*
X179135000Y-112467968D01*
X179048603Y-112033622D01*
X178802566Y-111665402D01*
X178434346Y-111419365D01*
X178000000Y-111332968D01*
X177565654Y-111419365D01*
X177197434Y-111665402D01*
X176951397Y-112033622D01*
X176865000Y-112467968D01*
X146719421Y-112467968D01*
X146471719Y-111868485D01*
X145984082Y-111379996D01*
X145346627Y-111115301D01*
X144656401Y-111114699D01*
X144018485Y-111378281D01*
X143529996Y-111865918D01*
X143265301Y-112503373D01*
X143264699Y-113193599D01*
X105500913Y-113193599D01*
X105744663Y-112606584D01*
X105745335Y-111836793D01*
X105451370Y-111125342D01*
X104907521Y-110580543D01*
X104196584Y-110285337D01*
X103426793Y-110284665D01*
X102715342Y-110578630D01*
X102170543Y-111122479D01*
X101875337Y-111833416D01*
X101874665Y-112603207D01*
X101719509Y-112603207D01*
X101734699Y-112566627D01*
X101735301Y-111876401D01*
X101471719Y-111238485D01*
X100984082Y-110749996D01*
X100346627Y-110485301D01*
X99656401Y-110484699D01*
X99018485Y-110748281D01*
X98529996Y-111235918D01*
X98265301Y-111873373D01*
X98264699Y-112563599D01*
X98124700Y-112563599D01*
X98125335Y-111836793D01*
X97831370Y-111125342D01*
X97287521Y-110580543D01*
X96576584Y-110285337D01*
X95806793Y-110284665D01*
X95095342Y-110578630D01*
X94550543Y-111122479D01*
X94255337Y-111833416D01*
X94254665Y-112603207D01*
X80710000Y-112603207D01*
X80710000Y-109442619D01*
X87764613Y-109442619D01*
X88104155Y-110264372D01*
X88732321Y-110893636D01*
X89553481Y-111234611D01*
X90442619Y-111235387D01*
X91264372Y-110895845D01*
X91893636Y-110267679D01*
X92234611Y-109446519D01*
X92235387Y-108557381D01*
X91895845Y-107735628D01*
X91267679Y-107106364D01*
X90768354Y-106899026D01*
X95392642Y-106899026D01*
X95395291Y-106914791D01*
X95649268Y-107442036D01*
X96085680Y-107831954D01*
X96638087Y-108025184D01*
X96873000Y-107880924D01*
X96873000Y-106667000D01*
X97127000Y-106667000D01*
X97127000Y-107880924D01*
X97361913Y-108025184D01*
X97914320Y-107831954D01*
X98350732Y-107442036D01*
X98604709Y-106914791D01*
X98607358Y-106899026D01*
X98486217Y-106667000D01*
X97127000Y-106667000D01*
X96873000Y-106667000D01*
X95513783Y-106667000D01*
X95392642Y-106899026D01*
X90768354Y-106899026D01*
X90446519Y-106765389D01*
X89557381Y-106764613D01*
X88735628Y-107104155D01*
X88106364Y-107732321D01*
X87765389Y-108553481D01*
X87764613Y-109442619D01*
X80710000Y-109442619D01*
X80710000Y-104359026D01*
X95392642Y-104359026D01*
X95395291Y-104374791D01*
X95649268Y-104902036D01*
X96061108Y-105270000D01*
X95649268Y-105637964D01*
X95395291Y-106165209D01*
X95392642Y-106180974D01*
X95513783Y-106413000D01*
X96873000Y-106413000D01*
X96873000Y-104127000D01*
X97127000Y-104127000D01*
X97127000Y-106413000D01*
X98486217Y-106413000D01*
X98607358Y-106180974D01*
X98604709Y-106165209D01*
X98350732Y-105637964D01*
X97938892Y-105270000D01*
X98350732Y-104902036D01*
X98604709Y-104374791D01*
X98607358Y-104359026D01*
X98486217Y-104127000D01*
X97127000Y-104127000D01*
X96873000Y-104127000D01*
X95513783Y-104127000D01*
X95392642Y-104359026D01*
X80710000Y-104359026D01*
X80710000Y-93840000D01*
X95316655Y-93840000D01*
X95430729Y-94413489D01*
X95755585Y-94899670D01*
X96070366Y-95110000D01*
X95755585Y-95320330D01*
X95430729Y-95806511D01*
X95316655Y-96380000D01*
X95430729Y-96953489D01*
X95755585Y-97439670D01*
X96070366Y-97650000D01*
X95755585Y-97860330D01*
X95430729Y-98346511D01*
X95316655Y-98920000D01*
X95430729Y-99493489D01*
X95755585Y-99979670D01*
X96070366Y-100190000D01*
X95755585Y-100400330D01*
X95430729Y-100886511D01*
X95316655Y-101460000D01*
X95430729Y-102033489D01*
X95755585Y-102519670D01*
X96065069Y-102726461D01*
X95649268Y-103097964D01*
X95395291Y-103625209D01*
X95392642Y-103640974D01*
X95513783Y-103873000D01*
X96873000Y-103873000D01*
X96873000Y-103853000D01*
X97127000Y-103853000D01*
X97127000Y-103873000D01*
X98486217Y-103873000D01*
X98607358Y-103640974D01*
X98604709Y-103625209D01*
X98350732Y-103097964D01*
X97934931Y-102726461D01*
X98057475Y-102644579D01*
X102464786Y-102644579D01*
X102652408Y-103098657D01*
X102999515Y-103446371D01*
X103453266Y-103634785D01*
X103944579Y-103635214D01*
X104398657Y-103447592D01*
X104746371Y-103100485D01*
X104934785Y-102646734D01*
X104934924Y-102487366D01*
X105287290Y-102135000D01*
X110455847Y-102135000D01*
X110365215Y-102353266D01*
X110364786Y-102844579D01*
X110552408Y-103298657D01*
X110899515Y-103646371D01*
X111353266Y-103834785D01*
X111844579Y-103835214D01*
X112298657Y-103647592D01*
X112411446Y-103535000D01*
X112447436Y-103535000D01*
X112265372Y-103973459D01*
X112264630Y-104822815D01*
X112588980Y-105607800D01*
X113189041Y-106208909D01*
X113973459Y-106534628D01*
X114822815Y-106535370D01*
X115607800Y-106211020D01*
X116208909Y-105610959D01*
X116534628Y-104826541D01*
X116535370Y-103977185D01*
X116211020Y-103192200D01*
X116054094Y-103035000D01*
X120745401Y-103035000D01*
X120591091Y-103189041D01*
X120265372Y-103973459D01*
X120264630Y-104822815D01*
X120588980Y-105607800D01*
X121189041Y-106208909D01*
X121973459Y-106534628D01*
X122822815Y-106535370D01*
X123607800Y-106211020D01*
X124208909Y-105610959D01*
X124534628Y-104826541D01*
X124535370Y-103977185D01*
X124211020Y-103192200D01*
X124054094Y-103035000D01*
X134712710Y-103035000D01*
X135264923Y-103587213D01*
X135264786Y-103744579D01*
X135452408Y-104198657D01*
X135799515Y-104546371D01*
X136253266Y-104734785D01*
X136744579Y-104735214D01*
X137198657Y-104547592D01*
X137402025Y-104344579D01*
X180464786Y-104344579D01*
X180652408Y-104798657D01*
X180999515Y-105146371D01*
X181453266Y-105334785D01*
X181944579Y-105335214D01*
X182398657Y-105147592D01*
X182511446Y-105035000D01*
X189812710Y-105035000D01*
X190464923Y-105687213D01*
X190464786Y-105844579D01*
X190652408Y-106298657D01*
X190999515Y-106646371D01*
X191453266Y-106834785D01*
X191944579Y-106835214D01*
X192398657Y-106647592D01*
X192746371Y-106300485D01*
X192934785Y-105846734D01*
X192935214Y-105355421D01*
X192747592Y-104901343D01*
X192400485Y-104553629D01*
X191946734Y-104365215D01*
X191787366Y-104365076D01*
X190861145Y-103438855D01*
X190557809Y-103236173D01*
X190200000Y-103165000D01*
X182511662Y-103165000D01*
X182400485Y-103053629D01*
X181946734Y-102865215D01*
X181455421Y-102864786D01*
X181001343Y-103052408D01*
X180653629Y-103399515D01*
X180465215Y-103853266D01*
X180464786Y-104344579D01*
X137402025Y-104344579D01*
X137546371Y-104200485D01*
X137734785Y-103746734D01*
X137735214Y-103255421D01*
X137547592Y-102801343D01*
X137200485Y-102453629D01*
X136900989Y-102329267D01*
X137098657Y-102247592D01*
X137446371Y-101900485D01*
X137634785Y-101446734D01*
X137635214Y-100955421D01*
X137447592Y-100501343D01*
X137100485Y-100153629D01*
X136646734Y-99965215D01*
X136155421Y-99964786D01*
X135701343Y-100152408D01*
X135588554Y-100265000D01*
X104900000Y-100265000D01*
X104542191Y-100336173D01*
X104238855Y-100538855D01*
X103612787Y-101164923D01*
X103455421Y-101164786D01*
X103001343Y-101352408D01*
X102653629Y-101699515D01*
X102465215Y-102153266D01*
X102464786Y-102644579D01*
X98057475Y-102644579D01*
X98244415Y-102519670D01*
X98569271Y-102033489D01*
X98683345Y-101460000D01*
X98569271Y-100886511D01*
X98244415Y-100400330D01*
X97929634Y-100190000D01*
X98244415Y-99979670D01*
X98569271Y-99493489D01*
X98683345Y-98920000D01*
X98569271Y-98346511D01*
X98244415Y-97860330D01*
X97929634Y-97650000D01*
X98244415Y-97439670D01*
X98569271Y-96953489D01*
X98586282Y-96867968D01*
X115265000Y-96867968D01*
X115265000Y-97932032D01*
X115351397Y-98366378D01*
X115597434Y-98734598D01*
X115965654Y-98980635D01*
X116400000Y-99067032D01*
X116834346Y-98980635D01*
X117202566Y-98734598D01*
X117400000Y-98439117D01*
X117597434Y-98734598D01*
X117965654Y-98980635D01*
X118400000Y-99067032D01*
X118834346Y-98980635D01*
X119202566Y-98734598D01*
X119397293Y-98443169D01*
X119399998Y-98451678D01*
X119687237Y-98792368D01*
X120098126Y-98994119D01*
X120273000Y-98867954D01*
X120273000Y-97527000D01*
X120527000Y-97527000D01*
X120527000Y-98867954D01*
X120701874Y-98994119D01*
X121112763Y-98792368D01*
X121400002Y-98451678D01*
X121535000Y-98027000D01*
X121535000Y-97527000D01*
X120527000Y-97527000D01*
X120273000Y-97527000D01*
X120253000Y-97527000D01*
X120253000Y-97273000D01*
X120273000Y-97273000D01*
X120273000Y-95932046D01*
X120527000Y-95932046D01*
X120527000Y-97273000D01*
X121535000Y-97273000D01*
X121535000Y-96773000D01*
X121440907Y-96477000D01*
X127515160Y-96477000D01*
X127515160Y-98763000D01*
X127564443Y-99010765D01*
X127704791Y-99220809D01*
X127914835Y-99361157D01*
X128162600Y-99410440D01*
X129737400Y-99410440D01*
X129985165Y-99361157D01*
X130195209Y-99220809D01*
X130335557Y-99010765D01*
X130368822Y-98843530D01*
X130484211Y-99016222D01*
X130945671Y-99324559D01*
X131490000Y-99432833D01*
X132034329Y-99324559D01*
X132495789Y-99016222D01*
X132760000Y-98620801D01*
X133024211Y-99016222D01*
X133485671Y-99324559D01*
X134030000Y-99432833D01*
X134574329Y-99324559D01*
X135035789Y-99016222D01*
X135299754Y-98621170D01*
X135304475Y-98637262D01*
X135654014Y-99071191D01*
X136143004Y-99338327D01*
X136222940Y-99355010D01*
X136443000Y-99232852D01*
X136443000Y-97747000D01*
X136423000Y-97747000D01*
X136423000Y-97493000D01*
X136443000Y-97493000D01*
X136443000Y-96007148D01*
X136697000Y-96007148D01*
X136697000Y-97493000D01*
X136717000Y-97493000D01*
X136717000Y-97747000D01*
X136697000Y-97747000D01*
X136697000Y-99232852D01*
X136917060Y-99355010D01*
X136996996Y-99338327D01*
X137485986Y-99071191D01*
X137835525Y-98637262D01*
X137840246Y-98621170D01*
X138104211Y-99016222D01*
X138296259Y-99144544D01*
X138088635Y-99185843D01*
X137878591Y-99326191D01*
X137738243Y-99536235D01*
X137688960Y-99784000D01*
X137688960Y-101816000D01*
X137738243Y-102063765D01*
X137878591Y-102273809D01*
X138088635Y-102414157D01*
X138336400Y-102463440D01*
X140063600Y-102463440D01*
X140311365Y-102414157D01*
X140521409Y-102273809D01*
X140661757Y-102063765D01*
X140668984Y-102027434D01*
X140680330Y-102044415D01*
X141166511Y-102369271D01*
X141740000Y-102483345D01*
X142313489Y-102369271D01*
X142799670Y-102044415D01*
X143010000Y-101729634D01*
X143220330Y-102044415D01*
X143706511Y-102369271D01*
X144280000Y-102483345D01*
X144853489Y-102369271D01*
X145339670Y-102044415D01*
X145550000Y-101729634D01*
X145760330Y-102044415D01*
X146246511Y-102369271D01*
X146820000Y-102483345D01*
X147393489Y-102369271D01*
X147879670Y-102044415D01*
X148090000Y-101729634D01*
X148300330Y-102044415D01*
X148786511Y-102369271D01*
X149360000Y-102483345D01*
X149933489Y-102369271D01*
X150419670Y-102044415D01*
X150630000Y-101729634D01*
X150840330Y-102044415D01*
X151326511Y-102369271D01*
X151900000Y-102483345D01*
X152473489Y-102369271D01*
X152959670Y-102044415D01*
X153170000Y-101729634D01*
X153380330Y-102044415D01*
X153866511Y-102369271D01*
X154440000Y-102483345D01*
X155013489Y-102369271D01*
X155499670Y-102044415D01*
X155710000Y-101729634D01*
X155920330Y-102044415D01*
X156406511Y-102369271D01*
X156980000Y-102483345D01*
X157553489Y-102369271D01*
X158039670Y-102044415D01*
X158250000Y-101729634D01*
X158460330Y-102044415D01*
X158946511Y-102369271D01*
X159520000Y-102483345D01*
X160093489Y-102369271D01*
X160579670Y-102044415D01*
X160790000Y-101729634D01*
X161000330Y-102044415D01*
X161486511Y-102369271D01*
X162060000Y-102483345D01*
X162633489Y-102369271D01*
X163119670Y-102044415D01*
X163330000Y-101729634D01*
X163540330Y-102044415D01*
X164026511Y-102369271D01*
X164600000Y-102483345D01*
X165173489Y-102369271D01*
X165659670Y-102044415D01*
X165984526Y-101558234D01*
X166098600Y-100984745D01*
X166098600Y-100615255D01*
X165984526Y-100041766D01*
X165659670Y-99555585D01*
X165184122Y-99237834D01*
X165515789Y-99016222D01*
X165824126Y-98554762D01*
X165932400Y-98010433D01*
X165932400Y-97229567D01*
X165824126Y-96685238D01*
X165515789Y-96223778D01*
X165054329Y-95915441D01*
X164510000Y-95807167D01*
X163965671Y-95915441D01*
X163504211Y-96223778D01*
X163240000Y-96619199D01*
X162975789Y-96223778D01*
X162514329Y-95915441D01*
X161970000Y-95807167D01*
X161425671Y-95915441D01*
X160964211Y-96223778D01*
X160700000Y-96619199D01*
X160435789Y-96223778D01*
X159974329Y-95915441D01*
X159430000Y-95807167D01*
X158885671Y-95915441D01*
X158424211Y-96223778D01*
X158160000Y-96619199D01*
X157895789Y-96223778D01*
X157434329Y-95915441D01*
X156890000Y-95807167D01*
X156345671Y-95915441D01*
X155884211Y-96223778D01*
X155620000Y-96619199D01*
X155355789Y-96223778D01*
X154894329Y-95915441D01*
X154350000Y-95807167D01*
X153805671Y-95915441D01*
X153344211Y-96223778D01*
X153080000Y-96619199D01*
X152815789Y-96223778D01*
X152354329Y-95915441D01*
X151810000Y-95807167D01*
X151265671Y-95915441D01*
X150804211Y-96223778D01*
X150540000Y-96619199D01*
X150275789Y-96223778D01*
X149814329Y-95915441D01*
X149270000Y-95807167D01*
X148725671Y-95915441D01*
X148264211Y-96223778D01*
X148000000Y-96619199D01*
X147735789Y-96223778D01*
X147274329Y-95915441D01*
X146730000Y-95807167D01*
X146185671Y-95915441D01*
X145724211Y-96223778D01*
X145460000Y-96619199D01*
X145195789Y-96223778D01*
X144734329Y-95915441D01*
X144190000Y-95807167D01*
X143645671Y-95915441D01*
X143184211Y-96223778D01*
X142920000Y-96619199D01*
X142655789Y-96223778D01*
X142194329Y-95915441D01*
X141650000Y-95807167D01*
X141105671Y-95915441D01*
X140644211Y-96223778D01*
X140380000Y-96619199D01*
X140115789Y-96223778D01*
X139654329Y-95915441D01*
X139110000Y-95807167D01*
X138565671Y-95915441D01*
X138104211Y-96223778D01*
X137840246Y-96618830D01*
X137835525Y-96602738D01*
X137485986Y-96168809D01*
X136996996Y-95901673D01*
X136917060Y-95884990D01*
X136697000Y-96007148D01*
X136443000Y-96007148D01*
X136222940Y-95884990D01*
X136143004Y-95901673D01*
X135654014Y-96168809D01*
X135304475Y-96602738D01*
X135299754Y-96618830D01*
X135035789Y-96223778D01*
X134574329Y-95915441D01*
X134030000Y-95807167D01*
X133485671Y-95915441D01*
X133024211Y-96223778D01*
X132760000Y-96619199D01*
X132495789Y-96223778D01*
X132034329Y-95915441D01*
X131490000Y-95807167D01*
X130945671Y-95915441D01*
X130484211Y-96223778D01*
X130368822Y-96396470D01*
X130335557Y-96229235D01*
X130195209Y-96019191D01*
X129985165Y-95878843D01*
X129737400Y-95829560D01*
X128162600Y-95829560D01*
X127914835Y-95878843D01*
X127704791Y-96019191D01*
X127564443Y-96229235D01*
X127515160Y-96477000D01*
X121440907Y-96477000D01*
X121400002Y-96348322D01*
X121112763Y-96007632D01*
X120701874Y-95805881D01*
X120527000Y-95932046D01*
X120273000Y-95932046D01*
X120098126Y-95805881D01*
X119687237Y-96007632D01*
X119399998Y-96348322D01*
X119397293Y-96356831D01*
X119202566Y-96065402D01*
X118834346Y-95819365D01*
X118400000Y-95732968D01*
X117965654Y-95819365D01*
X117597434Y-96065402D01*
X117400000Y-96360883D01*
X117202566Y-96065402D01*
X116834346Y-95819365D01*
X116400000Y-95732968D01*
X115965654Y-95819365D01*
X115597434Y-96065402D01*
X115351397Y-96433622D01*
X115265000Y-96867968D01*
X98586282Y-96867968D01*
X98683345Y-96380000D01*
X98569271Y-95806511D01*
X98244415Y-95320330D01*
X97929634Y-95110000D01*
X98244415Y-94899670D01*
X98569271Y-94413489D01*
X98662542Y-93944579D01*
X177564786Y-93944579D01*
X177752408Y-94398657D01*
X178099515Y-94746371D01*
X178464999Y-94898133D01*
X178464999Y-96499999D01*
X178536172Y-96857808D01*
X178738854Y-97161144D01*
X180038855Y-98461145D01*
X180342191Y-98663827D01*
X180700000Y-98735000D01*
X189488338Y-98735000D01*
X189599515Y-98846371D01*
X190053266Y-99034785D01*
X190544579Y-99035214D01*
X190998657Y-98847592D01*
X191111446Y-98735000D01*
X199488338Y-98735000D01*
X199599515Y-98846371D01*
X200053266Y-99034785D01*
X200544579Y-99035214D01*
X200998657Y-98847592D01*
X201346371Y-98500485D01*
X201534785Y-98046734D01*
X201535214Y-97555421D01*
X201376187Y-97170547D01*
X201446371Y-97100485D01*
X201634785Y-96646734D01*
X201635214Y-96155421D01*
X201447592Y-95701343D01*
X201100485Y-95353629D01*
X200646734Y-95165215D01*
X200155421Y-95164786D01*
X199701343Y-95352408D01*
X199588554Y-95465000D01*
X191111662Y-95465000D01*
X191000485Y-95353629D01*
X190546734Y-95165215D01*
X190055421Y-95164786D01*
X189601343Y-95352408D01*
X189488554Y-95465000D01*
X182011310Y-95465000D01*
X181700485Y-95153631D01*
X181246734Y-94965217D01*
X180755421Y-94964788D01*
X180334999Y-95138504D01*
X180334999Y-94299999D01*
X180263826Y-93942190D01*
X180061144Y-93638854D01*
X180035077Y-93612787D01*
X180035214Y-93455421D01*
X179847592Y-93001343D01*
X179500485Y-92653629D01*
X179046734Y-92465215D01*
X178555421Y-92464786D01*
X178101343Y-92652408D01*
X177753629Y-92999515D01*
X177565215Y-93453266D01*
X177564786Y-93944579D01*
X98662542Y-93944579D01*
X98683345Y-93840000D01*
X98569271Y-93266511D01*
X98244415Y-92780330D01*
X98227434Y-92768984D01*
X98263765Y-92761757D01*
X98473809Y-92621409D01*
X98614157Y-92411365D01*
X98663440Y-92163600D01*
X98663440Y-90436400D01*
X98614157Y-90188635D01*
X98473809Y-89978591D01*
X98263765Y-89838243D01*
X98016000Y-89788960D01*
X95984000Y-89788960D01*
X95736235Y-89838243D01*
X95526191Y-89978591D01*
X95385843Y-90188635D01*
X95336560Y-90436400D01*
X95336560Y-92163600D01*
X95385843Y-92411365D01*
X95526191Y-92621409D01*
X95736235Y-92761757D01*
X95772566Y-92768984D01*
X95755585Y-92780330D01*
X95430729Y-93266511D01*
X95316655Y-93840000D01*
X80710000Y-93840000D01*
X80710000Y-88442619D01*
X87764613Y-88442619D01*
X88104155Y-89264372D01*
X88732321Y-89893636D01*
X89553481Y-90234611D01*
X90442619Y-90235387D01*
X91264372Y-89895845D01*
X91893636Y-89267679D01*
X92234611Y-88446519D01*
X92235088Y-87899016D01*
X177280590Y-87899016D01*
X177336271Y-88129611D01*
X177819078Y-88297622D01*
X178329428Y-88268083D01*
X178663729Y-88129611D01*
X178719410Y-87899016D01*
X178000000Y-87179605D01*
X177280590Y-87899016D01*
X92235088Y-87899016D01*
X92235387Y-87557381D01*
X91930326Y-86819078D01*
X176702378Y-86819078D01*
X176731917Y-87329428D01*
X176870389Y-87663729D01*
X177100984Y-87719410D01*
X177820395Y-87000000D01*
X178179605Y-87000000D01*
X178899016Y-87719410D01*
X179129611Y-87663729D01*
X179297622Y-87180922D01*
X179268083Y-86670572D01*
X179129611Y-86336271D01*
X178899016Y-86280590D01*
X178179605Y-87000000D01*
X177820395Y-87000000D01*
X177100984Y-86280590D01*
X176870389Y-86336271D01*
X176702378Y-86819078D01*
X91930326Y-86819078D01*
X91895845Y-86735628D01*
X91267679Y-86106364D01*
X91254723Y-86100984D01*
X177280590Y-86100984D01*
X178000000Y-86820395D01*
X178719410Y-86100984D01*
X178663729Y-85870389D01*
X178180922Y-85702378D01*
X177670572Y-85731917D01*
X177336271Y-85870389D01*
X177280590Y-86100984D01*
X91254723Y-86100984D01*
X90446519Y-85765389D01*
X89557381Y-85764613D01*
X88735628Y-86104155D01*
X88106364Y-86732321D01*
X87765389Y-87553481D01*
X87764613Y-88442619D01*
X80710000Y-88442619D01*
X80710000Y-82350000D01*
X103702560Y-82350000D01*
X103702560Y-83650000D01*
X103751843Y-83897765D01*
X103892191Y-84107809D01*
X104102235Y-84248157D01*
X104350000Y-84297440D01*
X105650000Y-84297440D01*
X105897765Y-84248157D01*
X106107809Y-84107809D01*
X106248157Y-83897765D01*
X106297440Y-83650000D01*
X106297440Y-82350000D01*
X106248157Y-82102235D01*
X106172875Y-81989567D01*
X127527600Y-81989567D01*
X127527600Y-82770433D01*
X127635874Y-83314762D01*
X127944211Y-83776222D01*
X128405671Y-84084559D01*
X128950000Y-84192833D01*
X129494329Y-84084559D01*
X129955789Y-83776222D01*
X130219754Y-83381170D01*
X130224475Y-83397262D01*
X130574014Y-83831191D01*
X131063004Y-84098327D01*
X131142940Y-84115010D01*
X131363000Y-83992852D01*
X131363000Y-82507000D01*
X131343000Y-82507000D01*
X131343000Y-82253000D01*
X131363000Y-82253000D01*
X131363000Y-80767148D01*
X131617000Y-80767148D01*
X131617000Y-82253000D01*
X131637000Y-82253000D01*
X131637000Y-82507000D01*
X131617000Y-82507000D01*
X131617000Y-83992852D01*
X131837060Y-84115010D01*
X131916996Y-84098327D01*
X132405986Y-83831191D01*
X132755525Y-83397262D01*
X132760246Y-83381170D01*
X133024211Y-83776222D01*
X133485671Y-84084559D01*
X134030000Y-84192833D01*
X134574329Y-84084559D01*
X135035789Y-83776222D01*
X135300000Y-83380801D01*
X135564211Y-83776222D01*
X136025671Y-84084559D01*
X136570000Y-84192833D01*
X137114329Y-84084559D01*
X137575789Y-83776222D01*
X137840000Y-83380801D01*
X138104211Y-83776222D01*
X138565671Y-84084559D01*
X139110000Y-84192833D01*
X139654329Y-84084559D01*
X140115789Y-83776222D01*
X140380000Y-83380801D01*
X140644211Y-83776222D01*
X141105671Y-84084559D01*
X141650000Y-84192833D01*
X142194329Y-84084559D01*
X142655789Y-83776222D01*
X142920000Y-83380801D01*
X143184211Y-83776222D01*
X143645671Y-84084559D01*
X144190000Y-84192833D01*
X144734329Y-84084559D01*
X145195789Y-83776222D01*
X145460000Y-83380801D01*
X145724211Y-83776222D01*
X146185671Y-84084559D01*
X146730000Y-84192833D01*
X147274329Y-84084559D01*
X147735789Y-83776222D01*
X148000000Y-83380801D01*
X148264211Y-83776222D01*
X148725671Y-84084559D01*
X149270000Y-84192833D01*
X149814329Y-84084559D01*
X150275789Y-83776222D01*
X150540000Y-83380801D01*
X150804211Y-83776222D01*
X151265671Y-84084559D01*
X151810000Y-84192833D01*
X152354329Y-84084559D01*
X152815789Y-83776222D01*
X153080000Y-83380801D01*
X153344211Y-83776222D01*
X153805671Y-84084559D01*
X154350000Y-84192833D01*
X154894329Y-84084559D01*
X155355789Y-83776222D01*
X155620000Y-83380801D01*
X155884211Y-83776222D01*
X156345671Y-84084559D01*
X156890000Y-84192833D01*
X157434329Y-84084559D01*
X157895789Y-83776222D01*
X158160000Y-83380801D01*
X158424211Y-83776222D01*
X158885671Y-84084559D01*
X159430000Y-84192833D01*
X159974329Y-84084559D01*
X160435789Y-83776222D01*
X160700000Y-83380801D01*
X160964211Y-83776222D01*
X161425671Y-84084559D01*
X161970000Y-84192833D01*
X162514329Y-84084559D01*
X162975789Y-83776222D01*
X163240000Y-83380801D01*
X163504211Y-83776222D01*
X163965671Y-84084559D01*
X164510000Y-84192833D01*
X165054329Y-84084559D01*
X165515789Y-83776222D01*
X165824126Y-83314762D01*
X165932400Y-82770433D01*
X165932400Y-81989567D01*
X165824126Y-81445238D01*
X165515789Y-80983778D01*
X165054329Y-80675441D01*
X164510000Y-80567167D01*
X163965671Y-80675441D01*
X163504211Y-80983778D01*
X163240000Y-81379199D01*
X162975789Y-80983778D01*
X162514329Y-80675441D01*
X161970000Y-80567167D01*
X161425671Y-80675441D01*
X160964211Y-80983778D01*
X160700000Y-81379199D01*
X160435789Y-80983778D01*
X159974329Y-80675441D01*
X159430000Y-80567167D01*
X158885671Y-80675441D01*
X158424211Y-80983778D01*
X158160000Y-81379199D01*
X157895789Y-80983778D01*
X157434329Y-80675441D01*
X156890000Y-80567167D01*
X156345671Y-80675441D01*
X155884211Y-80983778D01*
X155620000Y-81379199D01*
X155355789Y-80983778D01*
X154894329Y-80675441D01*
X154350000Y-80567167D01*
X153805671Y-80675441D01*
X153344211Y-80983778D01*
X153080000Y-81379199D01*
X152815789Y-80983778D01*
X152354329Y-80675441D01*
X151810000Y-80567167D01*
X151265671Y-80675441D01*
X150804211Y-80983778D01*
X150540000Y-81379199D01*
X150275789Y-80983778D01*
X149814329Y-80675441D01*
X149270000Y-80567167D01*
X148725671Y-80675441D01*
X148264211Y-80983778D01*
X148000000Y-81379199D01*
X147735789Y-80983778D01*
X147274329Y-80675441D01*
X146730000Y-80567167D01*
X146185671Y-80675441D01*
X145724211Y-80983778D01*
X145460000Y-81379199D01*
X145195789Y-80983778D01*
X144734329Y-80675441D01*
X144190000Y-80567167D01*
X143645671Y-80675441D01*
X143184211Y-80983778D01*
X142920000Y-81379199D01*
X142655789Y-80983778D01*
X142194329Y-80675441D01*
X141650000Y-80567167D01*
X141105671Y-80675441D01*
X140644211Y-80983778D01*
X140380000Y-81379199D01*
X140115789Y-80983778D01*
X139654329Y-80675441D01*
X139110000Y-80567167D01*
X138565671Y-80675441D01*
X138104211Y-80983778D01*
X137840000Y-81379199D01*
X137575789Y-80983778D01*
X137114329Y-80675441D01*
X136570000Y-80567167D01*
X136025671Y-80675441D01*
X135564211Y-80983778D01*
X135300000Y-81379199D01*
X135035789Y-80983778D01*
X134574329Y-80675441D01*
X134030000Y-80567167D01*
X133485671Y-80675441D01*
X133024211Y-80983778D01*
X132760246Y-81378830D01*
X132755525Y-81362738D01*
X132405986Y-80928809D01*
X131916996Y-80661673D01*
X131837060Y-80644990D01*
X131617000Y-80767148D01*
X131363000Y-80767148D01*
X131142940Y-80644990D01*
X131063004Y-80661673D01*
X130574014Y-80928809D01*
X130224475Y-81362738D01*
X130219754Y-81378830D01*
X129955789Y-80983778D01*
X129494329Y-80675441D01*
X128950000Y-80567167D01*
X128405671Y-80675441D01*
X127944211Y-80983778D01*
X127635874Y-81445238D01*
X127527600Y-81989567D01*
X106172875Y-81989567D01*
X106107809Y-81892191D01*
X105897765Y-81751843D01*
X105650000Y-81702560D01*
X104350000Y-81702560D01*
X104102235Y-81751843D01*
X103892191Y-81892191D01*
X103751843Y-82102235D01*
X103702560Y-82350000D01*
X80710000Y-82350000D01*
X80710000Y-80544579D01*
X173664786Y-80544579D01*
X173852408Y-80998657D01*
X174199515Y-81346371D01*
X174653266Y-81534785D01*
X175144579Y-81535214D01*
X175598657Y-81347592D01*
X175711446Y-81235000D01*
X176725435Y-81235000D01*
X176702560Y-81350000D01*
X176702560Y-82650000D01*
X176751843Y-82897765D01*
X176892191Y-83107809D01*
X176996635Y-83177597D01*
X176965215Y-83253266D01*
X176964786Y-83744579D01*
X177152408Y-84198657D01*
X177499515Y-84546371D01*
X177953266Y-84734785D01*
X178444579Y-84735214D01*
X178687114Y-84635000D01*
X180253870Y-84635000D01*
X182355267Y-86736397D01*
X182265215Y-86953266D01*
X182264786Y-87444579D01*
X182452408Y-87898657D01*
X182799515Y-88246371D01*
X183253266Y-88434785D01*
X183744579Y-88435214D01*
X183875844Y-88380976D01*
X184834710Y-89339842D01*
X184891922Y-89478305D01*
X185239029Y-89826019D01*
X185692780Y-90014433D01*
X186184093Y-90014862D01*
X186638171Y-89827240D01*
X186985885Y-89480133D01*
X187174299Y-89026382D01*
X187174728Y-88535069D01*
X187133380Y-88435000D01*
X187788338Y-88435000D01*
X187899515Y-88546371D01*
X188353266Y-88734785D01*
X188844579Y-88735214D01*
X189298657Y-88547592D01*
X189646371Y-88200485D01*
X189771551Y-87899016D01*
X192280590Y-87899016D01*
X192336271Y-88129611D01*
X192819078Y-88297622D01*
X193329428Y-88268083D01*
X193663729Y-88129611D01*
X193719410Y-87899016D01*
X193000000Y-87179605D01*
X192280590Y-87899016D01*
X189771551Y-87899016D01*
X189834785Y-87746734D01*
X189835214Y-87255421D01*
X189654920Y-86819078D01*
X191702378Y-86819078D01*
X191731917Y-87329428D01*
X191870389Y-87663729D01*
X192100984Y-87719410D01*
X192820395Y-87000000D01*
X193179605Y-87000000D01*
X193899016Y-87719410D01*
X194129611Y-87663729D01*
X194297622Y-87180922D01*
X194268083Y-86670572D01*
X194129611Y-86336271D01*
X193920386Y-86285750D01*
X202915000Y-86285750D01*
X202915000Y-87576309D01*
X203011673Y-87809698D01*
X203190301Y-87988327D01*
X203423690Y-88085000D01*
X204714250Y-88085000D01*
X204873000Y-87926250D01*
X204873000Y-86127000D01*
X205127000Y-86127000D01*
X205127000Y-87926250D01*
X205285750Y-88085000D01*
X206576310Y-88085000D01*
X206809699Y-87988327D01*
X206988327Y-87809698D01*
X207085000Y-87576309D01*
X207085000Y-86285750D01*
X206926250Y-86127000D01*
X205127000Y-86127000D01*
X204873000Y-86127000D01*
X203073750Y-86127000D01*
X202915000Y-86285750D01*
X193920386Y-86285750D01*
X193899016Y-86280590D01*
X193179605Y-87000000D01*
X192820395Y-87000000D01*
X192100984Y-86280590D01*
X191870389Y-86336271D01*
X191702378Y-86819078D01*
X189654920Y-86819078D01*
X189647592Y-86801343D01*
X189300485Y-86453629D01*
X188846734Y-86265215D01*
X188355421Y-86264786D01*
X187901343Y-86452408D01*
X187788554Y-86565000D01*
X186587290Y-86565000D01*
X186123274Y-86100984D01*
X192280590Y-86100984D01*
X193000000Y-86820395D01*
X193719410Y-86100984D01*
X193663729Y-85870389D01*
X193180922Y-85702378D01*
X192670572Y-85731917D01*
X192336271Y-85870389D01*
X192280590Y-86100984D01*
X186123274Y-86100984D01*
X181372290Y-81350000D01*
X191702560Y-81350000D01*
X191702560Y-82650000D01*
X191751843Y-82897765D01*
X191892191Y-83107809D01*
X192102235Y-83248157D01*
X192350000Y-83297440D01*
X193650000Y-83297440D01*
X193897765Y-83248157D01*
X194107809Y-83107809D01*
X194248157Y-82897765D01*
X194297440Y-82650000D01*
X194297440Y-82452913D01*
X202914638Y-82452913D01*
X203231392Y-83219515D01*
X203817400Y-83806547D01*
X204078584Y-83915000D01*
X203423690Y-83915000D01*
X203190301Y-84011673D01*
X203011673Y-84190302D01*
X202915000Y-84423691D01*
X202915000Y-85714250D01*
X203073750Y-85873000D01*
X204873000Y-85873000D01*
X204873000Y-85853000D01*
X205127000Y-85853000D01*
X205127000Y-85873000D01*
X206926250Y-85873000D01*
X207085000Y-85714250D01*
X207085000Y-84423691D01*
X206988327Y-84190302D01*
X206809699Y-84011673D01*
X206576310Y-83915000D01*
X205922027Y-83915000D01*
X206179515Y-83808608D01*
X206766547Y-83222600D01*
X207084638Y-82456552D01*
X207085362Y-81627087D01*
X206768608Y-80860485D01*
X206182600Y-80273453D01*
X205416552Y-79955362D01*
X204587087Y-79954638D01*
X203820485Y-80271392D01*
X203233453Y-80857400D01*
X202915362Y-81623448D01*
X202914638Y-82452913D01*
X194297440Y-82452913D01*
X194297440Y-81350000D01*
X194248157Y-81102235D01*
X194107809Y-80892191D01*
X193897765Y-80751843D01*
X193650000Y-80702560D01*
X192350000Y-80702560D01*
X192102235Y-80751843D01*
X191892191Y-80892191D01*
X191751843Y-81102235D01*
X191702560Y-81350000D01*
X181372290Y-81350000D01*
X179661145Y-79638855D01*
X179357809Y-79436173D01*
X179000000Y-79365000D01*
X175711662Y-79365000D01*
X175600485Y-79253629D01*
X175146734Y-79065215D01*
X174655421Y-79064786D01*
X174201343Y-79252408D01*
X173853629Y-79599515D01*
X173665215Y-80053266D01*
X173664786Y-80544579D01*
X80710000Y-80544579D01*
X80710000Y-78899016D01*
X104280590Y-78899016D01*
X104336271Y-79129611D01*
X104819078Y-79297622D01*
X105329428Y-79268083D01*
X105663729Y-79129611D01*
X105719410Y-78899016D01*
X105000000Y-78179605D01*
X104280590Y-78899016D01*
X80710000Y-78899016D01*
X80710000Y-77819078D01*
X103702378Y-77819078D01*
X103731917Y-78329428D01*
X103870389Y-78663729D01*
X104100984Y-78719410D01*
X104820395Y-78000000D01*
X105179605Y-78000000D01*
X105899016Y-78719410D01*
X106129611Y-78663729D01*
X106297622Y-78180922D01*
X106268083Y-77670572D01*
X106186779Y-77474285D01*
X126114760Y-77474285D01*
X126325169Y-77983515D01*
X126714436Y-78373461D01*
X127223298Y-78584759D01*
X127774285Y-78585240D01*
X128283515Y-78374831D01*
X128673461Y-77985564D01*
X128884759Y-77476702D01*
X128885240Y-76925715D01*
X128674831Y-76416485D01*
X128542577Y-76284000D01*
X137568960Y-76284000D01*
X137568960Y-78316000D01*
X137618243Y-78563765D01*
X137758591Y-78773809D01*
X137968635Y-78914157D01*
X138216400Y-78963440D01*
X139943600Y-78963440D01*
X140191365Y-78914157D01*
X140401409Y-78773809D01*
X140541757Y-78563765D01*
X140548984Y-78527434D01*
X140560330Y-78544415D01*
X141046511Y-78869271D01*
X141620000Y-78983345D01*
X142193489Y-78869271D01*
X142679670Y-78544415D01*
X142890000Y-78229634D01*
X143100330Y-78544415D01*
X143586511Y-78869271D01*
X144160000Y-78983345D01*
X144733489Y-78869271D01*
X145219670Y-78544415D01*
X145430000Y-78229634D01*
X145640330Y-78544415D01*
X146126511Y-78869271D01*
X146700000Y-78983345D01*
X147273489Y-78869271D01*
X147759670Y-78544415D01*
X147970000Y-78229634D01*
X148180330Y-78544415D01*
X148666511Y-78869271D01*
X149240000Y-78983345D01*
X149813489Y-78869271D01*
X150299670Y-78544415D01*
X150510000Y-78229634D01*
X150720330Y-78544415D01*
X151206511Y-78869271D01*
X151780000Y-78983345D01*
X152353489Y-78869271D01*
X152839670Y-78544415D01*
X153050000Y-78229634D01*
X153260330Y-78544415D01*
X153746511Y-78869271D01*
X154320000Y-78983345D01*
X154893489Y-78869271D01*
X155379670Y-78544415D01*
X155590000Y-78229634D01*
X155800330Y-78544415D01*
X156286511Y-78869271D01*
X156860000Y-78983345D01*
X157433489Y-78869271D01*
X157919670Y-78544415D01*
X158244526Y-78058234D01*
X158358600Y-77484745D01*
X158358600Y-77115255D01*
X158244526Y-76541766D01*
X157919670Y-76055585D01*
X157433489Y-75730729D01*
X156860000Y-75616655D01*
X156286511Y-75730729D01*
X155800330Y-76055585D01*
X155590000Y-76370366D01*
X155379670Y-76055585D01*
X154893489Y-75730729D01*
X154320000Y-75616655D01*
X153746511Y-75730729D01*
X153260330Y-76055585D01*
X153050000Y-76370366D01*
X152839670Y-76055585D01*
X152353489Y-75730729D01*
X151780000Y-75616655D01*
X151206511Y-75730729D01*
X150720330Y-76055585D01*
X150510000Y-76370366D01*
X150299670Y-76055585D01*
X149813489Y-75730729D01*
X149240000Y-75616655D01*
X148666511Y-75730729D01*
X148180330Y-76055585D01*
X147970000Y-76370366D01*
X147759670Y-76055585D01*
X147273489Y-75730729D01*
X146700000Y-75616655D01*
X146126511Y-75730729D01*
X145640330Y-76055585D01*
X145430000Y-76370366D01*
X145219670Y-76055585D01*
X144733489Y-75730729D01*
X144160000Y-75616655D01*
X143586511Y-75730729D01*
X143100330Y-76055585D01*
X142890000Y-76370366D01*
X142679670Y-76055585D01*
X142193489Y-75730729D01*
X141620000Y-75616655D01*
X141046511Y-75730729D01*
X140560330Y-76055585D01*
X140548984Y-76072566D01*
X140541757Y-76036235D01*
X140401409Y-75826191D01*
X140191365Y-75685843D01*
X139943600Y-75636560D01*
X138216400Y-75636560D01*
X137968635Y-75685843D01*
X137758591Y-75826191D01*
X137618243Y-76036235D01*
X137568960Y-76284000D01*
X128542577Y-76284000D01*
X128285564Y-76026539D01*
X127776702Y-75815241D01*
X127225715Y-75814760D01*
X126716485Y-76025169D01*
X126326539Y-76414436D01*
X126115241Y-76923298D01*
X126114760Y-77474285D01*
X106186779Y-77474285D01*
X106129611Y-77336271D01*
X105899016Y-77280590D01*
X105179605Y-78000000D01*
X104820395Y-78000000D01*
X104100984Y-77280590D01*
X103870389Y-77336271D01*
X103702378Y-77819078D01*
X80710000Y-77819078D01*
X80710000Y-77100984D01*
X104280590Y-77100984D01*
X105000000Y-77820395D01*
X105719410Y-77100984D01*
X105663729Y-76870389D01*
X105180922Y-76702378D01*
X104670572Y-76731917D01*
X104336271Y-76870389D01*
X104280590Y-77100984D01*
X80710000Y-77100984D01*
X80710000Y-74442619D01*
X81764613Y-74442619D01*
X82104155Y-75264372D01*
X82732321Y-75893636D01*
X83553481Y-76234611D01*
X84442619Y-76235387D01*
X84832514Y-76074285D01*
X116714760Y-76074285D01*
X116925169Y-76583515D01*
X117314436Y-76973461D01*
X117823298Y-77184759D01*
X118374285Y-77185240D01*
X118883515Y-76974831D01*
X119273461Y-76585564D01*
X119484759Y-76076702D01*
X119485240Y-75525715D01*
X119274831Y-75016485D01*
X118885564Y-74626539D01*
X118442636Y-74442619D01*
X203764613Y-74442619D01*
X204104155Y-75264372D01*
X204732321Y-75893636D01*
X205553481Y-76234611D01*
X206442619Y-76235387D01*
X207264372Y-75895845D01*
X207893636Y-75267679D01*
X208234611Y-74446519D01*
X208235387Y-73557381D01*
X207895845Y-72735628D01*
X207267679Y-72106364D01*
X206446519Y-71765389D01*
X205557381Y-71764613D01*
X204735628Y-72104155D01*
X204106364Y-72732321D01*
X203765389Y-73553481D01*
X203764613Y-74442619D01*
X118442636Y-74442619D01*
X118376702Y-74415241D01*
X117825715Y-74414760D01*
X117316485Y-74625169D01*
X116926539Y-75014436D01*
X116715241Y-75523298D01*
X116714760Y-76074285D01*
X84832514Y-76074285D01*
X85264372Y-75895845D01*
X85893636Y-75267679D01*
X86234611Y-74446519D01*
X86235387Y-73557381D01*
X85895845Y-72735628D01*
X85267679Y-72106364D01*
X84446519Y-71765389D01*
X83557381Y-71764613D01*
X82735628Y-72104155D01*
X82106364Y-72732321D01*
X81765389Y-73553481D01*
X81764613Y-74442619D01*
X80710000Y-74442619D01*
X80710000Y-70710000D01*
X209290000Y-70710000D01*
X209290000Y-129290000D01*
M02*
