M48
;DRILL file {KiCad 0.201604172031+6696~44~ubuntu14.04.1-product} date Thu 21 Apr 2016 04:41:44 PM EEST
;FORMAT={-:-/ absolute / metric / decimal}
FMAT,2
METRIC,TZ
T1C0.600
T2C0.762
T3C0.800
T4C0.813
T5C1.000
T6C1.001
T7C1.016
T8C1.200
T9C1.600
T10C1.780
T11C2.000
T12C1.600
T13C3.200
%
G90
G05
M71
T1
X94.9Y-106.7
X96.9Y-108.6
X99.Y-107.
X101.2Y-100.3
X101.2Y-101.6
X103.Y-78.
X103.7Y-102.4
X104.Y-80.
X105.Y-76.
X107.Y-77.
X111.6Y-102.6
X130.Y-84.6
X131.5Y-84.6
X133.Y-84.7
X135.6Y-99.4
X136.4Y-101.2
X136.5Y-103.5
X136.993Y-86.493
X137.1Y-99.5
X140.9Y-86.6
X174.9Y-80.3
X175.4Y-90.
X178.Y-90.7
X178.2Y-83.5
X178.8Y-93.7
X180.3Y-90.2
X180.8Y-99.3
X181.Y-85.7
X181.Y-96.2
X181.5Y-93.7
X181.7Y-104.1
X183.5Y-87.2
X184.Y-80.5
X185.5Y-80.5
X185.94Y-88.78
X187.Y-80.5
X188.5Y-80.5
X188.6Y-87.5
X190.1Y-106.8
X190.3Y-90.
X190.3Y-96.4
X190.3Y-97.8
X191.Y-85.6
X191.3Y-100.4
X191.7Y-105.6
X192.4Y-84.
X193.Y-90.6
X195.2Y-90.1
X197.5Y-79.3
X200.3Y-97.8
X200.3Y-110.7
X200.4Y-96.4
X200.6Y-100.4
X200.7Y-105.5
X202.1Y-89.2
X204.5Y-89.2
X206.9Y-89.
T2
X178.Y-113.
X181.Y-113.
X183.Y-113.
X186.Y-113.
X188.Y-113.
X190.Y-113.
X192.Y-113.
X195.Y-113.
X197.Y-113.
X200.Y-113.
T3
X105.Y-78.
X105.Y-83.
X178.Y-82.
X178.Y-87.
X193.Y-82.
X193.Y-87.
T4
X128.95Y-82.38
X128.95Y-97.62
X131.49Y-82.38
X131.49Y-97.62
X134.03Y-82.38
X134.03Y-97.62
X136.57Y-82.38
X136.57Y-97.62
X139.11Y-82.38
X139.11Y-97.62
X141.65Y-82.38
X141.65Y-97.62
X144.19Y-82.38
X144.19Y-97.62
X146.73Y-82.38
X146.73Y-97.62
X149.27Y-82.38
X149.27Y-97.62
X151.81Y-82.38
X151.81Y-97.62
X154.35Y-82.38
X154.35Y-97.62
X156.89Y-82.38
X156.89Y-97.62
X159.43Y-82.38
X159.43Y-97.62
X161.97Y-82.38
X161.97Y-97.62
X164.51Y-82.38
X164.51Y-97.62
T5
X116.4Y-97.4
X118.1Y-75.8
X118.4Y-97.4
X120.4Y-97.4
X127.5Y-77.2
X177.92Y-120.
X177.92Y-127.62
X180.46Y-120.
X180.46Y-127.62
X183.Y-120.
X183.Y-127.62
X185.54Y-120.
X185.54Y-127.62
X188.08Y-120.
X188.08Y-127.62
X190.62Y-120.
X190.62Y-127.62
X193.16Y-120.
X193.16Y-127.62
X195.7Y-120.
X195.7Y-127.62
X198.24Y-120.
X198.24Y-127.62
X200.78Y-120.
X200.78Y-127.62
T6
X162.46Y-127.
X165.Y-127.
X169.Y-127.
X171.54Y-127.
T7
X97.Y-91.3
X97.Y-93.84
X97.Y-96.38
X97.Y-98.92
X97.Y-101.46
X97.Y-104.
X97.Y-106.54
X139.08Y-77.3
X139.2Y-100.8
X141.62Y-77.3
X141.74Y-100.8
X144.16Y-77.3
X144.28Y-100.8
X146.7Y-77.3
X146.82Y-100.8
X149.24Y-77.3
X149.36Y-100.8
X151.78Y-77.3
X151.9Y-100.8
X154.32Y-77.3
X154.44Y-100.8
X156.86Y-77.3
X156.98Y-100.8
X159.52Y-100.8
X162.06Y-100.8
X164.6Y-100.8
T8
X100.Y-112.22
X100.Y-117.3
X145.Y-112.85
X153.25Y-123.02
T9
X96.19Y-112.22
X103.81Y-112.22
X141.19Y-116.67
X148.81Y-117.3
T10
X205.Y-82.04
X205.Y-86.
T11
X114.4Y-104.4
X122.4Y-104.4
T12
X96.19Y-121.11
X103.81Y-126.19
X141.19Y-121.11
X148.81Y-126.09
T13
X84.Y-74.
X84.Y-126.
X90.Y-88.
X90.Y-109.
X206.Y-74.
X206.Y-126.
T0
M30
