M48
;DRILL file {KiCad 0.201604172031+6696~44~ubuntu14.04.1-product} date Thu 21 Apr 2016 04:17:23 PM EEST
;FORMAT={-:-/ absolute / metric / decimal}
FMAT,2
METRIC,TZ
T1C0.600
T2C0.800
T3C1.000
T4C1.016
T5C1.250
T6C3.200
%
G90
G05
M71
T1
X112.8Y-60.6
X113.6Y-61.8
X120.Y-66.5
X121.5Y-66.5
X123.Y-66.5
X124.5Y-66.5
X125.3Y-45.
X125.6Y-52.
X127.4Y-50.4
X127.75Y-60.
X129.546Y-56.306
X129.8Y-68.8
X131.Y-57.4
X132.4Y-57.9
X132.4Y-59.8
X133.3Y-47.7
X134.6Y-68.2
X139.6Y-48.6
X140.3Y-47.
X141.9Y-46.6
T2
X110.53Y-46.895
X110.53Y-49.435
X110.53Y-51.975
X110.53Y-54.515
X110.53Y-57.055
X110.53Y-59.595
X110.53Y-62.135
X110.53Y-64.675
X123.23Y-46.895
X123.23Y-49.435
X123.23Y-51.975
X123.23Y-54.515
X123.23Y-57.055
X123.23Y-59.595
X123.23Y-62.135
X123.23Y-64.675
T3
X129.2Y-74.2
X138.6Y-72.8
T4
X114.333Y-65.
X114.46Y-41.
X114.46Y-43.54
X117.Y-41.
X117.Y-43.54
X119.413Y-65.
X119.54Y-41.
X119.54Y-43.54
X142.Y-48.67
X142.Y-51.21
X142.Y-53.75
X142.Y-56.29
X142.Y-58.83
X142.Y-61.37
T5
X104.Y-47.38
X104.Y-52.46
X104.Y-57.54
X104.Y-62.62
T6
X101.Y-34.
X101.Y-76.
X143.Y-34.
X143.Y-76.
T0
M30
