G04 #@! TF.FileFunction,Copper,L1,Top,Signal*
%FSLAX46Y46*%
G04 Gerber Fmt 4.6, Leading zero omitted, Abs format (unit mm)*
G04 Created by KiCad (PCBNEW 0.201604172031+6696~44~ubuntu14.04.1-product) date Thu 21 Apr 2016 04:16:58 PM EEST*
%MOMM*%
%LPD*%
G01*
G04 APERTURE LIST*
%ADD10C,0.100000*%
%ADD11R,2.032000X1.727200*%
%ADD12O,2.032000X1.727200*%
%ADD13O,2.000000X1.200000*%
%ADD14R,1.727200X1.727200*%
%ADD15O,1.727200X1.727200*%
%ADD16R,1.778000X1.778000*%
%ADD17C,1.778000*%
%ADD18R,2.999740X2.999740*%
%ADD19C,2.999740*%
%ADD20C,1.500000*%
%ADD21C,1.200000*%
%ADD22C,1.000000*%
%ADD23C,0.600000*%
%ADD24C,0.254000*%
G04 APERTURE END LIST*
D10*
D11*
X142000000Y-61370000D03*
D12*
X142000000Y-58830000D03*
X142000000Y-56290000D03*
X142000000Y-53750000D03*
X142000000Y-51210000D03*
X142000000Y-48670000D03*
D13*
X110529759Y-64674669D03*
X123229759Y-64674669D03*
X110529759Y-62134669D03*
X123229759Y-62134669D03*
X110529759Y-59594669D03*
X123229759Y-59594669D03*
X110529759Y-57054669D03*
X123229759Y-57054669D03*
X110529759Y-54514669D03*
X123229759Y-54514669D03*
X110529759Y-51974669D03*
X123229759Y-51974669D03*
X110529759Y-49434669D03*
X123229759Y-49434669D03*
X110529759Y-46894669D03*
X123229759Y-46894669D03*
D14*
X119540000Y-43540000D03*
D15*
X119540000Y-41000000D03*
X117000000Y-43540000D03*
X117000000Y-41000000D03*
X114460000Y-43540000D03*
X114460000Y-41000000D03*
D16*
X114333000Y-65000000D03*
D17*
X119413000Y-65000000D03*
D18*
X104000000Y-62620000D03*
D19*
X104000000Y-57540000D03*
X104000000Y-52460000D03*
X104000000Y-47380000D03*
D20*
X129200000Y-74200000D03*
X138600000Y-72800000D03*
D21*
X120000000Y-66500000D03*
X121500000Y-66500000D03*
X123000000Y-66500000D03*
X124500000Y-66500000D03*
X129800000Y-68800000D03*
X134600000Y-68200000D03*
X132400000Y-57900000D03*
X131000000Y-57400000D03*
X113600000Y-61800000D03*
X112800000Y-60600000D03*
X140300000Y-47000000D03*
X139600000Y-48600000D03*
X141900000Y-46600000D03*
X127400000Y-50400000D03*
X127750000Y-60000000D03*
X132400000Y-59800000D03*
X129546235Y-56306160D03*
X133300000Y-47699998D03*
X125600000Y-52000000D03*
X125300000Y-45000000D03*
D22*
X114007669Y-64674669D02*
X114333000Y-65000000D01*
D23*
X123000000Y-66500000D02*
X121500000Y-66500000D01*
X123229759Y-64674669D02*
X123229759Y-65229759D01*
X123229759Y-65229759D02*
X124500000Y-66500000D01*
X132400000Y-57900000D02*
X131500000Y-57900000D01*
X131500000Y-57900000D02*
X131000000Y-57400000D01*
X112800000Y-60600000D02*
X112800000Y-61000000D01*
X112800000Y-61000000D02*
X113600000Y-61800000D01*
X142000000Y-48670000D02*
X139670000Y-48670000D01*
X139670000Y-48670000D02*
X139600000Y-48600000D01*
D22*
X127750000Y-60000000D02*
X127950000Y-59800000D01*
D23*
X127950000Y-59800000D02*
X132400000Y-59800000D01*
X129546235Y-51453763D02*
X129546235Y-56306160D01*
X133300000Y-47699998D02*
X129546235Y-51453763D01*
D22*
X125300001Y-51700001D02*
X125600000Y-52000000D01*
X125300000Y-45000000D02*
X125300001Y-51700001D01*
D24*
G36*
X146290000Y-44488261D02*
X143775478Y-45326435D01*
X143753314Y-45339069D01*
X143728295Y-45344046D01*
X143633673Y-45407270D01*
X143534807Y-45463628D01*
X143519167Y-45483780D01*
X143497954Y-45497954D01*
X143434733Y-45592572D01*
X143364956Y-45682478D01*
X143358217Y-45707086D01*
X143344046Y-45728295D01*
X143321845Y-45839907D01*
X143291787Y-45949669D01*
X143294977Y-45974977D01*
X143290000Y-46000000D01*
X143290000Y-47713702D01*
X142914320Y-47378046D01*
X142361913Y-47184816D01*
X142127000Y-47329076D01*
X142127000Y-48543000D01*
X142147000Y-48543000D01*
X142147000Y-48797000D01*
X142127000Y-48797000D01*
X142127000Y-48817000D01*
X141873000Y-48817000D01*
X141873000Y-48797000D01*
X140513783Y-48797000D01*
X140392642Y-49029026D01*
X140395291Y-49044791D01*
X140649268Y-49572036D01*
X141065069Y-49943539D01*
X140755585Y-50150330D01*
X140430729Y-50636511D01*
X140316655Y-51210000D01*
X140430729Y-51783489D01*
X140755585Y-52269670D01*
X141070366Y-52480000D01*
X140755585Y-52690330D01*
X140430729Y-53176511D01*
X140316655Y-53750000D01*
X140430729Y-54323489D01*
X140755585Y-54809670D01*
X141070366Y-55020000D01*
X140755585Y-55230330D01*
X140430729Y-55716511D01*
X140316655Y-56290000D01*
X140430729Y-56863489D01*
X140755585Y-57349670D01*
X141070366Y-57560000D01*
X140755585Y-57770330D01*
X140430729Y-58256511D01*
X140316655Y-58830000D01*
X140430729Y-59403489D01*
X140755585Y-59889670D01*
X140772566Y-59901016D01*
X140736235Y-59908243D01*
X140526191Y-60048591D01*
X140385843Y-60258635D01*
X140336560Y-60506400D01*
X140336560Y-62233600D01*
X140385843Y-62481365D01*
X140526191Y-62691409D01*
X140736235Y-62831757D01*
X140984000Y-62881040D01*
X143016000Y-62881040D01*
X143263765Y-62831757D01*
X143290000Y-62814227D01*
X143290000Y-64000000D01*
X143294977Y-64025023D01*
X143291787Y-64050331D01*
X143321845Y-64160093D01*
X143344046Y-64271705D01*
X143358217Y-64292914D01*
X143364956Y-64317522D01*
X143434733Y-64407428D01*
X143497954Y-64502046D01*
X143519167Y-64516220D01*
X143534807Y-64536372D01*
X143633673Y-64592730D01*
X143728295Y-64655954D01*
X143753314Y-64660931D01*
X143775478Y-64673565D01*
X146290000Y-65511739D01*
X146290000Y-79290000D01*
X97710000Y-79290000D01*
X97710000Y-76442619D01*
X98764613Y-76442619D01*
X99104155Y-77264372D01*
X99732321Y-77893636D01*
X100553481Y-78234611D01*
X101442619Y-78235387D01*
X102264372Y-77895845D01*
X102893636Y-77267679D01*
X103234611Y-76446519D01*
X103234614Y-76442619D01*
X140764613Y-76442619D01*
X141104155Y-77264372D01*
X141732321Y-77893636D01*
X142553481Y-78234611D01*
X143442619Y-78235387D01*
X144264372Y-77895845D01*
X144893636Y-77267679D01*
X145234611Y-76446519D01*
X145235387Y-75557381D01*
X144895845Y-74735628D01*
X144267679Y-74106364D01*
X143446519Y-73765389D01*
X142557381Y-73764613D01*
X141735628Y-74104155D01*
X141106364Y-74732321D01*
X140765389Y-75553481D01*
X140764613Y-76442619D01*
X103234614Y-76442619D01*
X103235387Y-75557381D01*
X102895845Y-74735628D01*
X102634959Y-74474285D01*
X127814760Y-74474285D01*
X128025169Y-74983515D01*
X128414436Y-75373461D01*
X128923298Y-75584759D01*
X129474285Y-75585240D01*
X129983515Y-75374831D01*
X130373461Y-74985564D01*
X130584759Y-74476702D01*
X130585240Y-73925715D01*
X130374831Y-73416485D01*
X130033227Y-73074285D01*
X137214760Y-73074285D01*
X137425169Y-73583515D01*
X137814436Y-73973461D01*
X138323298Y-74184759D01*
X138874285Y-74185240D01*
X139383515Y-73974831D01*
X139773461Y-73585564D01*
X139984759Y-73076702D01*
X139985240Y-72525715D01*
X139774831Y-72016485D01*
X139385564Y-71626539D01*
X138876702Y-71415241D01*
X138325715Y-71414760D01*
X137816485Y-71625169D01*
X137426539Y-72014436D01*
X137215241Y-72523298D01*
X137214760Y-73074285D01*
X130033227Y-73074285D01*
X129985564Y-73026539D01*
X129476702Y-72815241D01*
X128925715Y-72814760D01*
X128416485Y-73025169D01*
X128026539Y-73414436D01*
X127815241Y-73923298D01*
X127814760Y-74474285D01*
X102634959Y-74474285D01*
X102267679Y-74106364D01*
X101446519Y-73765389D01*
X100557381Y-73764613D01*
X99735628Y-74104155D01*
X99106364Y-74732321D01*
X98765389Y-75553481D01*
X98764613Y-76442619D01*
X97710000Y-76442619D01*
X97710000Y-66379981D01*
X100393837Y-64590756D01*
X100443596Y-64541101D01*
X100502046Y-64502046D01*
X100540693Y-64444206D01*
X100589930Y-64395072D01*
X100616899Y-64330155D01*
X100655954Y-64271705D01*
X100669525Y-64203482D01*
X100696212Y-64139243D01*
X100696285Y-64068948D01*
X100710000Y-64000000D01*
X100710000Y-61120130D01*
X101852690Y-61120130D01*
X101852690Y-64119870D01*
X101901973Y-64367635D01*
X102042321Y-64577679D01*
X102252365Y-64718027D01*
X102500130Y-64767310D01*
X105499870Y-64767310D01*
X105747635Y-64718027D01*
X105812524Y-64674669D01*
X108862727Y-64674669D01*
X108956736Y-65147283D01*
X109224450Y-65547946D01*
X109625113Y-65815660D01*
X110097727Y-65909669D01*
X110961791Y-65909669D01*
X111434405Y-65815660D01*
X111835068Y-65547946D01*
X112102782Y-65147283D01*
X112196791Y-64674669D01*
X112102782Y-64202055D01*
X112041942Y-64111000D01*
X112796560Y-64111000D01*
X112796560Y-65889000D01*
X112845843Y-66136765D01*
X112986191Y-66346809D01*
X113196235Y-66487157D01*
X113444000Y-66536440D01*
X115222000Y-66536440D01*
X115469765Y-66487157D01*
X115679809Y-66346809D01*
X115820157Y-66136765D01*
X115833000Y-66072196D01*
X118520409Y-66072196D01*
X118605467Y-66327539D01*
X119174965Y-66535516D01*
X119780700Y-66509723D01*
X120220533Y-66327539D01*
X120305591Y-66072196D01*
X119413000Y-65179605D01*
X118520409Y-66072196D01*
X115833000Y-66072196D01*
X115869440Y-65889000D01*
X115869440Y-64761965D01*
X117877484Y-64761965D01*
X117903277Y-65367700D01*
X118085461Y-65807533D01*
X118340804Y-65892591D01*
X119233395Y-65000000D01*
X119592605Y-65000000D01*
X120485196Y-65892591D01*
X120740539Y-65807533D01*
X120948516Y-65238035D01*
X120938052Y-64992278D01*
X121636297Y-64992278D01*
X121640167Y-65029950D01*
X121866679Y-65458143D01*
X122239812Y-65767059D01*
X122702759Y-65909669D01*
X123102759Y-65909669D01*
X123102759Y-64801669D01*
X123356759Y-64801669D01*
X123356759Y-65909669D01*
X123756759Y-65909669D01*
X124219706Y-65767059D01*
X124592839Y-65458143D01*
X124819351Y-65029950D01*
X124823221Y-64992278D01*
X124698490Y-64801669D01*
X123356759Y-64801669D01*
X123102759Y-64801669D01*
X121761028Y-64801669D01*
X121636297Y-64992278D01*
X120938052Y-64992278D01*
X120922723Y-64632300D01*
X120808716Y-64357060D01*
X121636297Y-64357060D01*
X121761028Y-64547669D01*
X123102759Y-64547669D01*
X123102759Y-63439669D01*
X123356759Y-63439669D01*
X123356759Y-64547669D01*
X124698490Y-64547669D01*
X124823221Y-64357060D01*
X124819351Y-64319388D01*
X124592839Y-63891195D01*
X124219706Y-63582279D01*
X123756759Y-63439669D01*
X123356759Y-63439669D01*
X123102759Y-63439669D01*
X122702759Y-63439669D01*
X122239812Y-63582279D01*
X121866679Y-63891195D01*
X121640167Y-64319388D01*
X121636297Y-64357060D01*
X120808716Y-64357060D01*
X120740539Y-64192467D01*
X120485196Y-64107409D01*
X119592605Y-65000000D01*
X119233395Y-65000000D01*
X118340804Y-64107409D01*
X118085461Y-64192467D01*
X117877484Y-64761965D01*
X115869440Y-64761965D01*
X115869440Y-64111000D01*
X115833001Y-63927804D01*
X118520409Y-63927804D01*
X119413000Y-64820395D01*
X120305591Y-63927804D01*
X120220533Y-63672461D01*
X119651035Y-63464484D01*
X119045300Y-63490277D01*
X118605467Y-63672461D01*
X118520409Y-63927804D01*
X115833001Y-63927804D01*
X115820157Y-63863235D01*
X115679809Y-63653191D01*
X115469765Y-63512843D01*
X115222000Y-63463560D01*
X113444000Y-63463560D01*
X113196235Y-63512843D01*
X112986191Y-63653191D01*
X112845843Y-63863235D01*
X112796560Y-64111000D01*
X112041942Y-64111000D01*
X111835068Y-63801392D01*
X111434405Y-63533678D01*
X110961791Y-63439669D01*
X110097727Y-63439669D01*
X109625113Y-63533678D01*
X109224450Y-63801392D01*
X108956736Y-64202055D01*
X108862727Y-64674669D01*
X105812524Y-64674669D01*
X105957679Y-64577679D01*
X106098027Y-64367635D01*
X106147310Y-64119870D01*
X106147310Y-62452278D01*
X108936297Y-62452278D01*
X108940167Y-62489950D01*
X109166679Y-62918143D01*
X109539812Y-63227059D01*
X110002759Y-63369669D01*
X110402759Y-63369669D01*
X110402759Y-62261669D01*
X110656759Y-62261669D01*
X110656759Y-63369669D01*
X111056759Y-63369669D01*
X111519706Y-63227059D01*
X111892839Y-62918143D01*
X112119351Y-62489950D01*
X112123221Y-62452278D01*
X111998490Y-62261669D01*
X110656759Y-62261669D01*
X110402759Y-62261669D01*
X109061028Y-62261669D01*
X108936297Y-62452278D01*
X106147310Y-62452278D01*
X106147310Y-62134669D01*
X121562727Y-62134669D01*
X121656736Y-62607283D01*
X121924450Y-63007946D01*
X122325113Y-63275660D01*
X122797727Y-63369669D01*
X123661791Y-63369669D01*
X124134405Y-63275660D01*
X124535068Y-63007946D01*
X124802782Y-62607283D01*
X124896791Y-62134669D01*
X124802782Y-61662055D01*
X124535068Y-61261392D01*
X124134405Y-60993678D01*
X123661791Y-60899669D01*
X122797727Y-60899669D01*
X122325113Y-60993678D01*
X121924450Y-61261392D01*
X121656736Y-61662055D01*
X121562727Y-62134669D01*
X106147310Y-62134669D01*
X106147310Y-61817060D01*
X108936297Y-61817060D01*
X109061028Y-62007669D01*
X110402759Y-62007669D01*
X110402759Y-60899669D01*
X110656759Y-60899669D01*
X110656759Y-62007669D01*
X111998490Y-62007669D01*
X112123221Y-61817060D01*
X112119351Y-61779388D01*
X111892839Y-61351195D01*
X111519706Y-61042279D01*
X111056759Y-60899669D01*
X110656759Y-60899669D01*
X110402759Y-60899669D01*
X110002759Y-60899669D01*
X109539812Y-61042279D01*
X109166679Y-61351195D01*
X108940167Y-61779388D01*
X108936297Y-61817060D01*
X106147310Y-61817060D01*
X106147310Y-61120130D01*
X106098027Y-60872365D01*
X105957679Y-60662321D01*
X105747635Y-60521973D01*
X105499870Y-60472690D01*
X102500130Y-60472690D01*
X102252365Y-60521973D01*
X102042321Y-60662321D01*
X101901973Y-60872365D01*
X101852690Y-61120130D01*
X100710000Y-61120130D01*
X100710000Y-57962789D01*
X101864760Y-57962789D01*
X102189090Y-58747727D01*
X102789114Y-59348800D01*
X103573485Y-59674499D01*
X104422789Y-59675240D01*
X104617785Y-59594669D01*
X108862727Y-59594669D01*
X108956736Y-60067283D01*
X109224450Y-60467946D01*
X109625113Y-60735660D01*
X110097727Y-60829669D01*
X110961791Y-60829669D01*
X111434405Y-60735660D01*
X111835068Y-60467946D01*
X112102782Y-60067283D01*
X112196791Y-59594669D01*
X121562727Y-59594669D01*
X121656736Y-60067283D01*
X121924450Y-60467946D01*
X122325113Y-60735660D01*
X122797727Y-60829669D01*
X123661791Y-60829669D01*
X124134405Y-60735660D01*
X124535068Y-60467946D01*
X124684316Y-60244579D01*
X126514786Y-60244579D01*
X126702408Y-60698657D01*
X127049515Y-61046371D01*
X127503266Y-61234785D01*
X127994579Y-61235214D01*
X128448657Y-61047592D01*
X128761796Y-60735000D01*
X131588338Y-60735000D01*
X131699515Y-60846371D01*
X132153266Y-61034785D01*
X132644579Y-61035214D01*
X133098657Y-60847592D01*
X133446371Y-60500485D01*
X133634785Y-60046734D01*
X133635214Y-59555421D01*
X133447592Y-59101343D01*
X133100485Y-58753629D01*
X132646734Y-58565215D01*
X132155421Y-58564786D01*
X131701343Y-58752408D01*
X131588554Y-58865000D01*
X128554364Y-58865000D01*
X128384345Y-58751397D01*
X127950000Y-58665000D01*
X127515655Y-58751397D01*
X127479730Y-58775401D01*
X127051343Y-58952408D01*
X126703629Y-59299515D01*
X126515215Y-59753266D01*
X126514786Y-60244579D01*
X124684316Y-60244579D01*
X124802782Y-60067283D01*
X124896791Y-59594669D01*
X124802782Y-59122055D01*
X124535068Y-58721392D01*
X124134405Y-58453678D01*
X123661791Y-58359669D01*
X122797727Y-58359669D01*
X122325113Y-58453678D01*
X121924450Y-58721392D01*
X121656736Y-59122055D01*
X121562727Y-59594669D01*
X112196791Y-59594669D01*
X112102782Y-59122055D01*
X111835068Y-58721392D01*
X111434405Y-58453678D01*
X110961791Y-58359669D01*
X110097727Y-58359669D01*
X109625113Y-58453678D01*
X109224450Y-58721392D01*
X108956736Y-59122055D01*
X108862727Y-59594669D01*
X104617785Y-59594669D01*
X105207727Y-59350910D01*
X105808800Y-58750886D01*
X106134499Y-57966515D01*
X106135240Y-57117211D01*
X106109399Y-57054669D01*
X108862727Y-57054669D01*
X108956736Y-57527283D01*
X109224450Y-57927946D01*
X109625113Y-58195660D01*
X110097727Y-58289669D01*
X110961791Y-58289669D01*
X111434405Y-58195660D01*
X111835068Y-57927946D01*
X112102782Y-57527283D01*
X112196791Y-57054669D01*
X121562727Y-57054669D01*
X121656736Y-57527283D01*
X121924450Y-57927946D01*
X122325113Y-58195660D01*
X122797727Y-58289669D01*
X123661791Y-58289669D01*
X124134405Y-58195660D01*
X124535068Y-57927946D01*
X124802782Y-57527283D01*
X124896791Y-57054669D01*
X124802782Y-56582055D01*
X124781858Y-56550739D01*
X128311021Y-56550739D01*
X128498643Y-57004817D01*
X128845750Y-57352531D01*
X129299501Y-57540945D01*
X129790814Y-57541374D01*
X130244892Y-57353752D01*
X130592606Y-57006645D01*
X130781020Y-56552894D01*
X130781449Y-56061581D01*
X130593827Y-55607503D01*
X130481235Y-55494714D01*
X130481235Y-51841053D01*
X133387213Y-48935075D01*
X133544579Y-48935212D01*
X133998657Y-48747590D01*
X134346371Y-48400483D01*
X134383538Y-48310974D01*
X140392642Y-48310974D01*
X140513783Y-48543000D01*
X141873000Y-48543000D01*
X141873000Y-47329076D01*
X141638087Y-47184816D01*
X141085680Y-47378046D01*
X140649268Y-47767964D01*
X140395291Y-48295209D01*
X140392642Y-48310974D01*
X134383538Y-48310974D01*
X134534785Y-47946732D01*
X134535214Y-47455419D01*
X134347592Y-47001341D01*
X134000485Y-46653627D01*
X133546734Y-46465213D01*
X133055421Y-46464784D01*
X132601343Y-46652406D01*
X132253629Y-46999513D01*
X132065215Y-47453264D01*
X132065076Y-47612632D01*
X128885090Y-50792618D01*
X128682408Y-51095954D01*
X128611235Y-51453763D01*
X128611235Y-55494498D01*
X128499864Y-55605675D01*
X128311450Y-56059426D01*
X128311021Y-56550739D01*
X124781858Y-56550739D01*
X124535068Y-56181392D01*
X124134405Y-55913678D01*
X123661791Y-55819669D01*
X122797727Y-55819669D01*
X122325113Y-55913678D01*
X121924450Y-56181392D01*
X121656736Y-56582055D01*
X121562727Y-57054669D01*
X112196791Y-57054669D01*
X112102782Y-56582055D01*
X111835068Y-56181392D01*
X111434405Y-55913678D01*
X110961791Y-55819669D01*
X110097727Y-55819669D01*
X109625113Y-55913678D01*
X109224450Y-56181392D01*
X108956736Y-56582055D01*
X108862727Y-57054669D01*
X106109399Y-57054669D01*
X105810910Y-56332273D01*
X105210886Y-55731200D01*
X104426515Y-55405501D01*
X103577211Y-55404760D01*
X102792273Y-55729090D01*
X102191200Y-56329114D01*
X101865501Y-57113485D01*
X101864760Y-57962789D01*
X100710000Y-57962789D01*
X100710000Y-52882789D01*
X101864760Y-52882789D01*
X102189090Y-53667727D01*
X102789114Y-54268800D01*
X103573485Y-54594499D01*
X104422789Y-54595240D01*
X104617785Y-54514669D01*
X108862727Y-54514669D01*
X108956736Y-54987283D01*
X109224450Y-55387946D01*
X109625113Y-55655660D01*
X110097727Y-55749669D01*
X110961791Y-55749669D01*
X111434405Y-55655660D01*
X111835068Y-55387946D01*
X112102782Y-54987283D01*
X112196791Y-54514669D01*
X121562727Y-54514669D01*
X121656736Y-54987283D01*
X121924450Y-55387946D01*
X122325113Y-55655660D01*
X122797727Y-55749669D01*
X123661791Y-55749669D01*
X124134405Y-55655660D01*
X124535068Y-55387946D01*
X124802782Y-54987283D01*
X124896791Y-54514669D01*
X124802782Y-54042055D01*
X124535068Y-53641392D01*
X124134405Y-53373678D01*
X123661791Y-53279669D01*
X122797727Y-53279669D01*
X122325113Y-53373678D01*
X121924450Y-53641392D01*
X121656736Y-54042055D01*
X121562727Y-54514669D01*
X112196791Y-54514669D01*
X112102782Y-54042055D01*
X111835068Y-53641392D01*
X111434405Y-53373678D01*
X110961791Y-53279669D01*
X110097727Y-53279669D01*
X109625113Y-53373678D01*
X109224450Y-53641392D01*
X108956736Y-54042055D01*
X108862727Y-54514669D01*
X104617785Y-54514669D01*
X105207727Y-54270910D01*
X105808800Y-53670886D01*
X106134499Y-52886515D01*
X106135240Y-52037211D01*
X106109399Y-51974669D01*
X108862727Y-51974669D01*
X108956736Y-52447283D01*
X109224450Y-52847946D01*
X109625113Y-53115660D01*
X110097727Y-53209669D01*
X110961791Y-53209669D01*
X111434405Y-53115660D01*
X111835068Y-52847946D01*
X112102782Y-52447283D01*
X112196791Y-51974669D01*
X112102782Y-51502055D01*
X111835068Y-51101392D01*
X111434405Y-50833678D01*
X110961791Y-50739669D01*
X110097727Y-50739669D01*
X109625113Y-50833678D01*
X109224450Y-51101392D01*
X108956736Y-51502055D01*
X108862727Y-51974669D01*
X106109399Y-51974669D01*
X105810910Y-51252273D01*
X105210886Y-50651200D01*
X104426515Y-50325501D01*
X103577211Y-50324760D01*
X102792273Y-50649090D01*
X102191200Y-51249114D01*
X101865501Y-52033485D01*
X101864760Y-52882789D01*
X100710000Y-52882789D01*
X100710000Y-47802789D01*
X101864760Y-47802789D01*
X102189090Y-48587727D01*
X102789114Y-49188800D01*
X103573485Y-49514499D01*
X104422789Y-49515240D01*
X104617785Y-49434669D01*
X108862727Y-49434669D01*
X108956736Y-49907283D01*
X109224450Y-50307946D01*
X109625113Y-50575660D01*
X110097727Y-50669669D01*
X110961791Y-50669669D01*
X111434405Y-50575660D01*
X111835068Y-50307946D01*
X112102782Y-49907283D01*
X112196791Y-49434669D01*
X112102782Y-48962055D01*
X111835068Y-48561392D01*
X111434405Y-48293678D01*
X110961791Y-48199669D01*
X110097727Y-48199669D01*
X109625113Y-48293678D01*
X109224450Y-48561392D01*
X108956736Y-48962055D01*
X108862727Y-49434669D01*
X104617785Y-49434669D01*
X105207727Y-49190910D01*
X105808800Y-48590886D01*
X106134499Y-47806515D01*
X106135017Y-47212278D01*
X108936297Y-47212278D01*
X108940167Y-47249950D01*
X109166679Y-47678143D01*
X109539812Y-47987059D01*
X110002759Y-48129669D01*
X110402759Y-48129669D01*
X110402759Y-47021669D01*
X110656759Y-47021669D01*
X110656759Y-48129669D01*
X111056759Y-48129669D01*
X111519706Y-47987059D01*
X111892839Y-47678143D01*
X112119351Y-47249950D01*
X112123221Y-47212278D01*
X111998490Y-47021669D01*
X110656759Y-47021669D01*
X110402759Y-47021669D01*
X109061028Y-47021669D01*
X108936297Y-47212278D01*
X106135017Y-47212278D01*
X106135240Y-46957211D01*
X106109399Y-46894669D01*
X121562727Y-46894669D01*
X121656736Y-47367283D01*
X121924450Y-47767946D01*
X122325113Y-48035660D01*
X122797727Y-48129669D01*
X123661791Y-48129669D01*
X124134405Y-48035660D01*
X124165000Y-48015217D01*
X124165000Y-48314121D01*
X124134405Y-48293678D01*
X123661791Y-48199669D01*
X122797727Y-48199669D01*
X122325113Y-48293678D01*
X121924450Y-48561392D01*
X121656736Y-48962055D01*
X121562727Y-49434669D01*
X121656736Y-49907283D01*
X121924450Y-50307946D01*
X122325113Y-50575660D01*
X122797727Y-50669669D01*
X123661791Y-50669669D01*
X124134405Y-50575660D01*
X124165001Y-50555217D01*
X124165001Y-50854121D01*
X124134405Y-50833678D01*
X123661791Y-50739669D01*
X122797727Y-50739669D01*
X122325113Y-50833678D01*
X121924450Y-51101392D01*
X121656736Y-51502055D01*
X121562727Y-51974669D01*
X121656736Y-52447283D01*
X121924450Y-52847946D01*
X122325113Y-53115660D01*
X122797727Y-53209669D01*
X123661791Y-53209669D01*
X124134405Y-53115660D01*
X124535068Y-52847946D01*
X124601776Y-52748111D01*
X124899515Y-53046371D01*
X125353266Y-53234785D01*
X125844579Y-53235214D01*
X126298657Y-53047592D01*
X126646371Y-52700485D01*
X126834785Y-52246734D01*
X126835214Y-51755421D01*
X126647592Y-51301343D01*
X126435001Y-51088380D01*
X126435000Y-45487043D01*
X126534785Y-45246734D01*
X126535214Y-44755421D01*
X126347592Y-44301343D01*
X126000485Y-43953629D01*
X125546734Y-43765215D01*
X125055421Y-43764786D01*
X124601343Y-43952408D01*
X124253629Y-44299515D01*
X124065215Y-44753266D01*
X124064786Y-45244579D01*
X124165000Y-45487115D01*
X124165000Y-45774121D01*
X124134405Y-45753678D01*
X123661791Y-45659669D01*
X122797727Y-45659669D01*
X122325113Y-45753678D01*
X121924450Y-46021392D01*
X121656736Y-46422055D01*
X121562727Y-46894669D01*
X106109399Y-46894669D01*
X105978165Y-46577060D01*
X108936297Y-46577060D01*
X109061028Y-46767669D01*
X110402759Y-46767669D01*
X110402759Y-45659669D01*
X110656759Y-45659669D01*
X110656759Y-46767669D01*
X111998490Y-46767669D01*
X112123221Y-46577060D01*
X112119351Y-46539388D01*
X111892839Y-46111195D01*
X111519706Y-45802279D01*
X111056759Y-45659669D01*
X110656759Y-45659669D01*
X110402759Y-45659669D01*
X110002759Y-45659669D01*
X109539812Y-45802279D01*
X109166679Y-46111195D01*
X108940167Y-46539388D01*
X108936297Y-46577060D01*
X105978165Y-46577060D01*
X105810910Y-46172273D01*
X105210886Y-45571200D01*
X104426515Y-45245501D01*
X103577211Y-45244760D01*
X102792273Y-45569090D01*
X102191200Y-46169114D01*
X101865501Y-46953485D01*
X101864760Y-47802789D01*
X100710000Y-47802789D01*
X100710000Y-46000000D01*
X100705023Y-45974980D01*
X100708214Y-45949669D01*
X100678154Y-45839899D01*
X100655954Y-45728295D01*
X100641783Y-45707086D01*
X100635044Y-45682478D01*
X100565267Y-45592572D01*
X100502046Y-45497954D01*
X100480833Y-45483780D01*
X100465193Y-45463628D01*
X100366327Y-45407270D01*
X100271705Y-45344046D01*
X100246686Y-45339069D01*
X100224522Y-45326435D01*
X97710000Y-44488261D01*
X97710000Y-40970641D01*
X112961400Y-40970641D01*
X112961400Y-41029359D01*
X113075474Y-41602848D01*
X113400330Y-42089029D01*
X113671172Y-42270000D01*
X113400330Y-42450971D01*
X113075474Y-42937152D01*
X112961400Y-43510641D01*
X112961400Y-43569359D01*
X113075474Y-44142848D01*
X113400330Y-44629029D01*
X113886511Y-44953885D01*
X114460000Y-45067959D01*
X115033489Y-44953885D01*
X115519670Y-44629029D01*
X115730000Y-44314248D01*
X115940330Y-44629029D01*
X116426511Y-44953885D01*
X117000000Y-45067959D01*
X117573489Y-44953885D01*
X118059670Y-44629029D01*
X118070559Y-44612733D01*
X118078243Y-44651365D01*
X118218591Y-44861409D01*
X118428635Y-45001757D01*
X118676400Y-45051040D01*
X120403600Y-45051040D01*
X120651365Y-45001757D01*
X120861409Y-44861409D01*
X121001757Y-44651365D01*
X121051040Y-44403600D01*
X121051040Y-42676400D01*
X121001757Y-42428635D01*
X120861409Y-42218591D01*
X120651365Y-42078243D01*
X120612096Y-42070432D01*
X120924526Y-41602848D01*
X121038600Y-41029359D01*
X121038600Y-40970641D01*
X120924526Y-40397152D01*
X120599670Y-39910971D01*
X120113489Y-39586115D01*
X119540000Y-39472041D01*
X118966511Y-39586115D01*
X118480330Y-39910971D01*
X118270000Y-40225752D01*
X118059670Y-39910971D01*
X117573489Y-39586115D01*
X117000000Y-39472041D01*
X116426511Y-39586115D01*
X115940330Y-39910971D01*
X115730000Y-40225752D01*
X115519670Y-39910971D01*
X115033489Y-39586115D01*
X114460000Y-39472041D01*
X113886511Y-39586115D01*
X113400330Y-39910971D01*
X113075474Y-40397152D01*
X112961400Y-40970641D01*
X97710000Y-40970641D01*
X97710000Y-34442619D01*
X98764613Y-34442619D01*
X99104155Y-35264372D01*
X99732321Y-35893636D01*
X100553481Y-36234611D01*
X101442619Y-36235387D01*
X102264372Y-35895845D01*
X102893636Y-35267679D01*
X103234611Y-34446519D01*
X103234614Y-34442619D01*
X140764613Y-34442619D01*
X141104155Y-35264372D01*
X141732321Y-35893636D01*
X142553481Y-36234611D01*
X143442619Y-36235387D01*
X144264372Y-35895845D01*
X144893636Y-35267679D01*
X145234611Y-34446519D01*
X145235387Y-33557381D01*
X144895845Y-32735628D01*
X144267679Y-32106364D01*
X143446519Y-31765389D01*
X142557381Y-31764613D01*
X141735628Y-32104155D01*
X141106364Y-32732321D01*
X140765389Y-33553481D01*
X140764613Y-34442619D01*
X103234614Y-34442619D01*
X103235387Y-33557381D01*
X102895845Y-32735628D01*
X102267679Y-32106364D01*
X101446519Y-31765389D01*
X100557381Y-31764613D01*
X99735628Y-32104155D01*
X99106364Y-32732321D01*
X98765389Y-33553481D01*
X98764613Y-34442619D01*
X97710000Y-34442619D01*
X97710000Y-30710000D01*
X146290000Y-30710000D01*
X146290000Y-44488261D01*
X146290000Y-44488261D01*
G37*
X146290000Y-44488261D02*
X143775478Y-45326435D01*
X143753314Y-45339069D01*
X143728295Y-45344046D01*
X143633673Y-45407270D01*
X143534807Y-45463628D01*
X143519167Y-45483780D01*
X143497954Y-45497954D01*
X143434733Y-45592572D01*
X143364956Y-45682478D01*
X143358217Y-45707086D01*
X143344046Y-45728295D01*
X143321845Y-45839907D01*
X143291787Y-45949669D01*
X143294977Y-45974977D01*
X143290000Y-46000000D01*
X143290000Y-47713702D01*
X142914320Y-47378046D01*
X142361913Y-47184816D01*
X142127000Y-47329076D01*
X142127000Y-48543000D01*
X142147000Y-48543000D01*
X142147000Y-48797000D01*
X142127000Y-48797000D01*
X142127000Y-48817000D01*
X141873000Y-48817000D01*
X141873000Y-48797000D01*
X140513783Y-48797000D01*
X140392642Y-49029026D01*
X140395291Y-49044791D01*
X140649268Y-49572036D01*
X141065069Y-49943539D01*
X140755585Y-50150330D01*
X140430729Y-50636511D01*
X140316655Y-51210000D01*
X140430729Y-51783489D01*
X140755585Y-52269670D01*
X141070366Y-52480000D01*
X140755585Y-52690330D01*
X140430729Y-53176511D01*
X140316655Y-53750000D01*
X140430729Y-54323489D01*
X140755585Y-54809670D01*
X141070366Y-55020000D01*
X140755585Y-55230330D01*
X140430729Y-55716511D01*
X140316655Y-56290000D01*
X140430729Y-56863489D01*
X140755585Y-57349670D01*
X141070366Y-57560000D01*
X140755585Y-57770330D01*
X140430729Y-58256511D01*
X140316655Y-58830000D01*
X140430729Y-59403489D01*
X140755585Y-59889670D01*
X140772566Y-59901016D01*
X140736235Y-59908243D01*
X140526191Y-60048591D01*
X140385843Y-60258635D01*
X140336560Y-60506400D01*
X140336560Y-62233600D01*
X140385843Y-62481365D01*
X140526191Y-62691409D01*
X140736235Y-62831757D01*
X140984000Y-62881040D01*
X143016000Y-62881040D01*
X143263765Y-62831757D01*
X143290000Y-62814227D01*
X143290000Y-64000000D01*
X143294977Y-64025023D01*
X143291787Y-64050331D01*
X143321845Y-64160093D01*
X143344046Y-64271705D01*
X143358217Y-64292914D01*
X143364956Y-64317522D01*
X143434733Y-64407428D01*
X143497954Y-64502046D01*
X143519167Y-64516220D01*
X143534807Y-64536372D01*
X143633673Y-64592730D01*
X143728295Y-64655954D01*
X143753314Y-64660931D01*
X143775478Y-64673565D01*
X146290000Y-65511739D01*
X146290000Y-79290000D01*
X97710000Y-79290000D01*
X97710000Y-76442619D01*
X98764613Y-76442619D01*
X99104155Y-77264372D01*
X99732321Y-77893636D01*
X100553481Y-78234611D01*
X101442619Y-78235387D01*
X102264372Y-77895845D01*
X102893636Y-77267679D01*
X103234611Y-76446519D01*
X103234614Y-76442619D01*
X140764613Y-76442619D01*
X141104155Y-77264372D01*
X141732321Y-77893636D01*
X142553481Y-78234611D01*
X143442619Y-78235387D01*
X144264372Y-77895845D01*
X144893636Y-77267679D01*
X145234611Y-76446519D01*
X145235387Y-75557381D01*
X144895845Y-74735628D01*
X144267679Y-74106364D01*
X143446519Y-73765389D01*
X142557381Y-73764613D01*
X141735628Y-74104155D01*
X141106364Y-74732321D01*
X140765389Y-75553481D01*
X140764613Y-76442619D01*
X103234614Y-76442619D01*
X103235387Y-75557381D01*
X102895845Y-74735628D01*
X102634959Y-74474285D01*
X127814760Y-74474285D01*
X128025169Y-74983515D01*
X128414436Y-75373461D01*
X128923298Y-75584759D01*
X129474285Y-75585240D01*
X129983515Y-75374831D01*
X130373461Y-74985564D01*
X130584759Y-74476702D01*
X130585240Y-73925715D01*
X130374831Y-73416485D01*
X130033227Y-73074285D01*
X137214760Y-73074285D01*
X137425169Y-73583515D01*
X137814436Y-73973461D01*
X138323298Y-74184759D01*
X138874285Y-74185240D01*
X139383515Y-73974831D01*
X139773461Y-73585564D01*
X139984759Y-73076702D01*
X139985240Y-72525715D01*
X139774831Y-72016485D01*
X139385564Y-71626539D01*
X138876702Y-71415241D01*
X138325715Y-71414760D01*
X137816485Y-71625169D01*
X137426539Y-72014436D01*
X137215241Y-72523298D01*
X137214760Y-73074285D01*
X130033227Y-73074285D01*
X129985564Y-73026539D01*
X129476702Y-72815241D01*
X128925715Y-72814760D01*
X128416485Y-73025169D01*
X128026539Y-73414436D01*
X127815241Y-73923298D01*
X127814760Y-74474285D01*
X102634959Y-74474285D01*
X102267679Y-74106364D01*
X101446519Y-73765389D01*
X100557381Y-73764613D01*
X99735628Y-74104155D01*
X99106364Y-74732321D01*
X98765389Y-75553481D01*
X98764613Y-76442619D01*
X97710000Y-76442619D01*
X97710000Y-66379981D01*
X100393837Y-64590756D01*
X100443596Y-64541101D01*
X100502046Y-64502046D01*
X100540693Y-64444206D01*
X100589930Y-64395072D01*
X100616899Y-64330155D01*
X100655954Y-64271705D01*
X100669525Y-64203482D01*
X100696212Y-64139243D01*
X100696285Y-64068948D01*
X100710000Y-64000000D01*
X100710000Y-61120130D01*
X101852690Y-61120130D01*
X101852690Y-64119870D01*
X101901973Y-64367635D01*
X102042321Y-64577679D01*
X102252365Y-64718027D01*
X102500130Y-64767310D01*
X105499870Y-64767310D01*
X105747635Y-64718027D01*
X105812524Y-64674669D01*
X108862727Y-64674669D01*
X108956736Y-65147283D01*
X109224450Y-65547946D01*
X109625113Y-65815660D01*
X110097727Y-65909669D01*
X110961791Y-65909669D01*
X111434405Y-65815660D01*
X111835068Y-65547946D01*
X112102782Y-65147283D01*
X112196791Y-64674669D01*
X112102782Y-64202055D01*
X112041942Y-64111000D01*
X112796560Y-64111000D01*
X112796560Y-65889000D01*
X112845843Y-66136765D01*
X112986191Y-66346809D01*
X113196235Y-66487157D01*
X113444000Y-66536440D01*
X115222000Y-66536440D01*
X115469765Y-66487157D01*
X115679809Y-66346809D01*
X115820157Y-66136765D01*
X115833000Y-66072196D01*
X118520409Y-66072196D01*
X118605467Y-66327539D01*
X119174965Y-66535516D01*
X119780700Y-66509723D01*
X120220533Y-66327539D01*
X120305591Y-66072196D01*
X119413000Y-65179605D01*
X118520409Y-66072196D01*
X115833000Y-66072196D01*
X115869440Y-65889000D01*
X115869440Y-64761965D01*
X117877484Y-64761965D01*
X117903277Y-65367700D01*
X118085461Y-65807533D01*
X118340804Y-65892591D01*
X119233395Y-65000000D01*
X119592605Y-65000000D01*
X120485196Y-65892591D01*
X120740539Y-65807533D01*
X120948516Y-65238035D01*
X120938052Y-64992278D01*
X121636297Y-64992278D01*
X121640167Y-65029950D01*
X121866679Y-65458143D01*
X122239812Y-65767059D01*
X122702759Y-65909669D01*
X123102759Y-65909669D01*
X123102759Y-64801669D01*
X123356759Y-64801669D01*
X123356759Y-65909669D01*
X123756759Y-65909669D01*
X124219706Y-65767059D01*
X124592839Y-65458143D01*
X124819351Y-65029950D01*
X124823221Y-64992278D01*
X124698490Y-64801669D01*
X123356759Y-64801669D01*
X123102759Y-64801669D01*
X121761028Y-64801669D01*
X121636297Y-64992278D01*
X120938052Y-64992278D01*
X120922723Y-64632300D01*
X120808716Y-64357060D01*
X121636297Y-64357060D01*
X121761028Y-64547669D01*
X123102759Y-64547669D01*
X123102759Y-63439669D01*
X123356759Y-63439669D01*
X123356759Y-64547669D01*
X124698490Y-64547669D01*
X124823221Y-64357060D01*
X124819351Y-64319388D01*
X124592839Y-63891195D01*
X124219706Y-63582279D01*
X123756759Y-63439669D01*
X123356759Y-63439669D01*
X123102759Y-63439669D01*
X122702759Y-63439669D01*
X122239812Y-63582279D01*
X121866679Y-63891195D01*
X121640167Y-64319388D01*
X121636297Y-64357060D01*
X120808716Y-64357060D01*
X120740539Y-64192467D01*
X120485196Y-64107409D01*
X119592605Y-65000000D01*
X119233395Y-65000000D01*
X118340804Y-64107409D01*
X118085461Y-64192467D01*
X117877484Y-64761965D01*
X115869440Y-64761965D01*
X115869440Y-64111000D01*
X115833001Y-63927804D01*
X118520409Y-63927804D01*
X119413000Y-64820395D01*
X120305591Y-63927804D01*
X120220533Y-63672461D01*
X119651035Y-63464484D01*
X119045300Y-63490277D01*
X118605467Y-63672461D01*
X118520409Y-63927804D01*
X115833001Y-63927804D01*
X115820157Y-63863235D01*
X115679809Y-63653191D01*
X115469765Y-63512843D01*
X115222000Y-63463560D01*
X113444000Y-63463560D01*
X113196235Y-63512843D01*
X112986191Y-63653191D01*
X112845843Y-63863235D01*
X112796560Y-64111000D01*
X112041942Y-64111000D01*
X111835068Y-63801392D01*
X111434405Y-63533678D01*
X110961791Y-63439669D01*
X110097727Y-63439669D01*
X109625113Y-63533678D01*
X109224450Y-63801392D01*
X108956736Y-64202055D01*
X108862727Y-64674669D01*
X105812524Y-64674669D01*
X105957679Y-64577679D01*
X106098027Y-64367635D01*
X106147310Y-64119870D01*
X106147310Y-62452278D01*
X108936297Y-62452278D01*
X108940167Y-62489950D01*
X109166679Y-62918143D01*
X109539812Y-63227059D01*
X110002759Y-63369669D01*
X110402759Y-63369669D01*
X110402759Y-62261669D01*
X110656759Y-62261669D01*
X110656759Y-63369669D01*
X111056759Y-63369669D01*
X111519706Y-63227059D01*
X111892839Y-62918143D01*
X112119351Y-62489950D01*
X112123221Y-62452278D01*
X111998490Y-62261669D01*
X110656759Y-62261669D01*
X110402759Y-62261669D01*
X109061028Y-62261669D01*
X108936297Y-62452278D01*
X106147310Y-62452278D01*
X106147310Y-62134669D01*
X121562727Y-62134669D01*
X121656736Y-62607283D01*
X121924450Y-63007946D01*
X122325113Y-63275660D01*
X122797727Y-63369669D01*
X123661791Y-63369669D01*
X124134405Y-63275660D01*
X124535068Y-63007946D01*
X124802782Y-62607283D01*
X124896791Y-62134669D01*
X124802782Y-61662055D01*
X124535068Y-61261392D01*
X124134405Y-60993678D01*
X123661791Y-60899669D01*
X122797727Y-60899669D01*
X122325113Y-60993678D01*
X121924450Y-61261392D01*
X121656736Y-61662055D01*
X121562727Y-62134669D01*
X106147310Y-62134669D01*
X106147310Y-61817060D01*
X108936297Y-61817060D01*
X109061028Y-62007669D01*
X110402759Y-62007669D01*
X110402759Y-60899669D01*
X110656759Y-60899669D01*
X110656759Y-62007669D01*
X111998490Y-62007669D01*
X112123221Y-61817060D01*
X112119351Y-61779388D01*
X111892839Y-61351195D01*
X111519706Y-61042279D01*
X111056759Y-60899669D01*
X110656759Y-60899669D01*
X110402759Y-60899669D01*
X110002759Y-60899669D01*
X109539812Y-61042279D01*
X109166679Y-61351195D01*
X108940167Y-61779388D01*
X108936297Y-61817060D01*
X106147310Y-61817060D01*
X106147310Y-61120130D01*
X106098027Y-60872365D01*
X105957679Y-60662321D01*
X105747635Y-60521973D01*
X105499870Y-60472690D01*
X102500130Y-60472690D01*
X102252365Y-60521973D01*
X102042321Y-60662321D01*
X101901973Y-60872365D01*
X101852690Y-61120130D01*
X100710000Y-61120130D01*
X100710000Y-57962789D01*
X101864760Y-57962789D01*
X102189090Y-58747727D01*
X102789114Y-59348800D01*
X103573485Y-59674499D01*
X104422789Y-59675240D01*
X104617785Y-59594669D01*
X108862727Y-59594669D01*
X108956736Y-60067283D01*
X109224450Y-60467946D01*
X109625113Y-60735660D01*
X110097727Y-60829669D01*
X110961791Y-60829669D01*
X111434405Y-60735660D01*
X111835068Y-60467946D01*
X112102782Y-60067283D01*
X112196791Y-59594669D01*
X121562727Y-59594669D01*
X121656736Y-60067283D01*
X121924450Y-60467946D01*
X122325113Y-60735660D01*
X122797727Y-60829669D01*
X123661791Y-60829669D01*
X124134405Y-60735660D01*
X124535068Y-60467946D01*
X124684316Y-60244579D01*
X126514786Y-60244579D01*
X126702408Y-60698657D01*
X127049515Y-61046371D01*
X127503266Y-61234785D01*
X127994579Y-61235214D01*
X128448657Y-61047592D01*
X128761796Y-60735000D01*
X131588338Y-60735000D01*
X131699515Y-60846371D01*
X132153266Y-61034785D01*
X132644579Y-61035214D01*
X133098657Y-60847592D01*
X133446371Y-60500485D01*
X133634785Y-60046734D01*
X133635214Y-59555421D01*
X133447592Y-59101343D01*
X133100485Y-58753629D01*
X132646734Y-58565215D01*
X132155421Y-58564786D01*
X131701343Y-58752408D01*
X131588554Y-58865000D01*
X128554364Y-58865000D01*
X128384345Y-58751397D01*
X127950000Y-58665000D01*
X127515655Y-58751397D01*
X127479730Y-58775401D01*
X127051343Y-58952408D01*
X126703629Y-59299515D01*
X126515215Y-59753266D01*
X126514786Y-60244579D01*
X124684316Y-60244579D01*
X124802782Y-60067283D01*
X124896791Y-59594669D01*
X124802782Y-59122055D01*
X124535068Y-58721392D01*
X124134405Y-58453678D01*
X123661791Y-58359669D01*
X122797727Y-58359669D01*
X122325113Y-58453678D01*
X121924450Y-58721392D01*
X121656736Y-59122055D01*
X121562727Y-59594669D01*
X112196791Y-59594669D01*
X112102782Y-59122055D01*
X111835068Y-58721392D01*
X111434405Y-58453678D01*
X110961791Y-58359669D01*
X110097727Y-58359669D01*
X109625113Y-58453678D01*
X109224450Y-58721392D01*
X108956736Y-59122055D01*
X108862727Y-59594669D01*
X104617785Y-59594669D01*
X105207727Y-59350910D01*
X105808800Y-58750886D01*
X106134499Y-57966515D01*
X106135240Y-57117211D01*
X106109399Y-57054669D01*
X108862727Y-57054669D01*
X108956736Y-57527283D01*
X109224450Y-57927946D01*
X109625113Y-58195660D01*
X110097727Y-58289669D01*
X110961791Y-58289669D01*
X111434405Y-58195660D01*
X111835068Y-57927946D01*
X112102782Y-57527283D01*
X112196791Y-57054669D01*
X121562727Y-57054669D01*
X121656736Y-57527283D01*
X121924450Y-57927946D01*
X122325113Y-58195660D01*
X122797727Y-58289669D01*
X123661791Y-58289669D01*
X124134405Y-58195660D01*
X124535068Y-57927946D01*
X124802782Y-57527283D01*
X124896791Y-57054669D01*
X124802782Y-56582055D01*
X124781858Y-56550739D01*
X128311021Y-56550739D01*
X128498643Y-57004817D01*
X128845750Y-57352531D01*
X129299501Y-57540945D01*
X129790814Y-57541374D01*
X130244892Y-57353752D01*
X130592606Y-57006645D01*
X130781020Y-56552894D01*
X130781449Y-56061581D01*
X130593827Y-55607503D01*
X130481235Y-55494714D01*
X130481235Y-51841053D01*
X133387213Y-48935075D01*
X133544579Y-48935212D01*
X133998657Y-48747590D01*
X134346371Y-48400483D01*
X134383538Y-48310974D01*
X140392642Y-48310974D01*
X140513783Y-48543000D01*
X141873000Y-48543000D01*
X141873000Y-47329076D01*
X141638087Y-47184816D01*
X141085680Y-47378046D01*
X140649268Y-47767964D01*
X140395291Y-48295209D01*
X140392642Y-48310974D01*
X134383538Y-48310974D01*
X134534785Y-47946732D01*
X134535214Y-47455419D01*
X134347592Y-47001341D01*
X134000485Y-46653627D01*
X133546734Y-46465213D01*
X133055421Y-46464784D01*
X132601343Y-46652406D01*
X132253629Y-46999513D01*
X132065215Y-47453264D01*
X132065076Y-47612632D01*
X128885090Y-50792618D01*
X128682408Y-51095954D01*
X128611235Y-51453763D01*
X128611235Y-55494498D01*
X128499864Y-55605675D01*
X128311450Y-56059426D01*
X128311021Y-56550739D01*
X124781858Y-56550739D01*
X124535068Y-56181392D01*
X124134405Y-55913678D01*
X123661791Y-55819669D01*
X122797727Y-55819669D01*
X122325113Y-55913678D01*
X121924450Y-56181392D01*
X121656736Y-56582055D01*
X121562727Y-57054669D01*
X112196791Y-57054669D01*
X112102782Y-56582055D01*
X111835068Y-56181392D01*
X111434405Y-55913678D01*
X110961791Y-55819669D01*
X110097727Y-55819669D01*
X109625113Y-55913678D01*
X109224450Y-56181392D01*
X108956736Y-56582055D01*
X108862727Y-57054669D01*
X106109399Y-57054669D01*
X105810910Y-56332273D01*
X105210886Y-55731200D01*
X104426515Y-55405501D01*
X103577211Y-55404760D01*
X102792273Y-55729090D01*
X102191200Y-56329114D01*
X101865501Y-57113485D01*
X101864760Y-57962789D01*
X100710000Y-57962789D01*
X100710000Y-52882789D01*
X101864760Y-52882789D01*
X102189090Y-53667727D01*
X102789114Y-54268800D01*
X103573485Y-54594499D01*
X104422789Y-54595240D01*
X104617785Y-54514669D01*
X108862727Y-54514669D01*
X108956736Y-54987283D01*
X109224450Y-55387946D01*
X109625113Y-55655660D01*
X110097727Y-55749669D01*
X110961791Y-55749669D01*
X111434405Y-55655660D01*
X111835068Y-55387946D01*
X112102782Y-54987283D01*
X112196791Y-54514669D01*
X121562727Y-54514669D01*
X121656736Y-54987283D01*
X121924450Y-55387946D01*
X122325113Y-55655660D01*
X122797727Y-55749669D01*
X123661791Y-55749669D01*
X124134405Y-55655660D01*
X124535068Y-55387946D01*
X124802782Y-54987283D01*
X124896791Y-54514669D01*
X124802782Y-54042055D01*
X124535068Y-53641392D01*
X124134405Y-53373678D01*
X123661791Y-53279669D01*
X122797727Y-53279669D01*
X122325113Y-53373678D01*
X121924450Y-53641392D01*
X121656736Y-54042055D01*
X121562727Y-54514669D01*
X112196791Y-54514669D01*
X112102782Y-54042055D01*
X111835068Y-53641392D01*
X111434405Y-53373678D01*
X110961791Y-53279669D01*
X110097727Y-53279669D01*
X109625113Y-53373678D01*
X109224450Y-53641392D01*
X108956736Y-54042055D01*
X108862727Y-54514669D01*
X104617785Y-54514669D01*
X105207727Y-54270910D01*
X105808800Y-53670886D01*
X106134499Y-52886515D01*
X106135240Y-52037211D01*
X106109399Y-51974669D01*
X108862727Y-51974669D01*
X108956736Y-52447283D01*
X109224450Y-52847946D01*
X109625113Y-53115660D01*
X110097727Y-53209669D01*
X110961791Y-53209669D01*
X111434405Y-53115660D01*
X111835068Y-52847946D01*
X112102782Y-52447283D01*
X112196791Y-51974669D01*
X112102782Y-51502055D01*
X111835068Y-51101392D01*
X111434405Y-50833678D01*
X110961791Y-50739669D01*
X110097727Y-50739669D01*
X109625113Y-50833678D01*
X109224450Y-51101392D01*
X108956736Y-51502055D01*
X108862727Y-51974669D01*
X106109399Y-51974669D01*
X105810910Y-51252273D01*
X105210886Y-50651200D01*
X104426515Y-50325501D01*
X103577211Y-50324760D01*
X102792273Y-50649090D01*
X102191200Y-51249114D01*
X101865501Y-52033485D01*
X101864760Y-52882789D01*
X100710000Y-52882789D01*
X100710000Y-47802789D01*
X101864760Y-47802789D01*
X102189090Y-48587727D01*
X102789114Y-49188800D01*
X103573485Y-49514499D01*
X104422789Y-49515240D01*
X104617785Y-49434669D01*
X108862727Y-49434669D01*
X108956736Y-49907283D01*
X109224450Y-50307946D01*
X109625113Y-50575660D01*
X110097727Y-50669669D01*
X110961791Y-50669669D01*
X111434405Y-50575660D01*
X111835068Y-50307946D01*
X112102782Y-49907283D01*
X112196791Y-49434669D01*
X112102782Y-48962055D01*
X111835068Y-48561392D01*
X111434405Y-48293678D01*
X110961791Y-48199669D01*
X110097727Y-48199669D01*
X109625113Y-48293678D01*
X109224450Y-48561392D01*
X108956736Y-48962055D01*
X108862727Y-49434669D01*
X104617785Y-49434669D01*
X105207727Y-49190910D01*
X105808800Y-48590886D01*
X106134499Y-47806515D01*
X106135017Y-47212278D01*
X108936297Y-47212278D01*
X108940167Y-47249950D01*
X109166679Y-47678143D01*
X109539812Y-47987059D01*
X110002759Y-48129669D01*
X110402759Y-48129669D01*
X110402759Y-47021669D01*
X110656759Y-47021669D01*
X110656759Y-48129669D01*
X111056759Y-48129669D01*
X111519706Y-47987059D01*
X111892839Y-47678143D01*
X112119351Y-47249950D01*
X112123221Y-47212278D01*
X111998490Y-47021669D01*
X110656759Y-47021669D01*
X110402759Y-47021669D01*
X109061028Y-47021669D01*
X108936297Y-47212278D01*
X106135017Y-47212278D01*
X106135240Y-46957211D01*
X106109399Y-46894669D01*
X121562727Y-46894669D01*
X121656736Y-47367283D01*
X121924450Y-47767946D01*
X122325113Y-48035660D01*
X122797727Y-48129669D01*
X123661791Y-48129669D01*
X124134405Y-48035660D01*
X124165000Y-48015217D01*
X124165000Y-48314121D01*
X124134405Y-48293678D01*
X123661791Y-48199669D01*
X122797727Y-48199669D01*
X122325113Y-48293678D01*
X121924450Y-48561392D01*
X121656736Y-48962055D01*
X121562727Y-49434669D01*
X121656736Y-49907283D01*
X121924450Y-50307946D01*
X122325113Y-50575660D01*
X122797727Y-50669669D01*
X123661791Y-50669669D01*
X124134405Y-50575660D01*
X124165001Y-50555217D01*
X124165001Y-50854121D01*
X124134405Y-50833678D01*
X123661791Y-50739669D01*
X122797727Y-50739669D01*
X122325113Y-50833678D01*
X121924450Y-51101392D01*
X121656736Y-51502055D01*
X121562727Y-51974669D01*
X121656736Y-52447283D01*
X121924450Y-52847946D01*
X122325113Y-53115660D01*
X122797727Y-53209669D01*
X123661791Y-53209669D01*
X124134405Y-53115660D01*
X124535068Y-52847946D01*
X124601776Y-52748111D01*
X124899515Y-53046371D01*
X125353266Y-53234785D01*
X125844579Y-53235214D01*
X126298657Y-53047592D01*
X126646371Y-52700485D01*
X126834785Y-52246734D01*
X126835214Y-51755421D01*
X126647592Y-51301343D01*
X126435001Y-51088380D01*
X126435000Y-45487043D01*
X126534785Y-45246734D01*
X126535214Y-44755421D01*
X126347592Y-44301343D01*
X126000485Y-43953629D01*
X125546734Y-43765215D01*
X125055421Y-43764786D01*
X124601343Y-43952408D01*
X124253629Y-44299515D01*
X124065215Y-44753266D01*
X124064786Y-45244579D01*
X124165000Y-45487115D01*
X124165000Y-45774121D01*
X124134405Y-45753678D01*
X123661791Y-45659669D01*
X122797727Y-45659669D01*
X122325113Y-45753678D01*
X121924450Y-46021392D01*
X121656736Y-46422055D01*
X121562727Y-46894669D01*
X106109399Y-46894669D01*
X105978165Y-46577060D01*
X108936297Y-46577060D01*
X109061028Y-46767669D01*
X110402759Y-46767669D01*
X110402759Y-45659669D01*
X110656759Y-45659669D01*
X110656759Y-46767669D01*
X111998490Y-46767669D01*
X112123221Y-46577060D01*
X112119351Y-46539388D01*
X111892839Y-46111195D01*
X111519706Y-45802279D01*
X111056759Y-45659669D01*
X110656759Y-45659669D01*
X110402759Y-45659669D01*
X110002759Y-45659669D01*
X109539812Y-45802279D01*
X109166679Y-46111195D01*
X108940167Y-46539388D01*
X108936297Y-46577060D01*
X105978165Y-46577060D01*
X105810910Y-46172273D01*
X105210886Y-45571200D01*
X104426515Y-45245501D01*
X103577211Y-45244760D01*
X102792273Y-45569090D01*
X102191200Y-46169114D01*
X101865501Y-46953485D01*
X101864760Y-47802789D01*
X100710000Y-47802789D01*
X100710000Y-46000000D01*
X100705023Y-45974980D01*
X100708214Y-45949669D01*
X100678154Y-45839899D01*
X100655954Y-45728295D01*
X100641783Y-45707086D01*
X100635044Y-45682478D01*
X100565267Y-45592572D01*
X100502046Y-45497954D01*
X100480833Y-45483780D01*
X100465193Y-45463628D01*
X100366327Y-45407270D01*
X100271705Y-45344046D01*
X100246686Y-45339069D01*
X100224522Y-45326435D01*
X97710000Y-44488261D01*
X97710000Y-40970641D01*
X112961400Y-40970641D01*
X112961400Y-41029359D01*
X113075474Y-41602848D01*
X113400330Y-42089029D01*
X113671172Y-42270000D01*
X113400330Y-42450971D01*
X113075474Y-42937152D01*
X112961400Y-43510641D01*
X112961400Y-43569359D01*
X113075474Y-44142848D01*
X113400330Y-44629029D01*
X113886511Y-44953885D01*
X114460000Y-45067959D01*
X115033489Y-44953885D01*
X115519670Y-44629029D01*
X115730000Y-44314248D01*
X115940330Y-44629029D01*
X116426511Y-44953885D01*
X117000000Y-45067959D01*
X117573489Y-44953885D01*
X118059670Y-44629029D01*
X118070559Y-44612733D01*
X118078243Y-44651365D01*
X118218591Y-44861409D01*
X118428635Y-45001757D01*
X118676400Y-45051040D01*
X120403600Y-45051040D01*
X120651365Y-45001757D01*
X120861409Y-44861409D01*
X121001757Y-44651365D01*
X121051040Y-44403600D01*
X121051040Y-42676400D01*
X121001757Y-42428635D01*
X120861409Y-42218591D01*
X120651365Y-42078243D01*
X120612096Y-42070432D01*
X120924526Y-41602848D01*
X121038600Y-41029359D01*
X121038600Y-40970641D01*
X120924526Y-40397152D01*
X120599670Y-39910971D01*
X120113489Y-39586115D01*
X119540000Y-39472041D01*
X118966511Y-39586115D01*
X118480330Y-39910971D01*
X118270000Y-40225752D01*
X118059670Y-39910971D01*
X117573489Y-39586115D01*
X117000000Y-39472041D01*
X116426511Y-39586115D01*
X115940330Y-39910971D01*
X115730000Y-40225752D01*
X115519670Y-39910971D01*
X115033489Y-39586115D01*
X114460000Y-39472041D01*
X113886511Y-39586115D01*
X113400330Y-39910971D01*
X113075474Y-40397152D01*
X112961400Y-40970641D01*
X97710000Y-40970641D01*
X97710000Y-34442619D01*
X98764613Y-34442619D01*
X99104155Y-35264372D01*
X99732321Y-35893636D01*
X100553481Y-36234611D01*
X101442619Y-36235387D01*
X102264372Y-35895845D01*
X102893636Y-35267679D01*
X103234611Y-34446519D01*
X103234614Y-34442619D01*
X140764613Y-34442619D01*
X141104155Y-35264372D01*
X141732321Y-35893636D01*
X142553481Y-36234611D01*
X143442619Y-36235387D01*
X144264372Y-35895845D01*
X144893636Y-35267679D01*
X145234611Y-34446519D01*
X145235387Y-33557381D01*
X144895845Y-32735628D01*
X144267679Y-32106364D01*
X143446519Y-31765389D01*
X142557381Y-31764613D01*
X141735628Y-32104155D01*
X141106364Y-32732321D01*
X140765389Y-33553481D01*
X140764613Y-34442619D01*
X103234614Y-34442619D01*
X103235387Y-33557381D01*
X102895845Y-32735628D01*
X102267679Y-32106364D01*
X101446519Y-31765389D01*
X100557381Y-31764613D01*
X99735628Y-32104155D01*
X99106364Y-32732321D01*
X98765389Y-33553481D01*
X98764613Y-34442619D01*
X97710000Y-34442619D01*
X97710000Y-30710000D01*
X146290000Y-30710000D01*
X146290000Y-44488261D01*
M02*
