G04 #@! TF.FileFunction,Copper,L2,Bot,Signal*
%FSLAX46Y46*%
G04 Gerber Fmt 4.6, Leading zero omitted, Abs format (unit mm)*
G04 Created by KiCad (PCBNEW 0.201604172031+6696~44~ubuntu14.04.1-product) date Thu 21 Apr 2016 04:16:58 PM EEST*
%MOMM*%
%LPD*%
G01*
G04 APERTURE LIST*
%ADD10C,0.100000*%
%ADD11R,0.750000X1.200000*%
%ADD12R,2.032000X1.727200*%
%ADD13O,2.032000X1.727200*%
%ADD14R,0.600000X1.500000*%
%ADD15O,2.000000X1.200000*%
%ADD16R,1.727200X1.727200*%
%ADD17O,1.727200X1.727200*%
%ADD18R,1.778000X1.778000*%
%ADD19C,1.778000*%
%ADD20R,2.999740X2.999740*%
%ADD21C,2.999740*%
%ADD22R,1.200000X0.750000*%
%ADD23R,0.600000X1.550000*%
%ADD24R,1.175000X1.175000*%
%ADD25C,1.500000*%
%ADD26C,1.200000*%
%ADD27C,1.000000*%
%ADD28C,3.000000*%
%ADD29C,2.000000*%
%ADD30C,0.600000*%
%ADD31C,0.300000*%
%ADD32C,0.254000*%
G04 APERTURE END LIST*
D10*
D11*
X127900000Y-54850000D03*
X127900000Y-52950000D03*
D12*
X142000000Y-61370000D03*
D13*
X142000000Y-58830000D03*
X142000000Y-56290000D03*
X142000000Y-53750000D03*
X142000000Y-51210000D03*
X142000000Y-48670000D03*
D14*
X129555000Y-49300000D03*
X130825000Y-49300000D03*
X132095000Y-49300000D03*
X133365000Y-49300000D03*
X134635000Y-49300000D03*
X135905000Y-49300000D03*
X137175000Y-49300000D03*
X138445000Y-49300000D03*
X138445000Y-54700000D03*
X137175000Y-54700000D03*
X135905000Y-54700000D03*
X134635000Y-54700000D03*
X133365000Y-54700000D03*
X132095000Y-54700000D03*
X130825000Y-54700000D03*
X129555000Y-54700000D03*
D15*
X110529759Y-64674669D03*
X123229759Y-64674669D03*
X110529759Y-62134669D03*
X123229759Y-62134669D03*
X110529759Y-59594669D03*
X123229759Y-59594669D03*
X110529759Y-57054669D03*
X123229759Y-57054669D03*
X110529759Y-54514669D03*
X123229759Y-54514669D03*
X110529759Y-51974669D03*
X123229759Y-51974669D03*
X110529759Y-49434669D03*
X123229759Y-49434669D03*
X110529759Y-46894669D03*
X123229759Y-46894669D03*
D16*
X119540000Y-43540000D03*
D17*
X119540000Y-41000000D03*
X117000000Y-43540000D03*
X117000000Y-41000000D03*
X114460000Y-43540000D03*
X114460000Y-41000000D03*
D18*
X114333000Y-65000000D03*
D19*
X119413000Y-65000000D03*
D20*
X104000000Y-62620000D03*
D21*
X104000000Y-57540000D03*
X104000000Y-52460000D03*
X104000000Y-47380000D03*
D22*
X132750000Y-69300000D03*
X134650000Y-69300000D03*
X127921417Y-58710653D03*
X129821417Y-58710653D03*
D23*
X132363917Y-66823153D03*
X131093917Y-66823153D03*
X129823917Y-66823153D03*
X128553917Y-66823153D03*
X128553917Y-61423153D03*
X129823917Y-61423153D03*
X131093917Y-61423153D03*
X132363917Y-61423153D03*
D24*
X129871417Y-63535653D03*
X131046417Y-63535653D03*
X129871417Y-64710653D03*
X131046417Y-64710653D03*
D25*
X129200000Y-74200000D03*
X138600000Y-72800000D03*
D26*
X120000000Y-66500000D03*
X121500000Y-66500000D03*
X123000000Y-66500000D03*
X124500000Y-66500000D03*
X129800000Y-68800000D03*
X134600000Y-68200000D03*
X132400000Y-57900000D03*
X131000000Y-57400000D03*
X113600000Y-61800000D03*
X112800000Y-60600000D03*
X140300000Y-47000000D03*
X139600000Y-48600000D03*
X141900000Y-46600000D03*
X127400000Y-50400000D03*
X127750000Y-60000000D03*
X132400000Y-59800000D03*
X129546235Y-56306160D03*
X133300000Y-47699998D03*
X125600000Y-52000000D03*
X125300000Y-45000000D03*
D27*
X132821417Y-69710653D02*
X132821417Y-70578583D01*
X132821417Y-70578583D02*
X129200000Y-74200000D01*
D28*
X129200000Y-74200000D02*
X123533000Y-74200000D01*
X123533000Y-74200000D02*
X114333000Y-65000000D01*
D29*
X110529759Y-64674669D02*
X114007669Y-64674669D01*
X114007669Y-64674669D02*
X114333000Y-65000000D01*
D30*
X132363917Y-66823153D02*
X132363917Y-69253153D01*
X132363917Y-69253153D02*
X132821417Y-69710653D01*
X131093917Y-66823153D02*
X132363917Y-66823153D01*
X121500000Y-66500000D02*
X120000000Y-66500000D01*
X124500000Y-66500000D02*
X123000000Y-66500000D01*
X129823917Y-68776083D02*
X129823917Y-66823153D01*
X129800000Y-68800000D02*
X129823917Y-68776083D01*
X134650000Y-69300000D02*
X134650000Y-68250000D01*
X134650000Y-68250000D02*
X134600000Y-68200000D01*
X129821417Y-58710653D02*
X129821417Y-58578583D01*
X129821417Y-58578583D02*
X131000000Y-57400000D01*
X131093917Y-61423153D02*
X131093917Y-59983153D01*
X131093917Y-59983153D02*
X129821417Y-58710653D01*
X110529759Y-62134669D02*
X111265331Y-62134669D01*
X111265331Y-62134669D02*
X112800000Y-60600000D01*
X142000000Y-48670000D02*
X141970000Y-48670000D01*
X141970000Y-48670000D02*
X140300000Y-47000000D01*
X142000000Y-48670000D02*
X142000000Y-46700000D01*
X142000000Y-46700000D02*
X141900000Y-46600000D01*
D27*
X127900000Y-52950000D02*
X127900000Y-50900000D01*
X127900000Y-50900000D02*
X127400000Y-50400000D01*
D30*
X127750000Y-60000000D02*
X127750000Y-60619236D01*
X127750000Y-60619236D02*
X128553917Y-61423153D01*
D27*
X125600000Y-53600000D02*
X126850000Y-54850000D01*
X126850000Y-54850000D02*
X127900000Y-54850000D01*
X125600000Y-52000000D02*
X125600000Y-53600000D01*
X127921417Y-58710653D02*
X127921417Y-54871417D01*
X127921417Y-54871417D02*
X127900000Y-54850000D01*
D30*
X132363917Y-61423153D02*
X132363917Y-59836083D01*
X132363917Y-59836083D02*
X132400000Y-59800000D01*
X129555000Y-56297395D02*
X129546235Y-56306160D01*
X129555000Y-54700000D02*
X129555000Y-56297395D01*
X133365000Y-49300000D02*
X133365000Y-47764998D01*
X133365000Y-47764998D02*
X133300000Y-47699998D01*
D27*
X125574669Y-51974669D02*
X125600000Y-52000000D01*
X123229759Y-51974669D02*
X125574669Y-51974669D01*
X117000000Y-41000000D02*
X114460000Y-41000000D01*
X119540000Y-41000000D02*
X117000000Y-41000000D01*
X125300000Y-45000000D02*
X121300000Y-41000000D01*
X121300000Y-41000000D02*
X119540000Y-41000000D01*
D30*
X127564669Y-54514669D02*
X127900000Y-54850000D01*
X128553917Y-61423153D02*
X128553917Y-59343153D01*
X128553917Y-59343153D02*
X127921417Y-58710653D01*
X129555000Y-54700000D02*
X128050000Y-54700000D01*
X128050000Y-54700000D02*
X127900000Y-54850000D01*
X114460000Y-43540000D02*
X114460000Y-43660000D01*
X114460000Y-43660000D02*
X117900000Y-47100000D01*
X122829759Y-62134669D02*
X123229759Y-62134669D01*
X117900000Y-47100000D02*
X117900000Y-57204910D01*
X117900000Y-57204910D02*
X122829759Y-62134669D01*
X122829759Y-59594669D02*
X123229759Y-59594669D01*
X118800000Y-55564910D02*
X122829759Y-59594669D01*
X117000000Y-44900000D02*
X118800000Y-46700000D01*
X118800000Y-46700000D02*
X118800000Y-55564910D01*
X117000000Y-43540000D02*
X117000000Y-44900000D01*
X119540000Y-43540000D02*
X119540000Y-44040000D01*
X119540000Y-44040000D02*
X119700000Y-44200000D01*
X119700000Y-44200000D02*
X119700000Y-53924910D01*
X119700000Y-53924910D02*
X122829759Y-57054669D01*
X122829759Y-57054669D02*
X123229759Y-57054669D01*
X132095000Y-49300000D02*
X132095000Y-48279002D01*
X132095000Y-48279002D02*
X131515998Y-47700000D01*
X123229759Y-49270241D02*
X123229759Y-49434669D01*
X131515998Y-47700000D02*
X124800000Y-47700000D01*
X124800000Y-47700000D02*
X123229759Y-49270241D01*
X133828002Y-46499998D02*
X132600000Y-46499998D01*
X123229759Y-46894669D02*
X132205329Y-46894669D01*
X132205329Y-46894669D02*
X132600000Y-46499998D01*
X134635000Y-49300000D02*
X134635000Y-47306996D01*
X134635000Y-47306996D02*
X133828002Y-46499998D01*
D29*
X110529759Y-51974669D02*
X108594669Y-51974669D01*
X108594669Y-51974669D02*
X104000000Y-47380000D01*
X110529759Y-54514669D02*
X106054669Y-54514669D01*
X106054669Y-54514669D02*
X104000000Y-52460000D01*
X110529759Y-57054669D02*
X104485331Y-57054669D01*
X104485331Y-57054669D02*
X104000000Y-57540000D01*
X110529759Y-59594669D02*
X107025331Y-59594669D01*
X107025331Y-59594669D02*
X104000000Y-62620000D01*
D31*
X142000000Y-58830000D02*
X142000000Y-58800000D01*
X142000000Y-58800000D02*
X139600000Y-56400000D01*
X139600000Y-53900000D02*
X138400000Y-52700000D01*
X139600000Y-56400000D02*
X139600000Y-53900000D01*
X138400000Y-52700000D02*
X132100000Y-52700000D01*
X132100000Y-52700000D02*
X129555000Y-50155000D01*
X129555000Y-50155000D02*
X129555000Y-49300000D01*
X141847600Y-58830000D02*
X142000000Y-58830000D01*
X140200000Y-53700000D02*
X140200000Y-54490000D01*
X140200000Y-54490000D02*
X142000000Y-56290000D01*
X130825000Y-49300000D02*
X130825000Y-50625000D01*
X130825000Y-50625000D02*
X132399989Y-52199989D01*
X132399989Y-52199989D02*
X138699989Y-52199989D01*
X138699989Y-52199989D02*
X140200000Y-53700000D01*
X135905000Y-49300000D02*
X135905000Y-50305000D01*
X135905000Y-50305000D02*
X137299979Y-51699979D01*
X137299979Y-51699979D02*
X139299979Y-51699979D01*
X139299979Y-51699979D02*
X141350000Y-53750000D01*
X137599969Y-51199969D02*
X140673969Y-51199969D01*
X140673969Y-51199969D02*
X140684000Y-51210000D01*
X137175000Y-49300000D02*
X137175000Y-50775000D01*
X137175000Y-50775000D02*
X137599969Y-51199969D01*
X140684000Y-51210000D02*
X142000000Y-51210000D01*
D29*
X142000000Y-61370000D02*
X142000000Y-62200000D01*
X142000000Y-62200000D02*
X141900000Y-62300000D01*
D28*
X138600000Y-65600000D02*
X141900000Y-62300000D01*
X138600000Y-72800000D02*
X138600000Y-65600000D01*
D30*
X123229759Y-54514669D02*
X125014669Y-54514669D01*
X125014669Y-54514669D02*
X126500000Y-56000000D01*
X126500000Y-56000000D02*
X126500000Y-64769236D01*
X126500000Y-64769236D02*
X128553917Y-66823153D01*
D32*
G36*
X146290000Y-44488261D02*
X143775478Y-45326435D01*
X143753314Y-45339069D01*
X143728295Y-45344046D01*
X143633673Y-45407270D01*
X143534807Y-45463628D01*
X143519167Y-45483780D01*
X143497954Y-45497954D01*
X143434733Y-45592572D01*
X143364956Y-45682478D01*
X143358217Y-45707086D01*
X143344046Y-45728295D01*
X143321845Y-45839907D01*
X143291787Y-45949669D01*
X143294977Y-45974977D01*
X143290000Y-46000000D01*
X143290000Y-47713702D01*
X142914320Y-47378046D01*
X142361913Y-47184816D01*
X142127000Y-47329076D01*
X142127000Y-48543000D01*
X142147000Y-48543000D01*
X142147000Y-48797000D01*
X142127000Y-48797000D01*
X142127000Y-48817000D01*
X141873000Y-48817000D01*
X141873000Y-48797000D01*
X140513783Y-48797000D01*
X140392642Y-49029026D01*
X140395291Y-49044791D01*
X140649268Y-49572036D01*
X141065069Y-49943539D01*
X140755585Y-50150330D01*
X140578759Y-50414969D01*
X139278056Y-50414969D01*
X139283327Y-50409698D01*
X139380000Y-50176309D01*
X139380000Y-49585750D01*
X139221250Y-49427000D01*
X138572000Y-49427000D01*
X138572000Y-49447000D01*
X138318000Y-49447000D01*
X138318000Y-49427000D01*
X138298000Y-49427000D01*
X138298000Y-49173000D01*
X138318000Y-49173000D01*
X138318000Y-48073750D01*
X138572000Y-48073750D01*
X138572000Y-49173000D01*
X139221250Y-49173000D01*
X139380000Y-49014250D01*
X139380000Y-48423691D01*
X139333312Y-48310974D01*
X140392642Y-48310974D01*
X140513783Y-48543000D01*
X141873000Y-48543000D01*
X141873000Y-47329076D01*
X141638087Y-47184816D01*
X141085680Y-47378046D01*
X140649268Y-47767964D01*
X140395291Y-48295209D01*
X140392642Y-48310974D01*
X139333312Y-48310974D01*
X139283327Y-48190302D01*
X139104699Y-48011673D01*
X138871310Y-47915000D01*
X138730750Y-47915000D01*
X138572000Y-48073750D01*
X138318000Y-48073750D01*
X138159250Y-47915000D01*
X138018690Y-47915000D01*
X137801972Y-48004768D01*
X137722765Y-47951843D01*
X137475000Y-47902560D01*
X136875000Y-47902560D01*
X136627235Y-47951843D01*
X136540000Y-48010132D01*
X136452765Y-47951843D01*
X136205000Y-47902560D01*
X135605000Y-47902560D01*
X135570000Y-47909522D01*
X135570000Y-47307001D01*
X135570001Y-47306996D01*
X135509201Y-47001341D01*
X135498827Y-46949187D01*
X135296145Y-46645851D01*
X135296142Y-46645849D01*
X134489147Y-45838853D01*
X134185811Y-45636171D01*
X133828002Y-45564998D01*
X132600000Y-45564998D01*
X132242191Y-45636171D01*
X131938855Y-45838853D01*
X131818039Y-45959669D01*
X126086734Y-45959669D01*
X126346371Y-45700485D01*
X126534785Y-45246734D01*
X126535214Y-44755421D01*
X126347592Y-44301343D01*
X126000485Y-43953629D01*
X125758124Y-43852992D01*
X122102566Y-40197434D01*
X121734346Y-39951397D01*
X121300000Y-39865000D01*
X120530870Y-39865000D01*
X120113489Y-39586115D01*
X119540000Y-39472041D01*
X118966511Y-39586115D01*
X118549130Y-39865000D01*
X117990870Y-39865000D01*
X117573489Y-39586115D01*
X117000000Y-39472041D01*
X116426511Y-39586115D01*
X116009130Y-39865000D01*
X115450870Y-39865000D01*
X115033489Y-39586115D01*
X114460000Y-39472041D01*
X113886511Y-39586115D01*
X113400330Y-39910971D01*
X113075474Y-40397152D01*
X112961400Y-40970641D01*
X112961400Y-41029359D01*
X113075474Y-41602848D01*
X113400330Y-42089029D01*
X113671172Y-42270000D01*
X113400330Y-42450971D01*
X113075474Y-42937152D01*
X112961400Y-43510641D01*
X112961400Y-43569359D01*
X113075474Y-44142848D01*
X113400330Y-44629029D01*
X113886511Y-44953885D01*
X114460000Y-45067959D01*
X114531456Y-45053746D01*
X116965000Y-47487290D01*
X116965000Y-57204910D01*
X117036173Y-57562719D01*
X117238855Y-57866055D01*
X121576448Y-62203648D01*
X121656736Y-62607283D01*
X121924450Y-63007946D01*
X122325113Y-63275660D01*
X122797727Y-63369669D01*
X123661791Y-63369669D01*
X124134405Y-63275660D01*
X124535068Y-63007946D01*
X124802782Y-62607283D01*
X124896791Y-62134669D01*
X124802782Y-61662055D01*
X124535068Y-61261392D01*
X124134405Y-60993678D01*
X123661791Y-60899669D01*
X122917049Y-60899669D01*
X122847049Y-60829669D01*
X123661791Y-60829669D01*
X124134405Y-60735660D01*
X124535068Y-60467946D01*
X124802782Y-60067283D01*
X124896791Y-59594669D01*
X124802782Y-59122055D01*
X124535068Y-58721392D01*
X124134405Y-58453678D01*
X123661791Y-58359669D01*
X122917049Y-58359669D01*
X122847049Y-58289669D01*
X123661791Y-58289669D01*
X124134405Y-58195660D01*
X124535068Y-57927946D01*
X124802782Y-57527283D01*
X124896791Y-57054669D01*
X124802782Y-56582055D01*
X124535068Y-56181392D01*
X124134405Y-55913678D01*
X123661791Y-55819669D01*
X122917049Y-55819669D01*
X122847049Y-55749669D01*
X123661791Y-55749669D01*
X124134405Y-55655660D01*
X124442693Y-55449669D01*
X124627379Y-55449669D01*
X125565000Y-56387290D01*
X125565000Y-64769236D01*
X125636173Y-65127045D01*
X125838855Y-65430381D01*
X127606477Y-67198003D01*
X127606477Y-67598153D01*
X127655760Y-67845918D01*
X127796108Y-68055962D01*
X128006152Y-68196310D01*
X128253917Y-68245593D01*
X128853917Y-68245593D01*
X129101682Y-68196310D01*
X129180889Y-68143385D01*
X129397607Y-68233153D01*
X129538167Y-68233153D01*
X129696917Y-68074403D01*
X129696917Y-66950153D01*
X129676917Y-66950153D01*
X129676917Y-66696153D01*
X129696917Y-66696153D01*
X129696917Y-65821903D01*
X129744417Y-65774403D01*
X129744417Y-64837653D01*
X128807667Y-64837653D01*
X128648917Y-64996403D01*
X128648917Y-65400713D01*
X128453767Y-65400713D01*
X127435000Y-64381946D01*
X127435000Y-63821403D01*
X128648917Y-63821403D01*
X128648917Y-64424903D01*
X128807667Y-64583653D01*
X128846391Y-64583653D01*
X128924218Y-64661480D01*
X129157607Y-64758153D01*
X129585667Y-64758153D01*
X129744417Y-64599403D01*
X129744417Y-63821403D01*
X129823917Y-63821403D01*
X129823917Y-64424903D01*
X129982667Y-64583653D01*
X129998417Y-64583653D01*
X129998417Y-64599403D01*
X130157167Y-64758153D01*
X130760667Y-64758153D01*
X130919417Y-64599403D01*
X130919417Y-64583653D01*
X130935167Y-64583653D01*
X131093917Y-64424903D01*
X131093917Y-63821403D01*
X130935167Y-63662653D01*
X130919417Y-63662653D01*
X130919417Y-63646903D01*
X131173417Y-63646903D01*
X131173417Y-64599403D01*
X131332167Y-64758153D01*
X131760227Y-64758153D01*
X131993616Y-64661480D01*
X132071443Y-64583653D01*
X132110167Y-64583653D01*
X132268917Y-64424903D01*
X132268917Y-63821403D01*
X132110167Y-63662653D01*
X132071443Y-63662653D01*
X131993616Y-63584826D01*
X131760227Y-63488153D01*
X131332167Y-63488153D01*
X131173417Y-63646903D01*
X130919417Y-63646903D01*
X130760667Y-63488153D01*
X130157167Y-63488153D01*
X129998417Y-63646903D01*
X129998417Y-63662653D01*
X129982667Y-63662653D01*
X129823917Y-63821403D01*
X129744417Y-63821403D01*
X129744417Y-63646903D01*
X129585667Y-63488153D01*
X129157607Y-63488153D01*
X128924218Y-63584826D01*
X128846391Y-63662653D01*
X128807667Y-63662653D01*
X128648917Y-63821403D01*
X127435000Y-63821403D01*
X127435000Y-61626526D01*
X127606477Y-61798003D01*
X127606477Y-62198153D01*
X127655760Y-62445918D01*
X127796108Y-62655962D01*
X128006152Y-62796310D01*
X128253917Y-62845593D01*
X128648917Y-62845593D01*
X128648917Y-63249903D01*
X128807667Y-63408653D01*
X129744417Y-63408653D01*
X129744417Y-63388653D01*
X129962667Y-63388653D01*
X129982667Y-63408653D01*
X130935167Y-63408653D01*
X131093917Y-63249903D01*
X131093917Y-62821844D01*
X130997244Y-62588455D01*
X130966917Y-62558128D01*
X130966917Y-61550153D01*
X130946917Y-61550153D01*
X130946917Y-61296153D01*
X130966917Y-61296153D01*
X130966917Y-60171903D01*
X130839593Y-60044579D01*
X131164786Y-60044579D01*
X131220917Y-60180426D01*
X131220917Y-61296153D01*
X131240917Y-61296153D01*
X131240917Y-61550153D01*
X131220917Y-61550153D01*
X131220917Y-62424403D01*
X131173417Y-62471903D01*
X131173417Y-63408653D01*
X132110167Y-63408653D01*
X132268917Y-63249903D01*
X132268917Y-62845593D01*
X132663917Y-62845593D01*
X132911682Y-62796310D01*
X133121726Y-62655962D01*
X133262074Y-62445918D01*
X133311357Y-62198153D01*
X133311357Y-60648153D01*
X133309218Y-60637399D01*
X133446371Y-60500485D01*
X133634785Y-60046734D01*
X133635214Y-59555421D01*
X133447592Y-59101343D01*
X133100485Y-58753629D01*
X132646734Y-58565215D01*
X132155421Y-58564786D01*
X131701343Y-58752408D01*
X131353629Y-59099515D01*
X131165215Y-59553266D01*
X131164786Y-60044579D01*
X130839593Y-60044579D01*
X130808167Y-60013153D01*
X130667607Y-60013153D01*
X130450889Y-60102921D01*
X130371682Y-60049996D01*
X130123917Y-60000713D01*
X129523917Y-60000713D01*
X129488917Y-60007675D01*
X129488917Y-59720653D01*
X129535667Y-59720653D01*
X129694417Y-59561903D01*
X129694417Y-58837653D01*
X129948417Y-58837653D01*
X129948417Y-59561903D01*
X130107167Y-59720653D01*
X130547726Y-59720653D01*
X130781115Y-59623980D01*
X130959744Y-59445352D01*
X131056417Y-59211963D01*
X131056417Y-58996403D01*
X130897667Y-58837653D01*
X129948417Y-58837653D01*
X129694417Y-58837653D01*
X129674417Y-58837653D01*
X129674417Y-58583653D01*
X129694417Y-58583653D01*
X129694417Y-57859403D01*
X129948417Y-57859403D01*
X129948417Y-58583653D01*
X130897667Y-58583653D01*
X131056417Y-58424903D01*
X131056417Y-58209343D01*
X130959744Y-57975954D01*
X130781115Y-57797326D01*
X130547726Y-57700653D01*
X130107167Y-57700653D01*
X129948417Y-57859403D01*
X129694417Y-57859403D01*
X129535667Y-57700653D01*
X129095108Y-57700653D01*
X129056417Y-57716679D01*
X129056417Y-57440008D01*
X129299501Y-57540945D01*
X129790814Y-57541374D01*
X130244892Y-57353752D01*
X130592606Y-57006645D01*
X130781020Y-56552894D01*
X130781418Y-56097440D01*
X131125000Y-56097440D01*
X131372765Y-56048157D01*
X131460000Y-55989868D01*
X131547235Y-56048157D01*
X131795000Y-56097440D01*
X132395000Y-56097440D01*
X132642765Y-56048157D01*
X132730000Y-55989868D01*
X132817235Y-56048157D01*
X133065000Y-56097440D01*
X133665000Y-56097440D01*
X133912765Y-56048157D01*
X133991972Y-55995232D01*
X134208690Y-56085000D01*
X134349250Y-56085000D01*
X134508000Y-55926250D01*
X134508000Y-54827000D01*
X134488000Y-54827000D01*
X134488000Y-54573000D01*
X134508000Y-54573000D01*
X134508000Y-54553000D01*
X134762000Y-54553000D01*
X134762000Y-54573000D01*
X134782000Y-54573000D01*
X134782000Y-54827000D01*
X134762000Y-54827000D01*
X134762000Y-55926250D01*
X134920750Y-56085000D01*
X135061310Y-56085000D01*
X135278028Y-55995232D01*
X135357235Y-56048157D01*
X135605000Y-56097440D01*
X136205000Y-56097440D01*
X136452765Y-56048157D01*
X136540000Y-55989868D01*
X136627235Y-56048157D01*
X136875000Y-56097440D01*
X137475000Y-56097440D01*
X137722765Y-56048157D01*
X137810000Y-55989868D01*
X137897235Y-56048157D01*
X138145000Y-56097440D01*
X138745000Y-56097440D01*
X138815000Y-56083516D01*
X138815000Y-56400000D01*
X138874755Y-56700407D01*
X139044921Y-56955079D01*
X140416730Y-58326888D01*
X140316655Y-58830000D01*
X140430729Y-59403489D01*
X140755585Y-59889670D01*
X140772566Y-59901016D01*
X140736235Y-59908243D01*
X140526191Y-60048591D01*
X140385843Y-60258635D01*
X140336560Y-60506400D01*
X140336560Y-60844094D01*
X137090327Y-64090327D01*
X136627517Y-64782971D01*
X136465000Y-65600000D01*
X136465000Y-72800000D01*
X136627517Y-73617029D01*
X137090327Y-74309673D01*
X137782971Y-74772483D01*
X138600000Y-74935000D01*
X139417029Y-74772483D01*
X140109673Y-74309673D01*
X140572483Y-73617029D01*
X140735000Y-72800000D01*
X140735000Y-66484346D01*
X143290000Y-63929346D01*
X143290000Y-64000000D01*
X143294977Y-64025023D01*
X143291787Y-64050331D01*
X143321845Y-64160093D01*
X143344046Y-64271705D01*
X143358217Y-64292914D01*
X143364956Y-64317522D01*
X143434733Y-64407428D01*
X143497954Y-64502046D01*
X143519167Y-64516220D01*
X143534807Y-64536372D01*
X143633673Y-64592730D01*
X143728295Y-64655954D01*
X143753314Y-64660931D01*
X143775478Y-64673565D01*
X146290000Y-65511739D01*
X146290000Y-79290000D01*
X97710000Y-79290000D01*
X97710000Y-76442619D01*
X98764613Y-76442619D01*
X99104155Y-77264372D01*
X99732321Y-77893636D01*
X100553481Y-78234611D01*
X101442619Y-78235387D01*
X102264372Y-77895845D01*
X102893636Y-77267679D01*
X103234611Y-76446519D01*
X103234614Y-76442619D01*
X140764613Y-76442619D01*
X141104155Y-77264372D01*
X141732321Y-77893636D01*
X142553481Y-78234611D01*
X143442619Y-78235387D01*
X144264372Y-77895845D01*
X144893636Y-77267679D01*
X145234611Y-76446519D01*
X145235387Y-75557381D01*
X144895845Y-74735628D01*
X144267679Y-74106364D01*
X143446519Y-73765389D01*
X142557381Y-73764613D01*
X141735628Y-74104155D01*
X141106364Y-74732321D01*
X140765389Y-75553481D01*
X140764613Y-76442619D01*
X103234614Y-76442619D01*
X103235387Y-75557381D01*
X102895845Y-74735628D01*
X102267679Y-74106364D01*
X101446519Y-73765389D01*
X100557381Y-73764613D01*
X99735628Y-74104155D01*
X99106364Y-74732321D01*
X98765389Y-75553481D01*
X98764613Y-76442619D01*
X97710000Y-76442619D01*
X97710000Y-66379981D01*
X100393837Y-64590756D01*
X100443596Y-64541101D01*
X100502046Y-64502046D01*
X100540693Y-64444206D01*
X100589930Y-64395072D01*
X100616899Y-64330155D01*
X100655954Y-64271705D01*
X100669525Y-64203482D01*
X100696212Y-64139243D01*
X100696285Y-64068948D01*
X100710000Y-64000000D01*
X100710000Y-61120130D01*
X101852690Y-61120130D01*
X101852690Y-64119870D01*
X101901973Y-64367635D01*
X102042321Y-64577679D01*
X102252365Y-64718027D01*
X102500130Y-64767310D01*
X105499870Y-64767310D01*
X105747635Y-64718027D01*
X105812524Y-64674669D01*
X108862727Y-64674669D01*
X108956736Y-65147283D01*
X109002346Y-65215543D01*
X109019216Y-65300356D01*
X109373639Y-65830789D01*
X109904072Y-66185212D01*
X110529759Y-66309669D01*
X112689689Y-66309669D01*
X112823327Y-66509673D01*
X122023327Y-75709673D01*
X122715971Y-76172483D01*
X123533000Y-76335000D01*
X129200000Y-76335000D01*
X130017029Y-76172483D01*
X130709673Y-75709673D01*
X131172483Y-75017029D01*
X131335000Y-74200000D01*
X131247089Y-73758043D01*
X133623983Y-71381149D01*
X133870020Y-71012929D01*
X133956417Y-70578583D01*
X133956417Y-70310000D01*
X134364250Y-70310000D01*
X134523000Y-70151250D01*
X134523000Y-69427000D01*
X134777000Y-69427000D01*
X134777000Y-70151250D01*
X134935750Y-70310000D01*
X135376309Y-70310000D01*
X135609698Y-70213327D01*
X135788327Y-70034699D01*
X135885000Y-69801310D01*
X135885000Y-69585750D01*
X135726250Y-69427000D01*
X134777000Y-69427000D01*
X134523000Y-69427000D01*
X134503000Y-69427000D01*
X134503000Y-69173000D01*
X134523000Y-69173000D01*
X134523000Y-68448750D01*
X134777000Y-68448750D01*
X134777000Y-69173000D01*
X135726250Y-69173000D01*
X135885000Y-69014250D01*
X135885000Y-68798690D01*
X135788327Y-68565301D01*
X135609698Y-68386673D01*
X135376309Y-68290000D01*
X134935750Y-68290000D01*
X134777000Y-68448750D01*
X134523000Y-68448750D01*
X134364250Y-68290000D01*
X133923691Y-68290000D01*
X133690302Y-68386673D01*
X133689102Y-68387873D01*
X133597765Y-68326843D01*
X133350000Y-68277560D01*
X133298917Y-68277560D01*
X133298917Y-67660694D01*
X133311357Y-67598153D01*
X133311357Y-66048153D01*
X133262074Y-65800388D01*
X133121726Y-65590344D01*
X132911682Y-65449996D01*
X132663917Y-65400713D01*
X132268917Y-65400713D01*
X132268917Y-64996403D01*
X132110167Y-64837653D01*
X131173417Y-64837653D01*
X131173417Y-64857653D01*
X130955167Y-64857653D01*
X130935167Y-64837653D01*
X129982667Y-64837653D01*
X129823917Y-64996403D01*
X129823917Y-65424462D01*
X129920590Y-65657851D01*
X129950917Y-65688178D01*
X129950917Y-66696153D01*
X129970917Y-66696153D01*
X129970917Y-66950153D01*
X129950917Y-66950153D01*
X129950917Y-68074403D01*
X130109667Y-68233153D01*
X130250227Y-68233153D01*
X130466945Y-68143385D01*
X130546152Y-68196310D01*
X130793917Y-68245593D01*
X131393917Y-68245593D01*
X131428917Y-68238631D01*
X131428917Y-69253153D01*
X131500090Y-69610962D01*
X131502560Y-69614659D01*
X131502560Y-69675000D01*
X131551843Y-69922765D01*
X131680122Y-70114746D01*
X129641957Y-72152911D01*
X129200000Y-72065000D01*
X124417346Y-72065000D01*
X118722696Y-66370350D01*
X119174965Y-66535516D01*
X119780700Y-66509723D01*
X120220533Y-66327539D01*
X120305591Y-66072196D01*
X119413000Y-65179605D01*
X119398858Y-65193748D01*
X119219253Y-65014143D01*
X119233395Y-65000000D01*
X119592605Y-65000000D01*
X120485196Y-65892591D01*
X120740539Y-65807533D01*
X120948516Y-65238035D01*
X120938052Y-64992278D01*
X121636297Y-64992278D01*
X121640167Y-65029950D01*
X121866679Y-65458143D01*
X122239812Y-65767059D01*
X122702759Y-65909669D01*
X123102759Y-65909669D01*
X123102759Y-64801669D01*
X123356759Y-64801669D01*
X123356759Y-65909669D01*
X123756759Y-65909669D01*
X124219706Y-65767059D01*
X124592839Y-65458143D01*
X124819351Y-65029950D01*
X124823221Y-64992278D01*
X124698490Y-64801669D01*
X123356759Y-64801669D01*
X123102759Y-64801669D01*
X121761028Y-64801669D01*
X121636297Y-64992278D01*
X120938052Y-64992278D01*
X120922723Y-64632300D01*
X120808716Y-64357060D01*
X121636297Y-64357060D01*
X121761028Y-64547669D01*
X123102759Y-64547669D01*
X123102759Y-63439669D01*
X123356759Y-63439669D01*
X123356759Y-64547669D01*
X124698490Y-64547669D01*
X124823221Y-64357060D01*
X124819351Y-64319388D01*
X124592839Y-63891195D01*
X124219706Y-63582279D01*
X123756759Y-63439669D01*
X123356759Y-63439669D01*
X123102759Y-63439669D01*
X122702759Y-63439669D01*
X122239812Y-63582279D01*
X121866679Y-63891195D01*
X121640167Y-64319388D01*
X121636297Y-64357060D01*
X120808716Y-64357060D01*
X120740539Y-64192467D01*
X120485196Y-64107409D01*
X119592605Y-65000000D01*
X119233395Y-65000000D01*
X118340804Y-64107409D01*
X118085461Y-64192467D01*
X117877484Y-64761965D01*
X117903277Y-65367700D01*
X118032840Y-65680494D01*
X116280150Y-63927804D01*
X118520409Y-63927804D01*
X119413000Y-64820395D01*
X120305591Y-63927804D01*
X120220533Y-63672461D01*
X119651035Y-63464484D01*
X119045300Y-63490277D01*
X118605467Y-63672461D01*
X118520409Y-63927804D01*
X116280150Y-63927804D01*
X115842673Y-63490327D01*
X115150029Y-63027517D01*
X114333000Y-62865000D01*
X113515971Y-63027517D01*
X113497784Y-63039669D01*
X111746050Y-63039669D01*
X111892839Y-62918143D01*
X112119351Y-62489950D01*
X112123221Y-62452278D01*
X111998490Y-62261669D01*
X110656759Y-62261669D01*
X110656759Y-62281669D01*
X110402759Y-62281669D01*
X110402759Y-62261669D01*
X109061028Y-62261669D01*
X108936297Y-62452278D01*
X108940167Y-62489950D01*
X109166679Y-62918143D01*
X109539812Y-63227059D01*
X109724664Y-63284002D01*
X109373639Y-63518549D01*
X109019216Y-64048982D01*
X109002346Y-64133795D01*
X108956736Y-64202055D01*
X108862727Y-64674669D01*
X105812524Y-64674669D01*
X105957679Y-64577679D01*
X106098027Y-64367635D01*
X106147310Y-64119870D01*
X106147310Y-62784930D01*
X107702570Y-61229669D01*
X109313468Y-61229669D01*
X109166679Y-61351195D01*
X108940167Y-61779388D01*
X108936297Y-61817060D01*
X109061028Y-62007669D01*
X110402759Y-62007669D01*
X110402759Y-61987669D01*
X110656759Y-61987669D01*
X110656759Y-62007669D01*
X111998490Y-62007669D01*
X112123221Y-61817060D01*
X112119351Y-61779388D01*
X111892839Y-61351195D01*
X111519706Y-61042279D01*
X111334854Y-60985336D01*
X111685879Y-60750789D01*
X112040302Y-60220356D01*
X112057172Y-60135543D01*
X112102782Y-60067283D01*
X112196791Y-59594669D01*
X112102782Y-59122055D01*
X112057172Y-59053795D01*
X112040302Y-58968982D01*
X111685879Y-58438549D01*
X111515445Y-58324669D01*
X111685879Y-58210789D01*
X112040302Y-57680356D01*
X112057172Y-57595543D01*
X112102782Y-57527283D01*
X112196791Y-57054669D01*
X112102782Y-56582055D01*
X112057172Y-56513795D01*
X112040302Y-56428982D01*
X111685879Y-55898549D01*
X111515445Y-55784669D01*
X111685879Y-55670789D01*
X112040302Y-55140356D01*
X112057172Y-55055543D01*
X112102782Y-54987283D01*
X112196791Y-54514669D01*
X112102782Y-54042055D01*
X112057172Y-53973795D01*
X112040302Y-53888982D01*
X111685879Y-53358549D01*
X111515445Y-53244669D01*
X111685879Y-53130789D01*
X112040302Y-52600356D01*
X112057172Y-52515543D01*
X112102782Y-52447283D01*
X112196791Y-51974669D01*
X112102782Y-51502055D01*
X112057172Y-51433795D01*
X112040302Y-51348982D01*
X111685879Y-50818549D01*
X111348070Y-50592833D01*
X111434405Y-50575660D01*
X111835068Y-50307946D01*
X112102782Y-49907283D01*
X112196791Y-49434669D01*
X112102782Y-48962055D01*
X111835068Y-48561392D01*
X111434405Y-48293678D01*
X110961791Y-48199669D01*
X110097727Y-48199669D01*
X109625113Y-48293678D01*
X109224450Y-48561392D01*
X108956736Y-48962055D01*
X108862727Y-49434669D01*
X108956736Y-49907283D01*
X109192765Y-50260526D01*
X106144518Y-47212278D01*
X108936297Y-47212278D01*
X108940167Y-47249950D01*
X109166679Y-47678143D01*
X109539812Y-47987059D01*
X110002759Y-48129669D01*
X110402759Y-48129669D01*
X110402759Y-47021669D01*
X110656759Y-47021669D01*
X110656759Y-48129669D01*
X111056759Y-48129669D01*
X111519706Y-47987059D01*
X111892839Y-47678143D01*
X112119351Y-47249950D01*
X112123221Y-47212278D01*
X111998490Y-47021669D01*
X110656759Y-47021669D01*
X110402759Y-47021669D01*
X109061028Y-47021669D01*
X108936297Y-47212278D01*
X106144518Y-47212278D01*
X106135026Y-47202786D01*
X106135240Y-46957211D01*
X105978165Y-46577060D01*
X108936297Y-46577060D01*
X109061028Y-46767669D01*
X110402759Y-46767669D01*
X110402759Y-45659669D01*
X110656759Y-45659669D01*
X110656759Y-46767669D01*
X111998490Y-46767669D01*
X112123221Y-46577060D01*
X112119351Y-46539388D01*
X111892839Y-46111195D01*
X111519706Y-45802279D01*
X111056759Y-45659669D01*
X110656759Y-45659669D01*
X110402759Y-45659669D01*
X110002759Y-45659669D01*
X109539812Y-45802279D01*
X109166679Y-46111195D01*
X108940167Y-46539388D01*
X108936297Y-46577060D01*
X105978165Y-46577060D01*
X105810910Y-46172273D01*
X105210886Y-45571200D01*
X104426515Y-45245501D01*
X103577211Y-45244760D01*
X102792273Y-45569090D01*
X102191200Y-46169114D01*
X101865501Y-46953485D01*
X101864760Y-47802789D01*
X102189090Y-48587727D01*
X102789114Y-49188800D01*
X103573485Y-49514499D01*
X103822476Y-49514716D01*
X104780070Y-50472310D01*
X104426515Y-50325501D01*
X103577211Y-50324760D01*
X102792273Y-50649090D01*
X102191200Y-51249114D01*
X101865501Y-52033485D01*
X101864760Y-52882789D01*
X102189090Y-53667727D01*
X102789114Y-54268800D01*
X103573485Y-54594499D01*
X103822477Y-54594716D01*
X104647430Y-55419669D01*
X104485336Y-55419669D01*
X104485331Y-55419668D01*
X104468632Y-55422990D01*
X104426515Y-55405501D01*
X103577211Y-55404760D01*
X102792273Y-55729090D01*
X102191200Y-56329114D01*
X101865501Y-57113485D01*
X101864760Y-57962789D01*
X102189090Y-58747727D01*
X102789114Y-59348800D01*
X103573485Y-59674499D01*
X104422789Y-59675240D01*
X104780200Y-59527561D01*
X103835070Y-60472690D01*
X102500130Y-60472690D01*
X102252365Y-60521973D01*
X102042321Y-60662321D01*
X101901973Y-60872365D01*
X101852690Y-61120130D01*
X100710000Y-61120130D01*
X100710000Y-46000000D01*
X100705023Y-45974980D01*
X100708214Y-45949669D01*
X100678154Y-45839899D01*
X100655954Y-45728295D01*
X100641783Y-45707086D01*
X100635044Y-45682478D01*
X100565267Y-45592572D01*
X100502046Y-45497954D01*
X100480833Y-45483780D01*
X100465193Y-45463628D01*
X100366327Y-45407270D01*
X100271705Y-45344046D01*
X100246686Y-45339069D01*
X100224522Y-45326435D01*
X97710000Y-44488261D01*
X97710000Y-34442619D01*
X98764613Y-34442619D01*
X99104155Y-35264372D01*
X99732321Y-35893636D01*
X100553481Y-36234611D01*
X101442619Y-36235387D01*
X102264372Y-35895845D01*
X102893636Y-35267679D01*
X103234611Y-34446519D01*
X103234614Y-34442619D01*
X140764613Y-34442619D01*
X141104155Y-35264372D01*
X141732321Y-35893636D01*
X142553481Y-36234611D01*
X143442619Y-36235387D01*
X144264372Y-35895845D01*
X144893636Y-35267679D01*
X145234611Y-34446519D01*
X145235387Y-33557381D01*
X144895845Y-32735628D01*
X144267679Y-32106364D01*
X143446519Y-31765389D01*
X142557381Y-31764613D01*
X141735628Y-32104155D01*
X141106364Y-32732321D01*
X140765389Y-33553481D01*
X140764613Y-34442619D01*
X103234614Y-34442619D01*
X103235387Y-33557381D01*
X102895845Y-32735628D01*
X102267679Y-32106364D01*
X101446519Y-31765389D01*
X100557381Y-31764613D01*
X99735628Y-32104155D01*
X99106364Y-32732321D01*
X98765389Y-33553481D01*
X98764613Y-34442619D01*
X97710000Y-34442619D01*
X97710000Y-30710000D01*
X146290000Y-30710000D01*
X146290000Y-44488261D01*
X146290000Y-44488261D01*
G37*
X146290000Y-44488261D02*
X143775478Y-45326435D01*
X143753314Y-45339069D01*
X143728295Y-45344046D01*
X143633673Y-45407270D01*
X143534807Y-45463628D01*
X143519167Y-45483780D01*
X143497954Y-45497954D01*
X143434733Y-45592572D01*
X143364956Y-45682478D01*
X143358217Y-45707086D01*
X143344046Y-45728295D01*
X143321845Y-45839907D01*
X143291787Y-45949669D01*
X143294977Y-45974977D01*
X143290000Y-46000000D01*
X143290000Y-47713702D01*
X142914320Y-47378046D01*
X142361913Y-47184816D01*
X142127000Y-47329076D01*
X142127000Y-48543000D01*
X142147000Y-48543000D01*
X142147000Y-48797000D01*
X142127000Y-48797000D01*
X142127000Y-48817000D01*
X141873000Y-48817000D01*
X141873000Y-48797000D01*
X140513783Y-48797000D01*
X140392642Y-49029026D01*
X140395291Y-49044791D01*
X140649268Y-49572036D01*
X141065069Y-49943539D01*
X140755585Y-50150330D01*
X140578759Y-50414969D01*
X139278056Y-50414969D01*
X139283327Y-50409698D01*
X139380000Y-50176309D01*
X139380000Y-49585750D01*
X139221250Y-49427000D01*
X138572000Y-49427000D01*
X138572000Y-49447000D01*
X138318000Y-49447000D01*
X138318000Y-49427000D01*
X138298000Y-49427000D01*
X138298000Y-49173000D01*
X138318000Y-49173000D01*
X138318000Y-48073750D01*
X138572000Y-48073750D01*
X138572000Y-49173000D01*
X139221250Y-49173000D01*
X139380000Y-49014250D01*
X139380000Y-48423691D01*
X139333312Y-48310974D01*
X140392642Y-48310974D01*
X140513783Y-48543000D01*
X141873000Y-48543000D01*
X141873000Y-47329076D01*
X141638087Y-47184816D01*
X141085680Y-47378046D01*
X140649268Y-47767964D01*
X140395291Y-48295209D01*
X140392642Y-48310974D01*
X139333312Y-48310974D01*
X139283327Y-48190302D01*
X139104699Y-48011673D01*
X138871310Y-47915000D01*
X138730750Y-47915000D01*
X138572000Y-48073750D01*
X138318000Y-48073750D01*
X138159250Y-47915000D01*
X138018690Y-47915000D01*
X137801972Y-48004768D01*
X137722765Y-47951843D01*
X137475000Y-47902560D01*
X136875000Y-47902560D01*
X136627235Y-47951843D01*
X136540000Y-48010132D01*
X136452765Y-47951843D01*
X136205000Y-47902560D01*
X135605000Y-47902560D01*
X135570000Y-47909522D01*
X135570000Y-47307001D01*
X135570001Y-47306996D01*
X135509201Y-47001341D01*
X135498827Y-46949187D01*
X135296145Y-46645851D01*
X135296142Y-46645849D01*
X134489147Y-45838853D01*
X134185811Y-45636171D01*
X133828002Y-45564998D01*
X132600000Y-45564998D01*
X132242191Y-45636171D01*
X131938855Y-45838853D01*
X131818039Y-45959669D01*
X126086734Y-45959669D01*
X126346371Y-45700485D01*
X126534785Y-45246734D01*
X126535214Y-44755421D01*
X126347592Y-44301343D01*
X126000485Y-43953629D01*
X125758124Y-43852992D01*
X122102566Y-40197434D01*
X121734346Y-39951397D01*
X121300000Y-39865000D01*
X120530870Y-39865000D01*
X120113489Y-39586115D01*
X119540000Y-39472041D01*
X118966511Y-39586115D01*
X118549130Y-39865000D01*
X117990870Y-39865000D01*
X117573489Y-39586115D01*
X117000000Y-39472041D01*
X116426511Y-39586115D01*
X116009130Y-39865000D01*
X115450870Y-39865000D01*
X115033489Y-39586115D01*
X114460000Y-39472041D01*
X113886511Y-39586115D01*
X113400330Y-39910971D01*
X113075474Y-40397152D01*
X112961400Y-40970641D01*
X112961400Y-41029359D01*
X113075474Y-41602848D01*
X113400330Y-42089029D01*
X113671172Y-42270000D01*
X113400330Y-42450971D01*
X113075474Y-42937152D01*
X112961400Y-43510641D01*
X112961400Y-43569359D01*
X113075474Y-44142848D01*
X113400330Y-44629029D01*
X113886511Y-44953885D01*
X114460000Y-45067959D01*
X114531456Y-45053746D01*
X116965000Y-47487290D01*
X116965000Y-57204910D01*
X117036173Y-57562719D01*
X117238855Y-57866055D01*
X121576448Y-62203648D01*
X121656736Y-62607283D01*
X121924450Y-63007946D01*
X122325113Y-63275660D01*
X122797727Y-63369669D01*
X123661791Y-63369669D01*
X124134405Y-63275660D01*
X124535068Y-63007946D01*
X124802782Y-62607283D01*
X124896791Y-62134669D01*
X124802782Y-61662055D01*
X124535068Y-61261392D01*
X124134405Y-60993678D01*
X123661791Y-60899669D01*
X122917049Y-60899669D01*
X122847049Y-60829669D01*
X123661791Y-60829669D01*
X124134405Y-60735660D01*
X124535068Y-60467946D01*
X124802782Y-60067283D01*
X124896791Y-59594669D01*
X124802782Y-59122055D01*
X124535068Y-58721392D01*
X124134405Y-58453678D01*
X123661791Y-58359669D01*
X122917049Y-58359669D01*
X122847049Y-58289669D01*
X123661791Y-58289669D01*
X124134405Y-58195660D01*
X124535068Y-57927946D01*
X124802782Y-57527283D01*
X124896791Y-57054669D01*
X124802782Y-56582055D01*
X124535068Y-56181392D01*
X124134405Y-55913678D01*
X123661791Y-55819669D01*
X122917049Y-55819669D01*
X122847049Y-55749669D01*
X123661791Y-55749669D01*
X124134405Y-55655660D01*
X124442693Y-55449669D01*
X124627379Y-55449669D01*
X125565000Y-56387290D01*
X125565000Y-64769236D01*
X125636173Y-65127045D01*
X125838855Y-65430381D01*
X127606477Y-67198003D01*
X127606477Y-67598153D01*
X127655760Y-67845918D01*
X127796108Y-68055962D01*
X128006152Y-68196310D01*
X128253917Y-68245593D01*
X128853917Y-68245593D01*
X129101682Y-68196310D01*
X129180889Y-68143385D01*
X129397607Y-68233153D01*
X129538167Y-68233153D01*
X129696917Y-68074403D01*
X129696917Y-66950153D01*
X129676917Y-66950153D01*
X129676917Y-66696153D01*
X129696917Y-66696153D01*
X129696917Y-65821903D01*
X129744417Y-65774403D01*
X129744417Y-64837653D01*
X128807667Y-64837653D01*
X128648917Y-64996403D01*
X128648917Y-65400713D01*
X128453767Y-65400713D01*
X127435000Y-64381946D01*
X127435000Y-63821403D01*
X128648917Y-63821403D01*
X128648917Y-64424903D01*
X128807667Y-64583653D01*
X128846391Y-64583653D01*
X128924218Y-64661480D01*
X129157607Y-64758153D01*
X129585667Y-64758153D01*
X129744417Y-64599403D01*
X129744417Y-63821403D01*
X129823917Y-63821403D01*
X129823917Y-64424903D01*
X129982667Y-64583653D01*
X129998417Y-64583653D01*
X129998417Y-64599403D01*
X130157167Y-64758153D01*
X130760667Y-64758153D01*
X130919417Y-64599403D01*
X130919417Y-64583653D01*
X130935167Y-64583653D01*
X131093917Y-64424903D01*
X131093917Y-63821403D01*
X130935167Y-63662653D01*
X130919417Y-63662653D01*
X130919417Y-63646903D01*
X131173417Y-63646903D01*
X131173417Y-64599403D01*
X131332167Y-64758153D01*
X131760227Y-64758153D01*
X131993616Y-64661480D01*
X132071443Y-64583653D01*
X132110167Y-64583653D01*
X132268917Y-64424903D01*
X132268917Y-63821403D01*
X132110167Y-63662653D01*
X132071443Y-63662653D01*
X131993616Y-63584826D01*
X131760227Y-63488153D01*
X131332167Y-63488153D01*
X131173417Y-63646903D01*
X130919417Y-63646903D01*
X130760667Y-63488153D01*
X130157167Y-63488153D01*
X129998417Y-63646903D01*
X129998417Y-63662653D01*
X129982667Y-63662653D01*
X129823917Y-63821403D01*
X129744417Y-63821403D01*
X129744417Y-63646903D01*
X129585667Y-63488153D01*
X129157607Y-63488153D01*
X128924218Y-63584826D01*
X128846391Y-63662653D01*
X128807667Y-63662653D01*
X128648917Y-63821403D01*
X127435000Y-63821403D01*
X127435000Y-61626526D01*
X127606477Y-61798003D01*
X127606477Y-62198153D01*
X127655760Y-62445918D01*
X127796108Y-62655962D01*
X128006152Y-62796310D01*
X128253917Y-62845593D01*
X128648917Y-62845593D01*
X128648917Y-63249903D01*
X128807667Y-63408653D01*
X129744417Y-63408653D01*
X129744417Y-63388653D01*
X129962667Y-63388653D01*
X129982667Y-63408653D01*
X130935167Y-63408653D01*
X131093917Y-63249903D01*
X131093917Y-62821844D01*
X130997244Y-62588455D01*
X130966917Y-62558128D01*
X130966917Y-61550153D01*
X130946917Y-61550153D01*
X130946917Y-61296153D01*
X130966917Y-61296153D01*
X130966917Y-60171903D01*
X130839593Y-60044579D01*
X131164786Y-60044579D01*
X131220917Y-60180426D01*
X131220917Y-61296153D01*
X131240917Y-61296153D01*
X131240917Y-61550153D01*
X131220917Y-61550153D01*
X131220917Y-62424403D01*
X131173417Y-62471903D01*
X131173417Y-63408653D01*
X132110167Y-63408653D01*
X132268917Y-63249903D01*
X132268917Y-62845593D01*
X132663917Y-62845593D01*
X132911682Y-62796310D01*
X133121726Y-62655962D01*
X133262074Y-62445918D01*
X133311357Y-62198153D01*
X133311357Y-60648153D01*
X133309218Y-60637399D01*
X133446371Y-60500485D01*
X133634785Y-60046734D01*
X133635214Y-59555421D01*
X133447592Y-59101343D01*
X133100485Y-58753629D01*
X132646734Y-58565215D01*
X132155421Y-58564786D01*
X131701343Y-58752408D01*
X131353629Y-59099515D01*
X131165215Y-59553266D01*
X131164786Y-60044579D01*
X130839593Y-60044579D01*
X130808167Y-60013153D01*
X130667607Y-60013153D01*
X130450889Y-60102921D01*
X130371682Y-60049996D01*
X130123917Y-60000713D01*
X129523917Y-60000713D01*
X129488917Y-60007675D01*
X129488917Y-59720653D01*
X129535667Y-59720653D01*
X129694417Y-59561903D01*
X129694417Y-58837653D01*
X129948417Y-58837653D01*
X129948417Y-59561903D01*
X130107167Y-59720653D01*
X130547726Y-59720653D01*
X130781115Y-59623980D01*
X130959744Y-59445352D01*
X131056417Y-59211963D01*
X131056417Y-58996403D01*
X130897667Y-58837653D01*
X129948417Y-58837653D01*
X129694417Y-58837653D01*
X129674417Y-58837653D01*
X129674417Y-58583653D01*
X129694417Y-58583653D01*
X129694417Y-57859403D01*
X129948417Y-57859403D01*
X129948417Y-58583653D01*
X130897667Y-58583653D01*
X131056417Y-58424903D01*
X131056417Y-58209343D01*
X130959744Y-57975954D01*
X130781115Y-57797326D01*
X130547726Y-57700653D01*
X130107167Y-57700653D01*
X129948417Y-57859403D01*
X129694417Y-57859403D01*
X129535667Y-57700653D01*
X129095108Y-57700653D01*
X129056417Y-57716679D01*
X129056417Y-57440008D01*
X129299501Y-57540945D01*
X129790814Y-57541374D01*
X130244892Y-57353752D01*
X130592606Y-57006645D01*
X130781020Y-56552894D01*
X130781418Y-56097440D01*
X131125000Y-56097440D01*
X131372765Y-56048157D01*
X131460000Y-55989868D01*
X131547235Y-56048157D01*
X131795000Y-56097440D01*
X132395000Y-56097440D01*
X132642765Y-56048157D01*
X132730000Y-55989868D01*
X132817235Y-56048157D01*
X133065000Y-56097440D01*
X133665000Y-56097440D01*
X133912765Y-56048157D01*
X133991972Y-55995232D01*
X134208690Y-56085000D01*
X134349250Y-56085000D01*
X134508000Y-55926250D01*
X134508000Y-54827000D01*
X134488000Y-54827000D01*
X134488000Y-54573000D01*
X134508000Y-54573000D01*
X134508000Y-54553000D01*
X134762000Y-54553000D01*
X134762000Y-54573000D01*
X134782000Y-54573000D01*
X134782000Y-54827000D01*
X134762000Y-54827000D01*
X134762000Y-55926250D01*
X134920750Y-56085000D01*
X135061310Y-56085000D01*
X135278028Y-55995232D01*
X135357235Y-56048157D01*
X135605000Y-56097440D01*
X136205000Y-56097440D01*
X136452765Y-56048157D01*
X136540000Y-55989868D01*
X136627235Y-56048157D01*
X136875000Y-56097440D01*
X137475000Y-56097440D01*
X137722765Y-56048157D01*
X137810000Y-55989868D01*
X137897235Y-56048157D01*
X138145000Y-56097440D01*
X138745000Y-56097440D01*
X138815000Y-56083516D01*
X138815000Y-56400000D01*
X138874755Y-56700407D01*
X139044921Y-56955079D01*
X140416730Y-58326888D01*
X140316655Y-58830000D01*
X140430729Y-59403489D01*
X140755585Y-59889670D01*
X140772566Y-59901016D01*
X140736235Y-59908243D01*
X140526191Y-60048591D01*
X140385843Y-60258635D01*
X140336560Y-60506400D01*
X140336560Y-60844094D01*
X137090327Y-64090327D01*
X136627517Y-64782971D01*
X136465000Y-65600000D01*
X136465000Y-72800000D01*
X136627517Y-73617029D01*
X137090327Y-74309673D01*
X137782971Y-74772483D01*
X138600000Y-74935000D01*
X139417029Y-74772483D01*
X140109673Y-74309673D01*
X140572483Y-73617029D01*
X140735000Y-72800000D01*
X140735000Y-66484346D01*
X143290000Y-63929346D01*
X143290000Y-64000000D01*
X143294977Y-64025023D01*
X143291787Y-64050331D01*
X143321845Y-64160093D01*
X143344046Y-64271705D01*
X143358217Y-64292914D01*
X143364956Y-64317522D01*
X143434733Y-64407428D01*
X143497954Y-64502046D01*
X143519167Y-64516220D01*
X143534807Y-64536372D01*
X143633673Y-64592730D01*
X143728295Y-64655954D01*
X143753314Y-64660931D01*
X143775478Y-64673565D01*
X146290000Y-65511739D01*
X146290000Y-79290000D01*
X97710000Y-79290000D01*
X97710000Y-76442619D01*
X98764613Y-76442619D01*
X99104155Y-77264372D01*
X99732321Y-77893636D01*
X100553481Y-78234611D01*
X101442619Y-78235387D01*
X102264372Y-77895845D01*
X102893636Y-77267679D01*
X103234611Y-76446519D01*
X103234614Y-76442619D01*
X140764613Y-76442619D01*
X141104155Y-77264372D01*
X141732321Y-77893636D01*
X142553481Y-78234611D01*
X143442619Y-78235387D01*
X144264372Y-77895845D01*
X144893636Y-77267679D01*
X145234611Y-76446519D01*
X145235387Y-75557381D01*
X144895845Y-74735628D01*
X144267679Y-74106364D01*
X143446519Y-73765389D01*
X142557381Y-73764613D01*
X141735628Y-74104155D01*
X141106364Y-74732321D01*
X140765389Y-75553481D01*
X140764613Y-76442619D01*
X103234614Y-76442619D01*
X103235387Y-75557381D01*
X102895845Y-74735628D01*
X102267679Y-74106364D01*
X101446519Y-73765389D01*
X100557381Y-73764613D01*
X99735628Y-74104155D01*
X99106364Y-74732321D01*
X98765389Y-75553481D01*
X98764613Y-76442619D01*
X97710000Y-76442619D01*
X97710000Y-66379981D01*
X100393837Y-64590756D01*
X100443596Y-64541101D01*
X100502046Y-64502046D01*
X100540693Y-64444206D01*
X100589930Y-64395072D01*
X100616899Y-64330155D01*
X100655954Y-64271705D01*
X100669525Y-64203482D01*
X100696212Y-64139243D01*
X100696285Y-64068948D01*
X100710000Y-64000000D01*
X100710000Y-61120130D01*
X101852690Y-61120130D01*
X101852690Y-64119870D01*
X101901973Y-64367635D01*
X102042321Y-64577679D01*
X102252365Y-64718027D01*
X102500130Y-64767310D01*
X105499870Y-64767310D01*
X105747635Y-64718027D01*
X105812524Y-64674669D01*
X108862727Y-64674669D01*
X108956736Y-65147283D01*
X109002346Y-65215543D01*
X109019216Y-65300356D01*
X109373639Y-65830789D01*
X109904072Y-66185212D01*
X110529759Y-66309669D01*
X112689689Y-66309669D01*
X112823327Y-66509673D01*
X122023327Y-75709673D01*
X122715971Y-76172483D01*
X123533000Y-76335000D01*
X129200000Y-76335000D01*
X130017029Y-76172483D01*
X130709673Y-75709673D01*
X131172483Y-75017029D01*
X131335000Y-74200000D01*
X131247089Y-73758043D01*
X133623983Y-71381149D01*
X133870020Y-71012929D01*
X133956417Y-70578583D01*
X133956417Y-70310000D01*
X134364250Y-70310000D01*
X134523000Y-70151250D01*
X134523000Y-69427000D01*
X134777000Y-69427000D01*
X134777000Y-70151250D01*
X134935750Y-70310000D01*
X135376309Y-70310000D01*
X135609698Y-70213327D01*
X135788327Y-70034699D01*
X135885000Y-69801310D01*
X135885000Y-69585750D01*
X135726250Y-69427000D01*
X134777000Y-69427000D01*
X134523000Y-69427000D01*
X134503000Y-69427000D01*
X134503000Y-69173000D01*
X134523000Y-69173000D01*
X134523000Y-68448750D01*
X134777000Y-68448750D01*
X134777000Y-69173000D01*
X135726250Y-69173000D01*
X135885000Y-69014250D01*
X135885000Y-68798690D01*
X135788327Y-68565301D01*
X135609698Y-68386673D01*
X135376309Y-68290000D01*
X134935750Y-68290000D01*
X134777000Y-68448750D01*
X134523000Y-68448750D01*
X134364250Y-68290000D01*
X133923691Y-68290000D01*
X133690302Y-68386673D01*
X133689102Y-68387873D01*
X133597765Y-68326843D01*
X133350000Y-68277560D01*
X133298917Y-68277560D01*
X133298917Y-67660694D01*
X133311357Y-67598153D01*
X133311357Y-66048153D01*
X133262074Y-65800388D01*
X133121726Y-65590344D01*
X132911682Y-65449996D01*
X132663917Y-65400713D01*
X132268917Y-65400713D01*
X132268917Y-64996403D01*
X132110167Y-64837653D01*
X131173417Y-64837653D01*
X131173417Y-64857653D01*
X130955167Y-64857653D01*
X130935167Y-64837653D01*
X129982667Y-64837653D01*
X129823917Y-64996403D01*
X129823917Y-65424462D01*
X129920590Y-65657851D01*
X129950917Y-65688178D01*
X129950917Y-66696153D01*
X129970917Y-66696153D01*
X129970917Y-66950153D01*
X129950917Y-66950153D01*
X129950917Y-68074403D01*
X130109667Y-68233153D01*
X130250227Y-68233153D01*
X130466945Y-68143385D01*
X130546152Y-68196310D01*
X130793917Y-68245593D01*
X131393917Y-68245593D01*
X131428917Y-68238631D01*
X131428917Y-69253153D01*
X131500090Y-69610962D01*
X131502560Y-69614659D01*
X131502560Y-69675000D01*
X131551843Y-69922765D01*
X131680122Y-70114746D01*
X129641957Y-72152911D01*
X129200000Y-72065000D01*
X124417346Y-72065000D01*
X118722696Y-66370350D01*
X119174965Y-66535516D01*
X119780700Y-66509723D01*
X120220533Y-66327539D01*
X120305591Y-66072196D01*
X119413000Y-65179605D01*
X119398858Y-65193748D01*
X119219253Y-65014143D01*
X119233395Y-65000000D01*
X119592605Y-65000000D01*
X120485196Y-65892591D01*
X120740539Y-65807533D01*
X120948516Y-65238035D01*
X120938052Y-64992278D01*
X121636297Y-64992278D01*
X121640167Y-65029950D01*
X121866679Y-65458143D01*
X122239812Y-65767059D01*
X122702759Y-65909669D01*
X123102759Y-65909669D01*
X123102759Y-64801669D01*
X123356759Y-64801669D01*
X123356759Y-65909669D01*
X123756759Y-65909669D01*
X124219706Y-65767059D01*
X124592839Y-65458143D01*
X124819351Y-65029950D01*
X124823221Y-64992278D01*
X124698490Y-64801669D01*
X123356759Y-64801669D01*
X123102759Y-64801669D01*
X121761028Y-64801669D01*
X121636297Y-64992278D01*
X120938052Y-64992278D01*
X120922723Y-64632300D01*
X120808716Y-64357060D01*
X121636297Y-64357060D01*
X121761028Y-64547669D01*
X123102759Y-64547669D01*
X123102759Y-63439669D01*
X123356759Y-63439669D01*
X123356759Y-64547669D01*
X124698490Y-64547669D01*
X124823221Y-64357060D01*
X124819351Y-64319388D01*
X124592839Y-63891195D01*
X124219706Y-63582279D01*
X123756759Y-63439669D01*
X123356759Y-63439669D01*
X123102759Y-63439669D01*
X122702759Y-63439669D01*
X122239812Y-63582279D01*
X121866679Y-63891195D01*
X121640167Y-64319388D01*
X121636297Y-64357060D01*
X120808716Y-64357060D01*
X120740539Y-64192467D01*
X120485196Y-64107409D01*
X119592605Y-65000000D01*
X119233395Y-65000000D01*
X118340804Y-64107409D01*
X118085461Y-64192467D01*
X117877484Y-64761965D01*
X117903277Y-65367700D01*
X118032840Y-65680494D01*
X116280150Y-63927804D01*
X118520409Y-63927804D01*
X119413000Y-64820395D01*
X120305591Y-63927804D01*
X120220533Y-63672461D01*
X119651035Y-63464484D01*
X119045300Y-63490277D01*
X118605467Y-63672461D01*
X118520409Y-63927804D01*
X116280150Y-63927804D01*
X115842673Y-63490327D01*
X115150029Y-63027517D01*
X114333000Y-62865000D01*
X113515971Y-63027517D01*
X113497784Y-63039669D01*
X111746050Y-63039669D01*
X111892839Y-62918143D01*
X112119351Y-62489950D01*
X112123221Y-62452278D01*
X111998490Y-62261669D01*
X110656759Y-62261669D01*
X110656759Y-62281669D01*
X110402759Y-62281669D01*
X110402759Y-62261669D01*
X109061028Y-62261669D01*
X108936297Y-62452278D01*
X108940167Y-62489950D01*
X109166679Y-62918143D01*
X109539812Y-63227059D01*
X109724664Y-63284002D01*
X109373639Y-63518549D01*
X109019216Y-64048982D01*
X109002346Y-64133795D01*
X108956736Y-64202055D01*
X108862727Y-64674669D01*
X105812524Y-64674669D01*
X105957679Y-64577679D01*
X106098027Y-64367635D01*
X106147310Y-64119870D01*
X106147310Y-62784930D01*
X107702570Y-61229669D01*
X109313468Y-61229669D01*
X109166679Y-61351195D01*
X108940167Y-61779388D01*
X108936297Y-61817060D01*
X109061028Y-62007669D01*
X110402759Y-62007669D01*
X110402759Y-61987669D01*
X110656759Y-61987669D01*
X110656759Y-62007669D01*
X111998490Y-62007669D01*
X112123221Y-61817060D01*
X112119351Y-61779388D01*
X111892839Y-61351195D01*
X111519706Y-61042279D01*
X111334854Y-60985336D01*
X111685879Y-60750789D01*
X112040302Y-60220356D01*
X112057172Y-60135543D01*
X112102782Y-60067283D01*
X112196791Y-59594669D01*
X112102782Y-59122055D01*
X112057172Y-59053795D01*
X112040302Y-58968982D01*
X111685879Y-58438549D01*
X111515445Y-58324669D01*
X111685879Y-58210789D01*
X112040302Y-57680356D01*
X112057172Y-57595543D01*
X112102782Y-57527283D01*
X112196791Y-57054669D01*
X112102782Y-56582055D01*
X112057172Y-56513795D01*
X112040302Y-56428982D01*
X111685879Y-55898549D01*
X111515445Y-55784669D01*
X111685879Y-55670789D01*
X112040302Y-55140356D01*
X112057172Y-55055543D01*
X112102782Y-54987283D01*
X112196791Y-54514669D01*
X112102782Y-54042055D01*
X112057172Y-53973795D01*
X112040302Y-53888982D01*
X111685879Y-53358549D01*
X111515445Y-53244669D01*
X111685879Y-53130789D01*
X112040302Y-52600356D01*
X112057172Y-52515543D01*
X112102782Y-52447283D01*
X112196791Y-51974669D01*
X112102782Y-51502055D01*
X112057172Y-51433795D01*
X112040302Y-51348982D01*
X111685879Y-50818549D01*
X111348070Y-50592833D01*
X111434405Y-50575660D01*
X111835068Y-50307946D01*
X112102782Y-49907283D01*
X112196791Y-49434669D01*
X112102782Y-48962055D01*
X111835068Y-48561392D01*
X111434405Y-48293678D01*
X110961791Y-48199669D01*
X110097727Y-48199669D01*
X109625113Y-48293678D01*
X109224450Y-48561392D01*
X108956736Y-48962055D01*
X108862727Y-49434669D01*
X108956736Y-49907283D01*
X109192765Y-50260526D01*
X106144518Y-47212278D01*
X108936297Y-47212278D01*
X108940167Y-47249950D01*
X109166679Y-47678143D01*
X109539812Y-47987059D01*
X110002759Y-48129669D01*
X110402759Y-48129669D01*
X110402759Y-47021669D01*
X110656759Y-47021669D01*
X110656759Y-48129669D01*
X111056759Y-48129669D01*
X111519706Y-47987059D01*
X111892839Y-47678143D01*
X112119351Y-47249950D01*
X112123221Y-47212278D01*
X111998490Y-47021669D01*
X110656759Y-47021669D01*
X110402759Y-47021669D01*
X109061028Y-47021669D01*
X108936297Y-47212278D01*
X106144518Y-47212278D01*
X106135026Y-47202786D01*
X106135240Y-46957211D01*
X105978165Y-46577060D01*
X108936297Y-46577060D01*
X109061028Y-46767669D01*
X110402759Y-46767669D01*
X110402759Y-45659669D01*
X110656759Y-45659669D01*
X110656759Y-46767669D01*
X111998490Y-46767669D01*
X112123221Y-46577060D01*
X112119351Y-46539388D01*
X111892839Y-46111195D01*
X111519706Y-45802279D01*
X111056759Y-45659669D01*
X110656759Y-45659669D01*
X110402759Y-45659669D01*
X110002759Y-45659669D01*
X109539812Y-45802279D01*
X109166679Y-46111195D01*
X108940167Y-46539388D01*
X108936297Y-46577060D01*
X105978165Y-46577060D01*
X105810910Y-46172273D01*
X105210886Y-45571200D01*
X104426515Y-45245501D01*
X103577211Y-45244760D01*
X102792273Y-45569090D01*
X102191200Y-46169114D01*
X101865501Y-46953485D01*
X101864760Y-47802789D01*
X102189090Y-48587727D01*
X102789114Y-49188800D01*
X103573485Y-49514499D01*
X103822476Y-49514716D01*
X104780070Y-50472310D01*
X104426515Y-50325501D01*
X103577211Y-50324760D01*
X102792273Y-50649090D01*
X102191200Y-51249114D01*
X101865501Y-52033485D01*
X101864760Y-52882789D01*
X102189090Y-53667727D01*
X102789114Y-54268800D01*
X103573485Y-54594499D01*
X103822477Y-54594716D01*
X104647430Y-55419669D01*
X104485336Y-55419669D01*
X104485331Y-55419668D01*
X104468632Y-55422990D01*
X104426515Y-55405501D01*
X103577211Y-55404760D01*
X102792273Y-55729090D01*
X102191200Y-56329114D01*
X101865501Y-57113485D01*
X101864760Y-57962789D01*
X102189090Y-58747727D01*
X102789114Y-59348800D01*
X103573485Y-59674499D01*
X104422789Y-59675240D01*
X104780200Y-59527561D01*
X103835070Y-60472690D01*
X102500130Y-60472690D01*
X102252365Y-60521973D01*
X102042321Y-60662321D01*
X101901973Y-60872365D01*
X101852690Y-61120130D01*
X100710000Y-61120130D01*
X100710000Y-46000000D01*
X100705023Y-45974980D01*
X100708214Y-45949669D01*
X100678154Y-45839899D01*
X100655954Y-45728295D01*
X100641783Y-45707086D01*
X100635044Y-45682478D01*
X100565267Y-45592572D01*
X100502046Y-45497954D01*
X100480833Y-45483780D01*
X100465193Y-45463628D01*
X100366327Y-45407270D01*
X100271705Y-45344046D01*
X100246686Y-45339069D01*
X100224522Y-45326435D01*
X97710000Y-44488261D01*
X97710000Y-34442619D01*
X98764613Y-34442619D01*
X99104155Y-35264372D01*
X99732321Y-35893636D01*
X100553481Y-36234611D01*
X101442619Y-36235387D01*
X102264372Y-35895845D01*
X102893636Y-35267679D01*
X103234611Y-34446519D01*
X103234614Y-34442619D01*
X140764613Y-34442619D01*
X141104155Y-35264372D01*
X141732321Y-35893636D01*
X142553481Y-36234611D01*
X143442619Y-36235387D01*
X144264372Y-35895845D01*
X144893636Y-35267679D01*
X145234611Y-34446519D01*
X145235387Y-33557381D01*
X144895845Y-32735628D01*
X144267679Y-32106364D01*
X143446519Y-31765389D01*
X142557381Y-31764613D01*
X141735628Y-32104155D01*
X141106364Y-32732321D01*
X140765389Y-33553481D01*
X140764613Y-34442619D01*
X103234614Y-34442619D01*
X103235387Y-33557381D01*
X102895845Y-32735628D01*
X102267679Y-32106364D01*
X101446519Y-31765389D01*
X100557381Y-31764613D01*
X99735628Y-32104155D01*
X99106364Y-32732321D01*
X98765389Y-33553481D01*
X98764613Y-34442619D01*
X97710000Y-34442619D01*
X97710000Y-30710000D01*
X146290000Y-30710000D01*
X146290000Y-44488261D01*
G36*
X124153042Y-45458174D02*
X124252408Y-45698657D01*
X124512964Y-45959669D01*
X124442693Y-45959669D01*
X124134405Y-45753678D01*
X123661791Y-45659669D01*
X122797727Y-45659669D01*
X122325113Y-45753678D01*
X121924450Y-46021392D01*
X121656736Y-46422055D01*
X121562727Y-46894669D01*
X121656736Y-47367283D01*
X121924450Y-47767946D01*
X122325113Y-48035660D01*
X122797727Y-48129669D01*
X123048041Y-48129669D01*
X122978041Y-48199669D01*
X122797727Y-48199669D01*
X122325113Y-48293678D01*
X121924450Y-48561392D01*
X121656736Y-48962055D01*
X121562727Y-49434669D01*
X121656736Y-49907283D01*
X121924450Y-50307946D01*
X122325113Y-50575660D01*
X122797727Y-50669669D01*
X123661791Y-50669669D01*
X124134405Y-50575660D01*
X124535068Y-50307946D01*
X124802782Y-49907283D01*
X124896791Y-49434669D01*
X124812314Y-49009976D01*
X125187290Y-48635000D01*
X128607560Y-48635000D01*
X128607560Y-50050000D01*
X128656843Y-50297765D01*
X128797191Y-50507809D01*
X128919275Y-50589384D01*
X128999921Y-50710079D01*
X131544919Y-53255076D01*
X131544921Y-53255079D01*
X131657049Y-53330000D01*
X131547235Y-53351843D01*
X131460000Y-53410132D01*
X131372765Y-53351843D01*
X131125000Y-53302560D01*
X130525000Y-53302560D01*
X130277235Y-53351843D01*
X130190000Y-53410132D01*
X130102765Y-53351843D01*
X129855000Y-53302560D01*
X129255000Y-53302560D01*
X129007235Y-53351843D01*
X128910000Y-53416814D01*
X128910000Y-53235750D01*
X128751250Y-53077000D01*
X128027000Y-53077000D01*
X128027000Y-53097000D01*
X127773000Y-53097000D01*
X127773000Y-53077000D01*
X127048750Y-53077000D01*
X126890000Y-53235750D01*
X126890000Y-53284868D01*
X126735000Y-53129868D01*
X126735000Y-52487043D01*
X126834785Y-52246734D01*
X126834805Y-52223691D01*
X126890000Y-52223691D01*
X126890000Y-52664250D01*
X127048750Y-52823000D01*
X127773000Y-52823000D01*
X127773000Y-51873750D01*
X128027000Y-51873750D01*
X128027000Y-52823000D01*
X128751250Y-52823000D01*
X128910000Y-52664250D01*
X128910000Y-52223691D01*
X128813327Y-51990302D01*
X128634699Y-51811673D01*
X128401310Y-51715000D01*
X128185750Y-51715000D01*
X128027000Y-51873750D01*
X127773000Y-51873750D01*
X127614250Y-51715000D01*
X127398690Y-51715000D01*
X127165301Y-51811673D01*
X126986673Y-51990302D01*
X126890000Y-52223691D01*
X126834805Y-52223691D01*
X126835214Y-51755421D01*
X126647592Y-51301343D01*
X126300485Y-50953629D01*
X125846734Y-50765215D01*
X125355421Y-50764786D01*
X125174191Y-50839669D01*
X124143371Y-50839669D01*
X124134405Y-50833678D01*
X123661791Y-50739669D01*
X122797727Y-50739669D01*
X122325113Y-50833678D01*
X121924450Y-51101392D01*
X121656736Y-51502055D01*
X121562727Y-51974669D01*
X121656736Y-52447283D01*
X121924450Y-52847946D01*
X122325113Y-53115660D01*
X122797727Y-53209669D01*
X123661791Y-53209669D01*
X124134405Y-53115660D01*
X124143371Y-53109669D01*
X124465000Y-53109669D01*
X124465000Y-53579669D01*
X124442693Y-53579669D01*
X124134405Y-53373678D01*
X123661791Y-53279669D01*
X122797727Y-53279669D01*
X122325113Y-53373678D01*
X121924450Y-53641392D01*
X121656736Y-54042055D01*
X121570910Y-54473530D01*
X120635000Y-53537620D01*
X120635000Y-45005012D01*
X120651365Y-45001757D01*
X120861409Y-44861409D01*
X121001757Y-44651365D01*
X121051040Y-44403600D01*
X121051040Y-42676400D01*
X121001757Y-42428635D01*
X120861409Y-42218591D01*
X120736307Y-42135000D01*
X120829868Y-42135000D01*
X124153042Y-45458174D01*
X124153042Y-45458174D01*
G37*
X124153042Y-45458174D02*
X124252408Y-45698657D01*
X124512964Y-45959669D01*
X124442693Y-45959669D01*
X124134405Y-45753678D01*
X123661791Y-45659669D01*
X122797727Y-45659669D01*
X122325113Y-45753678D01*
X121924450Y-46021392D01*
X121656736Y-46422055D01*
X121562727Y-46894669D01*
X121656736Y-47367283D01*
X121924450Y-47767946D01*
X122325113Y-48035660D01*
X122797727Y-48129669D01*
X123048041Y-48129669D01*
X122978041Y-48199669D01*
X122797727Y-48199669D01*
X122325113Y-48293678D01*
X121924450Y-48561392D01*
X121656736Y-48962055D01*
X121562727Y-49434669D01*
X121656736Y-49907283D01*
X121924450Y-50307946D01*
X122325113Y-50575660D01*
X122797727Y-50669669D01*
X123661791Y-50669669D01*
X124134405Y-50575660D01*
X124535068Y-50307946D01*
X124802782Y-49907283D01*
X124896791Y-49434669D01*
X124812314Y-49009976D01*
X125187290Y-48635000D01*
X128607560Y-48635000D01*
X128607560Y-50050000D01*
X128656843Y-50297765D01*
X128797191Y-50507809D01*
X128919275Y-50589384D01*
X128999921Y-50710079D01*
X131544919Y-53255076D01*
X131544921Y-53255079D01*
X131657049Y-53330000D01*
X131547235Y-53351843D01*
X131460000Y-53410132D01*
X131372765Y-53351843D01*
X131125000Y-53302560D01*
X130525000Y-53302560D01*
X130277235Y-53351843D01*
X130190000Y-53410132D01*
X130102765Y-53351843D01*
X129855000Y-53302560D01*
X129255000Y-53302560D01*
X129007235Y-53351843D01*
X128910000Y-53416814D01*
X128910000Y-53235750D01*
X128751250Y-53077000D01*
X128027000Y-53077000D01*
X128027000Y-53097000D01*
X127773000Y-53097000D01*
X127773000Y-53077000D01*
X127048750Y-53077000D01*
X126890000Y-53235750D01*
X126890000Y-53284868D01*
X126735000Y-53129868D01*
X126735000Y-52487043D01*
X126834785Y-52246734D01*
X126834805Y-52223691D01*
X126890000Y-52223691D01*
X126890000Y-52664250D01*
X127048750Y-52823000D01*
X127773000Y-52823000D01*
X127773000Y-51873750D01*
X128027000Y-51873750D01*
X128027000Y-52823000D01*
X128751250Y-52823000D01*
X128910000Y-52664250D01*
X128910000Y-52223691D01*
X128813327Y-51990302D01*
X128634699Y-51811673D01*
X128401310Y-51715000D01*
X128185750Y-51715000D01*
X128027000Y-51873750D01*
X127773000Y-51873750D01*
X127614250Y-51715000D01*
X127398690Y-51715000D01*
X127165301Y-51811673D01*
X126986673Y-51990302D01*
X126890000Y-52223691D01*
X126834805Y-52223691D01*
X126835214Y-51755421D01*
X126647592Y-51301343D01*
X126300485Y-50953629D01*
X125846734Y-50765215D01*
X125355421Y-50764786D01*
X125174191Y-50839669D01*
X124143371Y-50839669D01*
X124134405Y-50833678D01*
X123661791Y-50739669D01*
X122797727Y-50739669D01*
X122325113Y-50833678D01*
X121924450Y-51101392D01*
X121656736Y-51502055D01*
X121562727Y-51974669D01*
X121656736Y-52447283D01*
X121924450Y-52847946D01*
X122325113Y-53115660D01*
X122797727Y-53209669D01*
X123661791Y-53209669D01*
X124134405Y-53115660D01*
X124143371Y-53109669D01*
X124465000Y-53109669D01*
X124465000Y-53579669D01*
X124442693Y-53579669D01*
X124134405Y-53373678D01*
X123661791Y-53279669D01*
X122797727Y-53279669D01*
X122325113Y-53373678D01*
X121924450Y-53641392D01*
X121656736Y-54042055D01*
X121570910Y-54473530D01*
X120635000Y-53537620D01*
X120635000Y-45005012D01*
X120651365Y-45001757D01*
X120861409Y-44861409D01*
X121001757Y-44651365D01*
X121051040Y-44403600D01*
X121051040Y-42676400D01*
X121001757Y-42428635D01*
X120861409Y-42218591D01*
X120736307Y-42135000D01*
X120829868Y-42135000D01*
X124153042Y-45458174D01*
M02*
